<svg width="191" height="261" viewBox="0 0 191 261" fill="none" xmlns="http://www.w3.org/2000/svg">
<path d="M95.4884 0H99.626V250.075H95.4884V0Z" fill="#E0E0E0"/>
<path d="M119.21 10.1845C121.63 10.1845 122.824 5.31038 122.951 4.73509L121.424 4.23566C121.017 5.99946 120.002 8.37649 119.146 8.28166C118.329 8.0804 117.598 7.54091 117.08 6.75809C116.719 6.26766 116.274 5.87564 115.775 5.60844C115.277 5.34125 114.736 5.20512 114.19 5.20923H82.3361C81.221 5.21334 80.1493 5.72664 79.3399 6.64429C78.431 7.66212 77.5433 8.21844 76.8457 8.21844C75.7889 8.21844 75.0543 6.75177 74.806 5.75923L73.2894 6.31556C73.7703 8.21212 75.0544 10.1087 76.8457 10.1087C78.2566 10.1087 79.5671 8.97074 80.4232 8.02246C80.9385 7.43322 81.6232 7.10287 82.3361 7.09947H114.19C114.508 7.10103 114.822 7.18294 115.111 7.33982C115.401 7.4967 115.659 7.72503 115.87 8.00982C116.637 9.16017 117.736 9.92663 118.951 10.1593L119.21 10.1845Z" fill="#E0E0E0"/>
<path d="M98.2844 6.62533C98.2844 6.72016 101.946 6.7897 106.454 6.7897C110.961 6.7897 114.623 6.72016 114.623 6.62533C114.623 6.5305 110.967 6.46097 106.454 6.46097C101.941 6.46097 98.2844 6.51786 98.2844 6.62533Z" fill="#263238"/>
<path d="M98.3324 6.58107C98.3799 6.51785 98.3324 6.32187 98.3324 6.11325C98.3324 5.90463 98.4698 5.74026 98.4381 5.65807C98.4064 5.57589 98.121 5.65807 98.0629 6.06267C98.0048 6.46728 98.3324 6.66325 98.3324 6.58107Z" fill="#263238"/>
<path d="M95.453 19.534C95.5269 19.534 95.5904 15.2098 95.5904 9.87418C95.5904 4.53852 95.5269 0.214351 95.453 0.214351C95.379 0.214351 95.3156 4.53852 95.3156 9.87418C95.3156 15.2098 95.3737 19.534 95.453 19.534Z" fill="#263238"/>
<path d="M102.537 73.0238H118.749V62.6496C118.749 60.9371 118.181 59.2947 117.17 58.0832C116.158 56.8717 114.786 56.1903 113.354 56.1886H107.932C106.501 56.1903 105.129 56.8717 104.117 58.0832C103.106 59.2947 102.537 60.9371 102.537 62.6496V73.0238ZM116.636 70.495H104.651V62.6496C104.651 61.6078 104.997 60.6086 105.612 59.8713C106.227 59.134 107.062 58.719 107.932 58.7174H113.354C114.225 58.719 115.06 59.134 115.675 59.8713C116.29 60.6086 116.636 61.6078 116.636 62.6496V70.495Z" fill="#E0E0E0"/>
<path d="M97.5762 69.4584H124.093V108.743H97.5762V69.4584Z" fill="#E0E0E0"/>
<path d="M105.36 69.4584H124.093V108.389H105.36V69.4584Z" fill="#F5F5F5"/>
<path d="M107.73 73.2579H121.722V89.9982H107.73V73.2579Z" fill="white"/>
<path d="M107.736 89.9666C107.736 89.9666 107.736 89.8528 107.736 89.6442C107.736 89.4355 107.736 89.1131 107.736 88.7338C107.736 87.9183 107.736 86.7677 107.768 85.32C107.768 82.374 107.805 78.2142 107.826 73.2326L107.71 73.3716H121.697C121.729 73.3716 121.439 73.0619 121.56 73.2073V75.4705C121.56 76.2228 121.56 76.9688 121.56 77.7084V82.0326C121.56 84.8458 121.56 87.4947 121.56 89.9286L121.676 89.7896L111.573 89.8591L108.719 89.897H107.958H107.689C107.77 89.906 107.851 89.906 107.932 89.897H108.666L111.499 89.935L121.676 90.0108H121.798V89.9666C121.798 87.5326 121.798 84.9091 121.798 82.0705V73.2199L121.66 73.0555H107.673H107.551V73.2009C107.578 78.2205 107.599 82.4119 107.615 85.3769C107.615 86.8183 107.615 87.9562 107.647 88.7654C107.647 89.1321 107.647 89.3976 107.647 89.6442C107.667 89.7552 107.697 89.8633 107.736 89.9666Z" fill="#263238"/>
<path d="M98.0293 69.4586C98.0293 69.5471 103.842 69.6229 111.023 69.6229C118.205 69.6229 124.017 69.5471 124.017 69.4586C124.017 69.3701 118.205 69.2942 111.023 69.2942C103.842 69.2942 98.0293 69.3701 98.0293 69.4586Z" fill="#263238"/>
<path d="M97.5669 108.743C97.6461 108.743 97.7043 100.012 97.7043 89.2459C97.7043 78.4797 97.6461 69.7555 97.5669 69.7555C97.4876 69.7555 97.4295 78.4797 97.4295 89.2459C97.4295 100.012 97.4929 108.743 97.5669 108.743Z" fill="#263238"/>
<path d="M105.354 108.743C105.433 108.743 105.497 100.012 105.497 89.2459C105.497 78.4797 105.433 69.7555 105.354 69.7555C105.275 69.7555 105.217 78.4797 105.217 89.2459C105.217 100.012 105.28 108.743 105.354 108.743Z" fill="#263238"/>
<path d="M119.577 93.2477H121.722V95.8143H119.577V93.2477Z" fill="#455A64"/>
<path d="M116.619 93.2477H118.764V95.8143H116.619V93.2477Z" fill="#455A64"/>
<path d="M113.657 93.2477H115.803V95.8143H113.657V93.2477Z" fill="#455A64"/>
<path d="M110.695 93.2477H112.841V95.8143H110.695V93.2477Z" fill="#455A64"/>
<path d="M107.734 93.2477H109.879V95.8143H107.734V93.2477Z" fill="#455A64"/>
<path d="M119.577 96.655H121.722V99.2217H119.577V96.655Z" fill="#455A64"/>
<path d="M116.619 96.655H118.764V99.2217H116.619V96.655Z" fill="#455A64"/>
<path d="M113.657 96.655H115.803V99.2217H113.657V96.655Z" fill="#455A64"/>
<path d="M110.695 96.655H112.841V99.2217H110.695V96.655Z" fill="#455A64"/>
<path d="M107.734 96.655H109.879V99.2217H107.734V96.655Z" fill="#455A64"/>
<path d="M119.577 100.056H121.722V102.623H119.577V100.056Z" fill="#455A64"/>
<path d="M116.619 100.056H118.764V102.623H116.619V100.056Z" fill="#455A64"/>
<path d="M113.657 100.056H115.803V102.623H113.657V100.056Z" fill="#455A64"/>
<path d="M107.731 100.056H112.841V102.623H107.731V100.056Z" fill="#C53F3F"/>
<path d="M108.434 81.9C108.434 81.9 108.757 81.862 109.343 81.8051C109.696 81.7686 110.051 81.7878 110.4 81.862C110.851 81.9556 111.265 82.2218 111.579 82.6207C111.743 82.8843 111.861 83.1847 111.926 83.5039C111.991 83.8231 112.003 84.1548 111.959 84.4793C111.93 84.8705 111.93 85.264 111.959 85.6552C112.012 86.0872 112.166 86.4926 112.403 86.8247C112.535 87.0146 112.715 87.1485 112.916 87.2066C113.117 87.2646 113.328 87.2438 113.518 87.1471C113.878 86.916 114.153 86.5329 114.289 86.0724C114.577 85.183 114.766 84.2519 114.85 83.3034C114.96 82.3362 114.85 81.3689 114.934 80.5028C114.963 80.0833 115.079 79.6791 115.272 79.327C115.452 78.9974 115.723 78.7553 116.038 78.6442C116.186 78.6052 116.339 78.6078 116.486 78.6517C116.633 78.6956 116.769 78.7796 116.884 78.8971C117.112 79.1323 117.293 79.4263 117.412 79.7569C117.661 80.389 117.761 81.1097 118.031 81.6534C118.272 82.1765 118.653 82.5865 119.114 82.8166C119.447 82.9899 119.808 83.0678 120.171 83.0442C120.402 83.0339 120.629 82.9739 120.842 82.8672C120.917 82.8366 120.987 82.7894 121.048 82.7281C120.763 82.841 120.466 82.9049 120.165 82.9178C119.816 82.9173 119.472 82.8245 119.156 82.6459C118.741 82.4173 118.401 82.0305 118.189 81.5459C117.946 81.0086 117.856 80.3195 117.603 79.6178C117.471 79.2428 117.268 78.9095 117.011 78.6442C116.867 78.498 116.696 78.3935 116.513 78.3387C116.33 78.2839 116.139 78.2803 115.954 78.3281C115.582 78.4793 115.258 78.7623 115.024 79.1395C114.789 79.5166 114.657 79.9701 114.643 80.4396C114.559 81.3816 114.643 82.2982 114.548 83.2402C114.47 84.1552 114.292 85.0542 114.02 85.9144C113.907 86.301 113.682 86.6264 113.386 86.831C113.245 86.905 113.089 86.9215 112.94 86.8781C112.791 86.8347 112.658 86.7337 112.561 86.5908C112.355 86.3045 112.221 85.9535 112.176 85.5793C112.149 85.2091 112.149 84.8369 112.176 84.4667C112.192 84.0983 112.171 83.7289 112.112 83.3666C112.052 83.0219 111.915 82.7029 111.716 82.4437C111.368 82.0185 110.913 81.741 110.421 81.6534C110.06 81.5892 109.694 81.5892 109.333 81.6534C109.037 81.6977 108.804 81.7546 108.662 81.7925C108.519 81.8304 108.429 81.8873 108.434 81.9Z" fill="#C53F3F"/>
<path d="M80.895 253.071H112.965C112.964 252.272 112.698 251.506 112.225 250.941C111.753 250.376 111.113 250.057 110.445 250.056H83.4315C83.0993 250.054 82.7701 250.131 82.4628 250.281C82.1555 250.432 81.876 250.654 81.6404 250.934C81.4048 251.214 81.2177 251.547 81.0898 251.914C80.9619 252.281 80.8957 252.674 80.895 253.071Z" fill="#E0E0E0"/>
<path d="M107.428 255.865C107.428 256.713 107.638 257.542 108.031 258.247C108.425 258.952 108.985 259.501 109.639 259.825C110.294 260.15 111.014 260.235 111.709 260.069C112.404 259.904 113.043 259.496 113.544 258.896C114.045 258.297 114.386 257.533 114.524 256.702C114.662 255.87 114.592 255.008 114.32 254.225C114.049 253.442 113.59 252.773 113.001 252.302C112.412 251.831 111.719 251.579 111.01 251.579C110.06 251.579 109.149 252.031 108.477 252.835C107.805 253.638 107.428 254.729 107.428 255.865Z" fill="#263238"/>
<path d="M77.6103 255.865C77.6103 256.713 77.8204 257.542 78.2141 258.247C78.6077 258.952 79.1673 259.501 79.8219 259.825C80.4766 260.15 81.197 260.235 81.892 260.069C82.5869 259.904 83.2253 259.496 83.7264 258.896C84.2274 258.297 84.5687 257.533 84.7069 256.702C84.8451 255.87 84.7742 255.008 84.503 254.225C84.2319 253.442 83.7727 252.773 83.1835 252.302C82.5943 251.831 81.9016 251.579 81.193 251.579C80.2432 251.581 79.3328 252.033 78.6612 252.836C77.9896 253.64 77.6117 254.729 77.6103 255.865Z" fill="#263238"/>
<path d="M96.9439 260.177C94.9652 260.177 93.3612 258.258 93.3612 255.891C93.3612 253.524 94.9652 251.605 96.9439 251.605C98.9226 251.605 100.527 253.524 100.527 255.891C100.527 258.258 98.9226 260.177 96.9439 260.177Z" fill="#263238"/>
<path d="M47.1512 160.898C47.7304 158.659 48.8887 156.697 50.4593 155.295C52.0299 153.893 53.9319 153.123 55.8913 153.097L63.432 152.952C74.1908 152.724 87.5864 152.446 93.7531 152.876C99.7138 153.293 103.233 156.669 105.13 159.438C106.387 161.22 107.319 163.295 107.867 165.532V165.633C112.301 191.155 127.99 258.641 128.302 260.177L123.895 260.101C123.541 258.407 105.289 174.629 103.909 166.689C103.74 165.962 101.717 158.294 93.4942 157.718C87.4807 157.301 74.1749 157.579 63.4795 157.801C60.7106 157.857 58.0949 157.914 55.923 157.946C54.8167 157.964 53.7438 158.402 52.8594 159.198C51.975 159.993 51.325 161.105 51.0034 162.371L25.1105 260.36L20.8408 260.19L47.1512 160.898Z" fill="#455A64"/>
<path d="M47.1502 160.898C47.1502 160.898 46.981 161.492 46.6693 162.662C46.3575 163.832 45.8925 165.564 45.2848 167.833C44.0694 172.379 42.2886 179.074 40.0005 187.665C35.4508 204.867 28.856 229.68 20.7711 260.139L20.7288 260.303H20.8715L25.1412 260.474H25.2205L25.2469 260.379C31.16 238.019 37.8921 212.548 45.195 184.915C47.0233 178.003 48.8834 170.963 50.7752 163.794C50.9707 162.892 51.2434 162.017 51.5889 161.183C51.9716 160.375 52.5041 159.683 53.1454 159.16C53.7867 158.638 54.5196 158.298 55.2879 158.167C55.677 158.11 56.069 158.084 56.461 158.091H57.6553L67.3044 157.902C73.7882 157.782 80.3618 157.642 87.0147 157.699C88.6739 157.699 90.3437 157.744 92.0136 157.819C93.6809 157.814 95.3399 158.1 96.9385 158.667C98.5275 159.269 99.9756 160.311 101.166 161.707C102.375 163.113 103.281 164.849 103.808 166.765C104.59 170.918 105.473 174.983 106.323 179.08C107.174 183.177 108.046 187.204 108.902 191.224C110.628 199.257 112.332 207.181 114.012 214.995C117.394 230.603 120.665 245.713 123.798 260.171L123.825 260.284H123.925L128.332 260.354H128.501L128.459 260.158C122.646 234.788 117.32 211.265 112.86 190.169C111.756 184.89 110.688 179.769 109.689 174.8L108.971 171.102C108.745 169.879 108.523 168.666 108.305 167.46L107.972 165.665C107.85 165.068 107.685 164.484 107.481 163.92C107.09 162.811 106.607 161.752 106.038 160.759C104.94 158.813 103.528 157.149 101.885 155.866C100.305 154.645 98.5544 153.775 96.7166 153.299C94.9585 152.885 93.1713 152.674 91.3795 152.667C89.6357 152.604 87.9341 152.585 86.2749 152.572C79.6431 152.572 73.6983 152.673 68.5145 152.781C63.3306 152.888 58.9024 152.958 55.3038 153.091C53.7029 153.234 52.1606 153.872 50.828 154.943C49.8594 155.715 49.0235 156.702 48.3655 157.851C47.9645 158.55 47.6312 159.3 47.3721 160.089C47.2136 160.633 47.1396 160.905 47.1396 160.905C47.1396 160.905 47.2294 160.633 47.3932 160.102C47.6587 159.317 47.9972 158.57 48.4025 157.876C49.1916 156.529 50.2219 155.408 51.4184 154.597C52.615 153.785 53.9477 153.303 55.3196 153.186C58.9129 153.072 63.3464 153.027 68.5303 152.92C73.7142 152.813 79.659 152.718 86.2907 152.756C87.95 152.756 89.6515 152.794 91.39 152.857C93.1642 152.866 94.9336 153.078 96.6743 153.489C98.4917 153.954 100.223 154.811 101.784 156.018C103.405 157.289 104.799 158.933 105.885 160.854C106.444 161.848 106.919 162.907 107.301 164.015C107.499 164.568 107.662 165.139 107.787 165.722C107.893 166.316 108.004 166.917 108.109 167.517C108.331 168.727 108.553 169.943 108.775 171.165L109.494 174.863C110.461 179.832 111.523 184.978 112.622 190.238C117.066 211.34 122.382 234.877 128.184 260.24L128.311 260.051L123.899 259.975L124.026 260.089C120.897 245.63 117.626 230.521 114.244 214.912C112.571 207.103 110.87 199.177 109.14 191.136C108.291 187.115 107.431 183.069 106.561 178.998C105.716 174.92 104.833 170.824 104.051 166.689C103.516 164.724 102.592 162.943 101.356 161.499C100.13 160.064 98.6384 158.996 97.0019 158.382C95.3793 157.806 93.6955 157.514 92.003 157.516C90.3279 157.44 88.6581 157.415 86.9935 157.396C80.3353 157.345 73.7829 157.478 67.2779 157.605L57.6341 157.794H56.4346C56.0319 157.787 55.6293 157.815 55.2298 157.876C54.4233 158.012 53.6536 158.368 52.9802 158.916C52.3068 159.464 51.7476 160.19 51.3459 161.037C50.9912 161.892 50.7114 162.788 50.5109 163.711L44.9625 184.827C37.6755 212.472 30.9539 237.93 25.0566 260.31L25.1623 260.215L20.8926 260.051L20.9931 260.215L40.1168 187.709C42.3785 179.105 44.1434 172.404 45.3429 167.852L46.6957 162.668C47.0022 161.505 47.1502 160.898 47.1502 160.898Z" fill="#263238"/>
<path d="M163.177 208.559L167.775 222.556C167.775 222.556 181.049 221.405 182.111 223.896L159.917 235.794L151.991 214.337L163.177 208.559Z" fill="#455A64"/>
<path d="M160.618 224.97C160.429 225.161 160.306 225.429 160.273 225.723C160.24 226.016 160.299 226.313 160.438 226.557C160.591 226.789 160.812 226.942 161.055 226.984C161.299 227.026 161.547 226.955 161.749 226.785C161.948 226.582 162.078 226.297 162.112 225.987C162.146 225.676 162.083 225.361 161.934 225.103C161.754 224.88 161.508 224.748 161.248 224.738C160.989 224.727 160.736 224.838 160.544 225.046" fill="#E0E0E0"/>
<path d="M159.917 235.794L159.283 234.087L181.028 223.049C181.278 223.094 181.519 223.2 181.734 223.36C181.949 223.52 182.135 223.73 182.28 223.978L159.917 235.794Z" fill="#263238"/>
<path d="M168.016 222.536C168.058 222.669 167.529 223.017 167.144 223.719C166.758 224.42 166.668 225.128 166.552 225.128C166.436 225.128 166.314 224.288 166.8 223.44C167.286 222.593 167.994 222.404 168.016 222.536Z" fill="#263238"/>
<path d="M170.805 222.473C170.879 222.594 170.483 223.061 170.313 223.814C170.144 224.566 170.25 225.211 170.134 225.261C170.018 225.312 169.685 224.629 169.912 223.675C170.139 222.72 170.731 222.353 170.805 222.473Z" fill="#263238"/>
<path d="M173.369 225.16C173.28 225.242 172.889 224.661 172.91 223.795C172.931 222.929 173.338 222.372 173.438 222.461C173.539 222.549 173.343 223.093 173.338 223.807C173.332 224.522 173.48 225.091 173.369 225.16Z" fill="#263238"/>
<path d="M166.665 219.464C166.665 219.61 166.089 219.692 165.487 220.096C164.884 220.501 164.483 220.956 164.387 220.874C164.292 220.792 164.583 220.077 165.296 219.648C166.01 219.218 166.681 219.331 166.665 219.464Z" fill="#263238"/>
<path d="M165.972 216.29C165.645 216.6 165.254 216.798 164.841 216.866C164.403 216.992 163.954 217.054 163.504 217.049C163.237 217.048 162.97 217.023 162.706 216.973C162.549 216.958 162.396 216.911 162.252 216.834C162.147 216.778 162.06 216.682 162.004 216.561C161.949 216.44 161.928 216.3 161.945 216.164C161.966 216.042 162.012 215.928 162.077 215.832C162.142 215.735 162.226 215.658 162.32 215.608C162.463 215.536 162.612 215.485 162.764 215.456C163.032 215.403 163.302 215.378 163.573 215.38C164.028 215.389 164.479 215.483 164.91 215.658C165.644 215.962 165.998 216.36 165.967 216.404C165.935 216.448 165.528 216.196 164.825 215.993C164.413 215.882 163.99 215.831 163.568 215.842C163.321 215.849 163.075 215.882 162.833 215.943C162.569 215.987 162.368 216.094 162.352 216.253C162.352 216.309 162.352 216.335 162.431 216.392C162.538 216.445 162.65 216.479 162.764 216.493C163.433 216.615 164.114 216.615 164.783 216.493C165.174 216.388 165.572 216.32 165.972 216.29Z" fill="#263238"/>
<g opacity="0.3">
<path opacity="0.3" d="M163.187 208.559L167.784 222.556C167.784 222.556 181.058 221.405 182.12 223.896L159.926 235.794L152 214.337L163.187 208.559Z" fill="black"/>
</g>
<path d="M168.554 209.602L177.072 220.659C177.072 220.659 189.099 213.838 190.838 215.703L173.743 236.407L159.877 219.837L168.554 209.602Z" fill="#455A64"/>
<path d="M171.122 226.013C171.006 226.274 170.974 226.576 171.033 226.863C171.091 227.15 171.236 227.401 171.439 227.568C171.651 227.718 171.903 227.765 172.143 227.699C172.383 227.633 172.593 227.46 172.729 227.214C172.854 226.938 172.888 226.616 172.826 226.311C172.763 226.006 172.608 225.74 172.391 225.564C172.155 225.436 171.887 225.422 171.643 225.525C171.399 225.627 171.197 225.838 171.08 226.114" fill="#E0E0E0"/>
<path d="M173.747 236.407L172.642 235.085L189.552 215.386C189.799 215.319 190.055 215.313 190.304 215.368C190.553 215.424 190.79 215.54 191 215.709L173.747 236.407Z" fill="#263238"/>
<path d="M177.291 220.539C177.375 220.646 176.99 221.171 176.842 222.025C176.694 222.878 176.842 223.542 176.71 223.592C176.577 223.643 176.239 222.903 176.435 221.911C176.63 220.918 177.233 220.425 177.291 220.539Z" fill="#263238"/>
<path d="M179.869 219.274C179.969 219.35 179.742 219.964 179.811 220.735C179.88 221.506 180.175 222.069 180.086 222.164C179.996 222.258 179.462 221.746 179.393 220.785C179.325 219.824 179.784 219.18 179.869 219.274Z" fill="#263238"/>
<path d="M183.078 220.665C183.02 220.779 182.481 220.412 182.238 219.59C181.995 218.769 182.206 218.08 182.312 218.124C182.418 218.168 182.418 218.756 182.629 219.426C182.84 220.096 183.157 220.558 183.078 220.665Z" fill="#263238"/>
<path d="M175.096 218.263C175.138 218.396 174.631 218.725 174.182 219.331C173.733 219.938 173.505 220.596 173.389 220.533C173.273 220.469 173.331 219.704 173.87 218.996C174.409 218.288 175.069 218.137 175.096 218.263Z" fill="#263238"/>
<path d="M173.505 215.595C173.542 215.633 173.257 216.101 172.628 216.625C172.256 216.93 171.855 217.18 171.434 217.371C171.184 217.485 170.928 217.578 170.668 217.65C170.516 217.699 170.359 217.722 170.203 217.719C170.086 217.712 169.975 217.66 169.886 217.569C169.797 217.479 169.735 217.356 169.711 217.22C169.695 217.097 169.704 216.972 169.736 216.855C169.768 216.737 169.823 216.631 169.896 216.543C170.006 216.411 170.13 216.299 170.266 216.208C170.498 216.044 170.742 215.904 170.995 215.791C171.42 215.601 171.868 215.492 172.321 215.468C172.739 215.396 173.166 215.48 173.542 215.709C173.542 215.785 173.067 215.709 172.348 215.816C171.933 215.89 171.526 216.024 171.138 216.214C170.91 216.33 170.691 216.468 170.483 216.625C170.25 216.79 170.092 216.973 170.123 217.125C170.155 217.277 170.123 217.201 170.239 217.22C170.355 217.222 170.471 217.205 170.583 217.169C170.828 217.112 171.07 217.036 171.307 216.942C171.709 216.773 172.098 216.561 172.469 216.309C172.8 216.042 173.146 215.803 173.505 215.595Z" fill="#263238"/>
<path d="M174.22 212.75C174.22 213.718 141.458 169.49 130.308 167.865C120.797 166.493 92.0818 167.163 92.0818 167.163L110.645 179.055L141.791 183.569L174.22 212.75Z" fill="#263238"/>
<path d="M85.9796 167.176L133.131 170.887C137.038 171.316 140.761 173.071 143.863 175.944L176.673 215.772L165.191 229.307C165.191 229.307 133.654 198.703 129.443 194.91L80.299 197.439C80.299 197.439 65.762 197.198 61.6139 186.331L85.9796 167.176Z" fill="#263238"/>
<path d="M101.531 168.389L101.764 168.427L102.445 168.497L105.087 168.737L114.71 169.559L128.978 170.735L133.105 171.07C134.539 171.138 135.96 171.427 137.332 171.93C140.221 172.98 142.843 174.882 144.957 177.461L167.341 204.57C170.206 208.021 172.531 210.816 174.148 212.788L176.008 214.975L176.499 215.544C176.551 215.613 176.61 215.675 176.673 215.728C176.625 215.655 176.574 215.585 176.52 215.519L176.05 214.925L174.227 212.668C172.642 210.708 170.322 207.888 167.479 204.405L145.142 177.221C142.996 174.605 140.333 172.677 137.401 171.614C136.012 171.111 134.576 170.82 133.126 170.747L128.999 170.425L114.71 169.325L105.077 168.611L102.435 168.434L101.748 168.396L101.531 168.389Z" fill="#455A64"/>
<path d="M55.5307 90.8452C55.967 89.8413 56.1554 88.7095 56.074 87.5822C55.9926 86.4549 55.6447 85.3786 55.071 84.4791C54.9203 84.2979 54.8238 84.0624 54.7962 83.8089C54.825 83.5941 54.9058 83.3941 55.0287 83.2337C55.3247 82.7528 55.5363 82.2053 55.6507 81.624C55.7651 81.0427 55.78 80.4398 55.6945 79.8514C55.5993 79.2632 55.377 78.715 55.0497 78.2614C54.7225 77.8078 54.3017 77.4645 53.8292 77.2658C54.886 75.9572 54.6007 73.5296 53.3853 72.398C52.7503 71.873 51.9981 71.5886 51.2263 71.5818C50.4545 71.5751 49.6988 71.8462 49.0575 72.36C49.0868 71.7974 48.9639 71.2384 48.707 70.7658C48.45 70.2933 48.0726 69.9323 47.6307 69.7364C46.7341 69.376 45.7637 69.376 44.8671 69.7364C43.657 70.141 42.3782 71.0703 42.1932 72.5686C41.7969 71.7721 40.8774 71.614 40.1218 71.8037C39.1136 72.1037 38.2331 72.8374 37.6482 73.8647C37.0634 74.8921 36.8153 76.141 36.9512 77.3733C36.175 77.1459 35.359 77.2122 34.6156 77.5629C34.2543 77.7552 33.9555 78.0835 33.7647 78.4978C33.5739 78.9121 33.5015 79.3897 33.5587 79.8578C32.951 79.2698 32.0527 79.3963 31.3235 79.725C30.7829 79.9298 30.3074 80.3267 29.9601 80.8629C29.7908 81.1352 29.6954 81.4631 29.6869 81.8023C29.6783 82.1415 29.7572 82.4756 29.9126 82.7595C29.3611 82.8156 28.8473 83.1172 28.4729 83.6048C28.0985 84.0924 27.8907 84.7304 27.8907 85.3926C27.8907 86.0547 28.0985 86.6927 28.4729 87.1803C28.8473 87.6679 29.3611 87.9696 29.9126 88.0256C29.6397 88.498 29.472 89.0459 29.4254 89.6175C29.3788 90.1891 29.4549 90.7654 29.6464 91.292C29.8379 91.8186 30.1385 92.278 30.5198 92.6268C30.9012 92.9756 31.3505 93.2023 31.8255 93.2854C31.7351 93.374 31.6629 93.4861 31.6143 93.6132C31.5657 93.7402 31.542 93.8789 31.5451 94.0186C31.5481 94.1583 31.5778 94.2953 31.6319 94.4191C31.686 94.543 31.7631 94.6504 31.8572 94.7331C32.0583 94.8855 32.2866 94.9787 32.5236 95.0051C32.7606 95.0315 32.9994 94.9903 33.2205 94.8849C33.749 96.7372 34.2774 98.5958 34.8481 100.448C35.1446 101.669 35.6012 102.825 36.2008 103.875C36.5028 104.397 36.903 104.827 37.3693 105.13C37.8356 105.433 38.3548 105.6 38.8853 105.619" fill="#263238"/>
<path d="M53.9465 85.5035C52.4405 81.0781 47.1298 78.2333 43.5312 80.2121L32.207 87.8678L32.931 90.2765L44.5193 122.278L58.734 124.901L54.6916 111.17C54.6916 111.17 59.2308 108.3 58.0894 100.379C57.524 96.453 55.6375 90.3966 53.9465 85.5035Z" fill="#9B6B63"/>
<path d="M54.1157 92.6723C54.1847 92.919 54.1716 93.1881 54.0791 93.4235C53.9866 93.659 53.8218 93.8428 53.619 93.9366C53.4199 94.0328 53.1971 94.031 52.9992 93.9315C52.8012 93.832 52.6441 93.643 52.5621 93.4056C52.4931 93.1589 52.5062 92.8898 52.5988 92.6543C52.6913 92.4189 52.856 92.2351 53.0589 92.1412C53.258 92.045 53.4807 92.0469 53.6787 92.1463C53.8767 92.2458 54.0338 92.4348 54.1157 92.6723Z" fill="#263238"/>
<path d="M53.7598 89.132C53.6964 89.2964 52.9354 88.9993 52.0741 89.3533C51.2128 89.7073 50.7266 90.4723 50.5998 90.3838C50.4729 90.2953 50.5998 90.0803 50.7794 89.7516C51.0671 89.2929 51.4655 88.9508 51.9208 88.7717C52.3704 88.5942 52.8558 88.5942 53.3053 88.7717C53.6383 88.8665 53.7915 89.0562 53.7598 89.132Z" fill="#263238"/>
<path d="M46.6397 96.1811C46.7087 96.4278 46.6957 96.6969 46.6032 96.9324C46.5106 97.1678 46.3458 97.3516 46.143 97.4455C45.9439 97.5417 45.7211 97.5398 45.5232 97.4404C45.3252 97.3409 45.1681 97.1519 45.0862 96.9144C45.0185 96.6677 45.0322 96.3993 45.1246 96.1642C45.2169 95.9291 45.3809 95.7452 45.5829 95.6501C45.782 95.5539 46.0048 95.5557 46.2027 95.6552C46.4007 95.7547 46.5578 95.9437 46.6397 96.1811Z" fill="#263238"/>
<path d="M45.4246 92.9568C45.3612 93.1212 44.6002 92.8304 43.7389 93.1781C42.8775 93.5258 42.3967 94.3034 42.2646 94.2149C42.1325 94.1264 42.2646 93.9114 42.4495 93.5827C42.7333 93.1206 43.1304 92.7758 43.5856 92.5965C44.0356 92.4216 44.5202 92.4216 44.9701 92.5965C45.303 92.6913 45.4563 92.881 45.4246 92.9568Z" fill="#263238"/>
<path d="M50.6381 99.1587C51.0445 98.805 51.4866 98.514 51.9539 98.2926C52.1653 98.1725 52.3608 98.0397 52.3449 97.8438C52.3291 97.6478 52.1706 97.3823 51.975 97.1167L50.7544 95.3656C49.0423 92.8684 47.7159 90.7759 47.8005 90.6937C47.885 90.6115 49.3435 92.5903 51.0608 95.0748L52.2604 96.8449C52.4874 97.1099 52.6311 97.4605 52.6673 97.8374C52.6613 97.9431 52.6353 98.0458 52.5914 98.1378C52.5474 98.2297 52.4867 98.3086 52.4136 98.3685C52.3036 98.4576 52.1847 98.5298 52.0596 98.5834C51.6083 98.8471 51.1305 99.0404 50.6381 99.1587Z" fill="#263238"/>
<path d="M54.7048 111.17C51.7778 112.412 48.6192 112.653 45.5841 111.866C45.5841 111.866 49.3148 116.633 55.3653 113.408L54.7048 111.17Z" fill="#484848"/>
<path d="M50.986 101.801C50.7525 101.621 50.4847 101.514 50.2076 101.491C49.9304 101.468 49.6529 101.529 49.4007 101.668C49.2163 101.766 49.0505 101.908 48.9133 102.086C48.7761 102.263 48.6705 102.471 48.6027 102.699C48.5343 102.918 48.5245 103.158 48.5746 103.384C48.6248 103.611 48.7325 103.813 48.8828 103.963C49.0731 104.093 49.2918 104.152 49.5104 104.132C49.729 104.112 49.9375 104.013 50.1088 103.849C50.4676 103.513 50.766 103.094 50.986 102.617C51.0609 102.496 51.1148 102.358 51.1445 102.212C51.1613 102.142 51.1602 102.068 51.1413 102C51.1225 101.931 51.0867 101.87 51.0388 101.826" fill="#EB996E"/>
<path d="M48.3028 100.897C48.4402 100.834 48.7625 101.953 49.7877 102.427C50.8128 102.901 51.7746 102.377 51.8274 102.535C51.8591 102.598 51.6689 102.838 51.2514 103.021C50.7072 103.26 50.11 103.26 49.5657 103.021C49.0452 102.784 48.6213 102.315 48.382 101.713C48.2129 101.239 48.2394 100.916 48.3028 100.897Z" fill="#263238"/>
<path d="M44.6411 89.151C44.6411 89.4671 43.7375 89.6821 42.7704 90.2384C41.8034 90.7947 41.0742 91.4522 40.8681 91.2562C40.773 91.1614 40.8681 90.839 41.0953 90.4281C41.4414 89.9176 41.8801 89.5083 42.3782 89.2312C42.8764 88.954 43.4207 88.8163 43.9699 88.8286C44.3927 88.8602 44.6411 89.0056 44.6411 89.151Z" fill="#263238"/>
<path d="M52.5902 86.262C52.5057 86.5591 51.8451 86.5528 51.1265 86.8309C50.4078 87.1091 49.853 87.52 49.6416 87.3304C49.5518 87.2355 49.5782 86.9637 49.779 86.6349C50.0479 86.2224 50.4172 85.9198 50.8359 85.7688C51.2571 85.6089 51.7093 85.6089 52.1305 85.7688C52.474 85.9143 52.6272 86.1229 52.5902 86.262Z" fill="#263238"/>
<path d="M48.9367 77.8983C49.3359 78.5003 49.5745 79.2321 49.6216 79.9985C49.6686 80.7649 49.5219 81.5306 49.2006 82.1959C48.8792 82.8613 48.3979 83.3957 47.8194 83.7296C47.2409 84.0635 46.5917 84.1816 45.9564 84.0684C46.2212 84.2543 46.4184 84.5519 46.5094 84.9027C46.6003 85.2536 46.5783 85.6325 46.4478 85.965C46.1769 86.6203 45.7 87.1204 45.1215 87.3558C44.528 87.639 43.8906 87.7664 43.2525 87.7294C42.6143 87.6923 41.9902 87.4916 41.4225 87.1408C41.5253 87.741 41.5077 88.3617 41.3712 88.9522C41.2346 89.5426 40.983 90.0859 40.637 90.5375C40.291 90.9891 39.8604 91.3361 39.3806 91.5501C38.9008 91.7641 38.3854 91.8389 37.8768 91.7685C38.2986 91.999 38.6696 92.3442 38.9601 92.7768C39.2505 93.2093 39.4524 93.7171 39.5497 94.2595C39.647 94.802 39.6369 95.3642 39.5203 95.9012C39.4036 96.4382 39.1836 96.9351 38.8779 97.3524C38.5722 97.7696 38.1892 98.0955 37.7594 98.3041C37.3297 98.5127 36.8651 98.5982 36.4029 98.5538C35.9406 98.5094 35.4934 98.3364 35.0969 98.0484C34.7005 97.7605 34.3658 97.3657 34.1196 96.8955C33.6084 96.8472 33.1133 96.6589 32.6725 96.3452C32.2318 96.0315 31.8572 95.6007 31.5779 95.0862C31.2985 94.5717 31.1217 93.9872 31.0612 93.378C31.0008 92.7687 31.0582 92.1509 31.2291 91.5725C30.8793 91.5581 30.5388 91.4336 30.2419 91.2116C29.9451 90.9897 29.7023 90.678 29.5382 90.3081C29.2123 89.5643 29.0521 88.7326 29.0732 87.8931C29.0398 86.8711 29.1783 85.8515 29.4806 84.8947C29.7829 83.938 30.2427 83.0636 30.8328 82.3236C31.4394 81.6025 32.2133 81.1162 33.0538 80.9279C33.8944 80.7397 34.7628 80.8581 35.5464 81.2678C35.7026 81.3932 35.8867 81.4593 36.0748 81.4575C36.3337 81.4069 36.4817 81.0845 36.6032 80.8253C37.0894 79.5609 37.5861 78.1954 38.5531 77.4178C39.1485 76.9615 39.8556 76.76 40.559 76.8461C41.2624 76.9322 41.9207 77.3008 42.4265 77.8919C42.5659 76.9715 42.9497 76.1293 43.5208 75.4905C44.092 74.8516 44.8201 74.45 45.5971 74.3454C47.1823 74.2568 48.6989 76.008 48.477 77.8666" fill="#263238"/>
<path d="M37.6231 97.079C37.9882 98.6296 38.1662 100.235 38.1515 101.846C38.1515 102.528 38.0564 103.319 37.5702 103.673C37.3374 103.811 37.0735 103.854 36.8181 103.797C36.5627 103.74 36.3297 103.586 36.1541 103.357C35.8117 102.89 35.5704 102.33 35.4512 101.726C34.9237 99.6067 34.5142 97.4483 34.2253 95.2646" fill="#263238"/>
<path d="M36.6018 98.8173C36.5067 98.8173 33.0719 98.773 34.1076 102.61C35.1433 106.448 38.1395 104.431 38.1184 104.324C38.0972 104.216 36.6018 98.8173 36.6018 98.8173Z" fill="#484848"/>
<path d="M36.7482 103.243C36.7482 103.243 36.7007 103.312 36.6214 103.401C36.5059 103.516 36.3594 103.576 36.2092 103.571C35.8288 103.571 35.369 103.015 35.1524 102.307C35.0584 101.98 35.0242 101.633 35.052 101.289C35.0492 101.158 35.0732 101.027 35.122 100.909C35.1708 100.792 35.2429 100.69 35.3321 100.613C35.3908 100.567 35.4613 100.547 35.531 100.557C35.6007 100.568 35.6651 100.608 35.7125 100.67C35.7865 100.758 35.7865 100.847 35.8023 100.847C35.8182 100.847 35.8552 100.752 35.8023 100.606C35.7596 100.517 35.6925 100.448 35.6121 100.41C35.505 100.361 35.3863 100.361 35.2792 100.41C35.1558 100.493 35.0521 100.611 34.9781 100.755C34.9041 100.899 34.8622 101.063 34.8565 101.232C34.8086 101.617 34.8394 102.009 34.9463 102.377C35.0222 102.726 35.1825 103.04 35.4072 103.281C35.6318 103.522 35.9108 103.678 36.2092 103.729C36.303 103.727 36.395 103.699 36.4783 103.647C36.5616 103.596 36.6341 103.522 36.6901 103.432C36.7641 103.344 36.7588 103.243 36.7482 103.243Z" fill="#EB996E"/>
<path d="M41.0525 86.4326H41.1582L41.47 86.3693C41.8597 86.272 42.2378 86.117 42.5955 85.9078C42.8531 85.7563 43.0929 85.565 43.3089 85.3389C43.57 85.0736 43.7823 84.7464 43.9324 84.378C44.0968 83.9529 44.1729 83.4866 44.1543 83.0187C44.1332 82.4841 43.9445 81.9785 43.6259 81.6027L43.552 81.7481C44.472 82.0766 45.4561 82.0411 46.3579 81.6469C46.8508 81.4326 47.3073 81.1135 47.7054 80.7049C47.9109 80.4932 48.089 80.246 48.2338 79.9716C48.3855 79.6789 48.4677 79.3424 48.4716 78.998C48.4667 78.5998 48.3853 78.2084 48.2338 77.8538C48.0942 77.5165 47.9353 77.1913 47.7582 76.8802C47.5921 76.5669 47.3872 76.2856 47.1506 76.0457C47.0347 75.9195 46.8969 75.8256 46.747 75.7709C46.5971 75.7163 46.4389 75.7022 46.2839 75.7296V75.9193C46.8771 75.897 47.4466 75.6364 47.9009 75.1796C48.3174 74.7722 48.6304 74.2335 48.8045 73.6244C48.9601 73.0797 48.9748 72.4914 48.8468 71.9365C48.7147 71.3691 48.4609 70.853 48.1105 70.4393C47.76 70.0257 47.3253 69.7289 46.8493 69.5784C46.6515 69.5147 46.446 69.4912 46.2416 69.5089C46.441 69.5385 46.6387 69.5828 46.8335 69.6417C47.3718 69.8318 47.8491 70.2132 48.2021 70.7353C48.4558 71.1037 48.6364 71.5359 48.7305 71.9997C48.8471 72.525 48.8287 73.0802 48.6777 73.5928C48.5055 74.1685 48.2038 74.676 47.8058 75.0595C47.3753 75.4867 46.8377 75.7293 46.2786 75.7486V75.9446C46.4115 75.9219 46.5469 75.9351 46.6749 75.9832C46.8029 76.0314 46.9203 76.1132 47.0184 76.2227C47.2397 76.454 47.4319 76.7223 47.5891 77.0193C47.9683 77.5981 48.2044 78.2923 48.2708 79.0233C48.2516 79.3292 48.1775 79.6264 48.0535 79.8948C47.9295 80.1632 47.7585 80.3964 47.5522 80.5785C47.0089 81.1332 46.3589 81.5177 45.6607 81.6976C44.9625 81.8774 44.2379 81.847 43.552 81.609L43.2613 81.5015L43.478 81.7544C43.7651 82.1011 43.9345 82.5628 43.9536 83.0504C43.974 83.4672 43.9141 83.8841 43.7785 84.2688C43.6429 84.6536 43.4352 84.9959 43.1715 85.2693C42.9664 85.4944 42.7372 85.6857 42.4898 85.8383C42.1412 86.056 41.7722 86.2237 41.3907 86.3377C41.2767 86.3624 41.1638 86.3941 41.0525 86.4326Z" fill="white"/>
<path d="M50.4228 80.7747C50.5018 80.811 50.587 80.824 50.6711 80.8126C50.9002 80.8025 51.1258 80.7425 51.3369 80.6356C51.6603 80.4769 51.9351 80.2033 52.1243 79.8517C52.2421 79.6279 52.2819 79.3579 52.2353 79.0994C52.2099 78.956 52.1505 78.8243 52.0643 78.7201C51.9781 78.6158 51.8687 78.5434 51.7491 78.5115V78.7138H51.8072C52.1949 78.6901 52.5734 78.5645 52.9159 78.346C53.2584 78.1275 53.5565 77.8213 53.7888 77.4494C53.9288 77.2277 54.0409 76.9828 54.1218 76.7224C54.1547 76.6281 54.1726 76.5273 54.1746 76.4252C54.0392 76.7545 53.8782 77.0678 53.6937 77.3609C53.462 77.6987 53.1743 77.9753 52.8487 78.1734C52.523 78.3714 52.1666 78.4865 51.802 78.5115H51.7438L50.9142 78.5684L51.7333 78.7138C51.821 78.7383 51.901 78.7924 51.9638 78.8697C52.0265 78.947 52.0694 79.0443 52.0873 79.15C52.1272 79.3667 52.095 79.5934 51.9975 79.7822C51.8274 80.0903 51.5872 80.3338 51.3052 80.4839C51.0265 80.6384 50.7283 80.7367 50.4228 80.7747Z" fill="white"/>
<path d="M63.0307 121.45L87.7082 140.371L114.616 145.157L114.262 152.654C114.262 152.654 91.4706 152.515 87.7082 152.654C83.9458 152.793 77.9006 145.163 77.9006 145.163L63.0307 121.45Z" fill="#9B6B63"/>
<path d="M83.8056 140.984L84.8624 138.803C83.3194 137.729 83.0552 134.96 83.2772 132.918C83.3828 132.001 83.5678 131.091 83.758 130.13C84.1723 128.386 84.3839 126.582 84.3868 124.769C84.2125 119.591 81.1423 115.918 78.1726 112.365C77.004 111.02 75.8996 109.598 74.8646 108.104C72.6347 104.735 71.6941 99.6899 73.9135 97.0916C74.7854 96.0864 76.117 95.4416 77.4011 94.8157C79.5148 93.7979 81.8768 92.641 82.5426 89.6445C83.2824 86.3002 81.1687 83.3226 79.1343 81.7611C78.4103 81.2174 77.6494 80.7559 76.9149 80.3134C75.732 79.6856 74.6319 78.8551 73.6492 77.8478C71.1551 74.9967 71.0071 71.4627 71.0071 67.1386C71.0547 61.0316 72.064 58.4144 73.1208 55.6454C74.4049 52.3327 75.7259 48.9063 75.5146 40.043L73.4009 40.1188C73.6017 48.3815 72.4339 51.3971 71.2026 54.5833C70.0876 57.4787 68.9304 60.469 68.8775 67.1133C68.8353 71.7156 69.0572 76.1346 72.1538 79.6748C73.2851 80.8605 74.5587 81.8365 75.932 82.5703C76.6507 83.0065 77.3324 83.4174 77.9718 83.8979C79.5148 85.0737 80.8887 87.1031 80.4659 88.9933C80.0749 90.7761 78.4526 91.56 76.5767 92.4703C75.1024 93.1847 73.5752 93.9244 72.4127 95.2772C69.1946 99.0071 70.4047 105.481 73.1789 109.672C74.2606 111.246 75.418 112.742 76.6454 114.154C79.4514 117.511 82.0988 120.679 82.2414 124.902C82.2298 126.481 82.0379 128.05 81.6708 129.567C81.4752 130.541 81.2744 131.552 81.1423 132.583C80.8623 135.516 81.3537 139.278 83.8056 140.984Z" fill="#E0E0E0"/>
<path d="M84.1987 140.169L84.463 139.619C82.5818 138.31 82.2277 135.231 82.5184 132.785C82.6346 131.824 82.8301 130.85 83.0151 129.908C83.4113 128.249 83.6157 126.532 83.6227 124.806C83.4589 120.002 80.4998 116.461 77.641 113.035C76.4506 111.665 75.3267 110.215 74.2749 108.692C71.86 105.044 70.7291 99.4935 73.3924 96.4085C74.37 95.2768 75.7756 94.5941 77.1337 93.9366C79.1523 92.9567 81.2395 91.9389 81.805 89.3975C82.4391 86.5526 80.5473 83.9354 78.7401 82.5635C78.0479 82.0388 77.3028 81.59 76.5894 81.1538C75.3337 80.4912 74.1672 79.6092 73.1282 78.5365C70.4121 75.4261 70.2219 71.5319 70.2588 67.1571C70.3064 60.8352 71.3527 58.1358 72.4624 55.272C73.7042 52.0541 74.9883 48.7352 74.7822 40.0995H74.2538C74.4546 48.5834 73.1969 51.8392 71.9815 54.9875C70.9247 57.7881 69.7833 60.6772 69.7304 67.1318C69.6881 71.6773 69.8942 75.7106 72.7636 78.998C73.8403 80.1122 75.0473 81.0323 76.3463 81.729C77.0703 82.1445 77.7758 82.6045 78.46 83.1072C80.2514 84.4601 81.8208 86.9003 81.2977 89.2458C80.801 91.4837 78.9251 92.4067 76.9382 93.355C75.5378 94.0377 74.0847 94.7395 73.0278 95.9596C70.1426 99.3102 71.3051 105.221 73.8627 109.09C74.9269 110.642 76.0649 112.12 77.2711 113.515C80.188 117.005 82.9464 120.305 83.0838 124.863C83.0704 126.532 82.8677 128.191 82.4814 129.794C82.2911 130.749 82.0956 131.735 81.9529 132.721C81.6782 135.345 82.0903 138.696 84.1987 140.169Z" fill="#C53F3F"/>
<path d="M66.3726 16.715C66.4994 13.7627 66.3726 11.1771 67.2974 8.40808C68.3542 5.28507 72.4284 3.69196 77.2793 4.55806C78.2928 4.73992 79.2623 5.17788 80.1233 5.8428C80.9843 6.50772 81.7171 7.38436 82.273 8.4144C83.3298 10.2604 83.6733 12.4857 83.8899 14.6541C84.6575 21.922 84.7815 29.2666 84.2598 36.5657C84.0228 37.6702 83.5659 38.6896 82.9282 39.537C82.2518 40.3778 81.084 40.3968 80.0588 40.3525L69.7175 39.8974C68.6607 39.8468 67.4929 39.733 66.8376 38.8416C66.44 38.178 66.2374 37.3754 66.2616 36.5594C65.9595 29.9481 65.9966 23.3209 66.3726 16.715ZM73.4694 8.2121C73.6762 8.46574 73.9419 8.6393 74.232 8.7103C74.5222 8.78131 74.8235 8.7465 75.0969 8.61038C75.3559 8.47907 75.5696 8.24562 75.7022 7.94887C75.8349 7.65212 75.8786 7.30997 75.8261 6.97934C75.7419 6.6533 75.5731 6.36783 75.3441 6.16435C75.1151 5.96088 74.8379 5.84997 74.5526 5.84772C74.3457 5.8162 74.1355 5.84977 73.9428 5.94511C73.75 6.04045 73.5814 6.19428 73.4535 6.3914C73.2959 6.65838 73.2126 6.97798 73.2155 7.30482C73.2183 7.63166 73.3071 7.94911 73.4694 8.2121Z" fill="#F5F5F5"/>
<path d="M73.473 8.21219C73.3562 7.93575 73.2947 7.63058 73.2933 7.32081C73.3171 6.98408 73.4156 6.66107 73.5787 6.38517C73.6984 6.24132 73.8438 6.13186 74.004 6.06506C74.1642 5.99826 74.335 5.97585 74.5035 5.99954H74.5563C74.7283 6.00556 74.8976 6.05223 75.0545 6.13686C75.2114 6.22149 75.3528 6.3424 75.4705 6.49264C75.6309 6.69417 75.7264 6.95723 75.7399 7.23504C75.7534 7.51286 75.6842 7.78742 75.5444 8.00989C75.4334 8.20288 75.2852 8.36107 75.1123 8.4711C74.9394 8.58114 74.7468 8.63978 74.551 8.64208C74.1714 8.6353 73.8026 8.4897 73.4942 8.22484C73.4942 8.22484 73.5417 8.36392 73.7055 8.52196C73.9497 8.7424 74.2452 8.86617 74.551 8.87599C74.7825 8.88932 75.0132 8.83395 75.2224 8.71483C75.4317 8.59571 75.6131 8.41652 75.7505 8.19323C75.9212 7.92398 76.014 7.59553 76.0148 7.25759C76.0072 6.89095 75.8845 6.54114 75.6713 6.2777C75.5284 6.09539 75.3556 5.95023 75.1638 5.85126C74.972 5.75228 74.7652 5.70161 74.5563 5.70241C74.3303 5.66659 74.1004 5.7037 73.8905 5.80988C73.6957 5.89103 73.5237 6.03552 73.3937 6.22712C73.2094 6.55102 73.1134 6.9353 73.119 7.32713C73.1507 7.99093 73.473 8.2438 73.473 8.21219Z" fill="#263238"/>
<path d="M66.3773 16.715C66.3689 16.8011 66.3689 16.8881 66.3773 16.9742C66.3773 17.1701 66.3509 17.423 66.3297 17.7581C66.298 18.4598 66.2505 19.465 66.1871 20.7546C66.0814 23.3593 65.944 27.1334 66.0127 31.799C66.0338 32.9706 66.0726 34.1929 66.1289 35.4657C66.1659 36.0979 66.1712 36.73 66.2558 37.4191C66.3198 38.1303 66.6161 38.7824 67.0801 39.2335C67.5844 39.6353 68.1668 39.8749 68.7711 39.9289C69.3735 40.0111 69.9759 40.0174 70.5836 40.049L74.346 40.226L78.2986 40.4031L80.3436 40.4979C81.0622 40.5644 81.7842 40.4392 82.4573 40.1312C82.7957 39.9411 83.087 39.6492 83.3028 39.2841C83.5254 38.941 83.7251 38.5774 83.8999 38.1967C84.0845 37.8163 84.2351 37.4137 84.3491 36.9956C84.4325 36.564 84.4785 36.1234 84.4865 35.6806C84.6027 33.9484 84.6802 32.193 84.719 30.4145C84.797 26.9458 84.7247 23.4747 84.5023 20.015C84.3967 18.3397 84.2593 16.696 84.106 15.0902C83.9965 13.5046 83.7286 11.9404 83.3081 10.431C82.8734 8.98968 82.1621 7.69048 81.2314 6.63789C80.3302 5.66502 79.2405 4.97624 78.0608 4.63385C77.7808 4.54535 77.5007 4.46317 77.2206 4.40627L76.3804 4.28615L75.5561 4.21661H74.7476C73.718 4.21428 72.6915 4.35214 71.688 4.62753C70.7704 4.87344 69.8935 5.30077 69.0934 5.89191C68.3736 6.42057 67.7845 7.16902 67.3866 8.06032C66.849 9.52505 66.5427 11.0961 66.483 12.6942C66.4143 13.9966 66.4143 15.0081 66.4037 15.6971C66.4037 16.0259 66.4037 16.2851 66.4037 16.4747C66.3983 16.5652 66.3983 16.6561 66.4037 16.7466C66.409 16.6582 66.409 16.5695 66.4037 16.4811C66.4037 16.2851 66.4302 16.0322 66.446 15.6971C66.4777 15.0144 66.4935 13.9966 66.5834 12.7006C66.6583 11.1281 66.9736 9.58535 67.5134 8.14882C67.9019 7.28914 68.477 6.57064 69.178 6.06892C69.9655 5.50118 70.8261 5.09318 71.725 4.86144C72.7139 4.59993 73.7243 4.47269 74.737 4.48213H75.5349L76.3487 4.55799L77.1731 4.67811C77.4494 4.73591 77.7228 4.81189 77.9921 4.90569C79.1289 5.24206 80.1771 5.91365 81.0412 6.85916C81.928 7.88348 82.6028 9.14113 83.0122 10.5322C83.4214 12.022 83.6804 13.5649 83.7837 15.1282C83.9369 16.7276 84.0743 18.3713 84.1747 20.0403C84.3926 23.4876 84.4631 26.9459 84.3861 30.4018C84.3491 32.1783 84.2698 33.9294 84.1589 35.6553C84.1495 36.0806 84.107 36.5039 84.032 36.9197C83.9222 37.3155 83.7788 37.6968 83.604 38.0576C83.4374 38.423 83.2465 38.7718 83.0333 39.1007C82.8438 39.4287 82.5848 39.6905 82.2829 39.8594C81.6496 40.1459 80.9709 40.2604 80.2961 40.1944L78.2563 40.1122L74.3037 39.9416L70.5413 39.7835C69.9283 39.7835 69.3259 39.7456 68.7499 39.6697C68.1852 39.6237 67.6396 39.4061 67.1647 39.0375C66.7457 38.6286 66.4796 38.0374 66.4249 37.3938C66.3403 36.7616 66.3297 36.1295 66.2875 35.4973C66.2241 34.2329 66.1818 33.0128 66.1554 31.8495C66.0602 27.1903 66.1554 23.4162 66.2399 20.8115C66.2822 19.5472 66.3139 18.5104 66.335 17.8087C66.335 17.4799 66.335 17.2207 66.335 17.0311C66.3592 16.928 66.3734 16.8219 66.3773 16.715Z" fill="#263238"/>
<path d="M69.2328 37.4067L80.1026 37.7354C81.0802 37.767 81.9203 37.2423 81.9785 36.5595L82.3114 26.0462H67.5154V36.1612C67.5049 36.825 68.2658 37.3814 69.2328 37.4067Z" fill="#C53F3F"/>
<path d="M79.8843 8.07936C80.4362 9.10452 80.8815 10.2063 81.2106 11.3604C81.5281 12.6284 81.7405 13.9306 81.8447 15.2484C81.9715 16.734 82.0244 18.4093 82.0878 20.1225C82.1988 23.5869 82.1935 26.7289 82.1618 28.9732C82.1618 30.0669 82.1301 30.9709 82.1195 31.6663C82.0945 31.9944 82.0945 32.3245 82.1195 32.6525C82.1775 32.3303 82.2093 32.0022 82.2146 31.6726C82.2569 31.0404 82.3045 30.1174 82.3467 28.9795C82.426 26.7036 82.463 23.5553 82.3467 20.0846C82.2833 18.3461 82.2252 16.6961 82.0772 15.1915C81.9655 13.8563 81.7316 12.5397 81.3797 11.2656C81.1355 10.4064 80.7998 9.58835 80.381 8.83167C80.2704 8.6243 80.1486 8.42579 80.0164 8.23741C79.9424 8.13626 79.8896 8.07304 79.8843 8.07936Z" fill="#263238"/>
<path d="M67.8695 24.6238C67.9151 23.9928 67.9151 23.3582 67.8695 22.7272C67.8378 21.583 67.8008 19.9962 67.8061 18.2513C67.8114 16.5065 67.8642 14.9134 67.9065 13.7691C67.9602 13.139 67.969 12.5045 67.9329 11.8726C67.8098 12.478 67.7355 13.0961 67.711 13.7185C67.6159 14.8691 67.5366 16.4559 67.5314 18.2134C67.5261 19.9709 67.5948 21.564 67.6793 22.7146C67.6885 23.3571 67.7522 23.9967 67.8695 24.6238Z" fill="#263238"/>
<path d="M69.5852 37.4445C70.1961 37.5715 70.8146 37.6391 71.4347 37.6468C72.5814 37.7353 74.1614 37.8238 75.9105 37.906L78.3782 38.0072C79.058 38.0657 79.7412 38.0082 80.4074 37.8365C80.8632 37.7043 81.2822 37.4319 81.6228 37.0462C81.7556 36.913 81.8545 36.7377 81.9081 36.5405C81.9081 36.5405 81.7919 36.7112 81.5488 36.9514C81.2009 37.2698 80.7955 37.4863 80.3651 37.5836C79.7126 37.7183 79.0482 37.7502 78.3888 37.6784L75.9211 37.552C74.172 37.4698 72.592 37.4129 71.44 37.3939C70.8215 37.3566 70.2016 37.3735 69.5852 37.4445Z" fill="#263238"/>
<path d="M76.6733 39.1136C76.7525 39.1136 76.8001 38.8165 76.7843 38.4814C76.7684 38.1463 76.6997 37.8492 76.6205 37.8492C76.5412 37.8492 76.4989 38.14 76.5095 38.4814C76.52 38.8228 76.6152 39.1136 76.6733 39.1136Z" fill="#263238"/>
<path d="M76.1411 38.7596C76.2204 38.7596 76.2785 38.5004 76.2785 38.178C76.2785 37.8555 76.2204 37.5963 76.1411 37.5963C76.0618 37.5963 76.0037 37.8555 76.0037 38.178C76.0037 38.5004 76.0883 38.7596 76.1411 38.7596Z" fill="#263238"/>
<path d="M70.1061 38.9364C70.1801 38.9364 70.2805 38.6456 70.3228 38.26C70.365 37.8744 70.3228 37.5583 70.2647 37.5456C70.2065 37.533 70.0955 37.8364 70.048 38.2157C70.0004 38.595 70.0321 38.9238 70.1061 38.9364Z" fill="#263238"/>
<path d="M69.5285 39.0501C69.6025 39.0501 69.7241 38.7467 69.7928 38.3295C69.8614 37.9122 69.8667 37.5645 69.7928 37.5455C69.7188 37.5266 69.5972 37.849 69.5285 38.2662C69.4598 38.6835 69.4546 39.0312 69.5285 39.0501Z" fill="#263238"/>
<path d="M69.8881 27.9109H79.1461V31.6093H69.8881V27.9109Z" fill="white"/>
<path d="M71.4242 29.719C73.4262 29.9381 75.4409 29.9381 77.4429 29.719C75.4409 29.4998 73.4262 29.4998 71.4242 29.719Z" fill="#263238"/>
<path d="M69.3764 23.2139C69.8815 23.6952 70.4109 24.1385 70.9617 24.5415C71.9393 25.3381 73.2868 26.4381 74.7452 27.7025C76.2037 28.9669 77.4931 30.1933 78.4178 31.0784C78.9016 31.5823 79.4117 32.0489 79.945 32.4755C79.8424 32.3095 79.7235 32.1588 79.5909 32.0266C79.3479 31.7485 78.9938 31.3945 78.5341 30.9013C77.6358 29.9657 76.3622 28.7266 74.8985 27.437C73.4348 26.1473 72.0661 25.0663 71.0568 24.3203C70.5284 23.9473 70.1374 23.6502 69.8467 23.4605C69.7006 23.3519 69.5422 23.2688 69.3764 23.2139Z" fill="white"/>
<path d="M73.404 23.8906C74.0965 24.6434 74.8466 25.3165 75.6446 25.901C76.3926 26.5735 77.1944 27.1558 78.0383 27.6395C77.3474 26.8845 76.5971 26.2112 75.7978 25.6291C75.0497 24.9566 74.2479 24.3743 73.404 23.8906Z" fill="white"/>
<path d="M121.845 146.737C121.845 146.737 119.583 146.004 118.341 145.536C117.559 145.239 115.007 144.468 113.945 144.999C112.883 145.53 111.789 147.496 111.789 147.496L112.64 152.338L118.415 159.191C118.415 159.191 119.557 160.083 120.397 159.488C121.237 158.894 121.686 159.963 122.336 159.014C122.78 158.382 124.392 155.367 125.343 153.59C125.567 153.17 125.711 152.697 125.764 152.203C125.818 151.709 125.781 151.207 125.655 150.733L125.01 148.311C124.801 147.5 124.431 146.762 123.931 146.16C123.432 145.557 122.817 145.109 122.141 144.853C121.843 144.692 121.505 144.672 121.195 144.796C120.529 145.296 121.845 146.737 121.845 146.737Z" fill="#9B6B63"/>
<path d="M117.188 148.937C117.793 148.494 118.511 148.324 119.212 148.457C119.863 148.544 120.469 148.897 120.928 149.455C121.388 150.013 121.674 150.743 121.738 151.523C121.738 151.599 121.738 151.675 121.738 151.75C121.74 152.676 121.466 153.573 120.966 154.279C120.589 154.842 120.043 155.207 119.444 155.297C118.87 155.315 118.305 155.121 117.827 154.741C117.217 154.331 116.714 153.727 116.374 152.996C116.074 152.317 115.992 151.53 116.141 150.783C116.291 150.036 116.663 149.38 117.188 148.937Z" fill="#E0E0E0"/>
<path d="M121.336 153.685C121.448 153.397 121.535 153.096 121.595 152.787C121.689 152.426 121.75 152.052 121.775 151.675C121.813 151.161 121.721 150.645 121.51 150.195C121.252 149.654 120.89 149.195 120.453 148.855C119.963 148.478 119.429 148.191 118.868 148.002C118.735 147.966 118.611 147.896 118.503 147.797C118.395 147.697 118.307 147.571 118.245 147.426C118.212 147.27 118.218 147.105 118.263 146.954C118.308 146.802 118.39 146.669 118.498 146.573C118.749 146.356 119.042 146.221 119.349 146.181C119.679 146.18 120.008 146.234 120.327 146.339C120.979 146.446 121.588 146.79 122.07 147.325C122.499 147.865 122.856 148.482 123.127 149.152C123.366 149.757 123.543 150.394 123.656 151.049C123.723 151.625 123.696 152.211 123.576 152.775C123.438 153.616 123.213 154.434 122.905 155.209C122.788 155.489 122.648 155.756 122.488 156.005C122.488 156.005 122.551 155.961 122.652 155.847C122.786 155.67 122.903 155.474 123 155.265C123.351 154.5 123.609 153.678 123.767 152.825C123.91 152.232 123.948 151.61 123.878 150.998C123.773 150.312 123.595 149.645 123.349 149.013C123.083 148.318 122.726 147.678 122.292 147.117C122.175 146.958 122.042 146.818 121.896 146.699C121.748 146.582 121.59 146.482 121.426 146.402C121.097 146.249 120.76 146.125 120.416 146.029C120.072 145.916 119.716 145.863 119.36 145.871C118.998 145.918 118.653 146.08 118.361 146.339C118.21 146.477 118.099 146.666 118.04 146.882C117.982 147.097 117.979 147.329 118.033 147.546C118.109 147.734 118.219 147.899 118.356 148.029C118.492 148.16 118.651 148.252 118.821 148.299C119.366 148.473 119.888 148.741 120.369 149.095C120.778 149.406 121.122 149.826 121.373 150.322C121.577 150.732 121.674 151.205 121.653 151.681C121.642 152.048 121.599 152.412 121.526 152.768C121.44 153.066 121.376 153.373 121.336 153.685Z" fill="#484848"/>
<path d="M118.476 156.214C118.896 156.008 119.307 155.776 119.707 155.518C120.144 155.364 120.572 155.18 120.991 154.968C120.518 154.859 120.028 154.946 119.602 155.215C119.142 155.385 118.745 155.737 118.476 156.214Z" fill="#EB996E"/>
<path d="M115.981 152.907C116.34 153.549 116.793 154.108 117.317 154.557C118.121 155.367 118.633 156.17 118.697 156.119C118.441 155.398 118.026 154.773 117.497 154.311C117.036 153.779 116.527 153.308 115.981 152.907Z" fill="#EB996E"/>
<path d="M114.944 147.888C115.308 148.673 115.602 149.501 115.821 150.36C115.949 151.244 115.995 152.143 115.959 153.04C116.222 152.156 116.266 151.199 116.086 150.285C115.906 149.371 115.509 148.539 114.944 147.888Z" fill="#484848"/>
<path d="M89.5602 140.7C89.6871 140.7 89.7822 143.722 89.8245 145.587C89.8294 145.777 89.8023 145.967 89.7448 146.145C89.6873 146.322 89.6005 146.484 89.4896 146.621C89.3787 146.758 89.2459 146.867 89.0992 146.941C88.9525 147.015 88.7948 147.053 88.6355 147.053H85.5442L82.902 144.455C82.6895 144.247 82.5439 143.958 82.4899 143.636C82.4359 143.315 82.477 142.981 82.6061 142.691L84.667 138.013L87.7107 140.346L89.5602 140.7Z" fill="#F5F5F5"/>
<path d="M89.5587 140.7C89.4033 140.641 89.2443 140.597 89.0831 140.567L87.7198 140.283H87.7462L84.7236 137.912L84.6232 137.83L84.5598 137.962C84.1212 138.955 83.6351 140.036 83.1225 141.193C82.9904 141.477 82.8635 141.775 82.7314 142.072L82.5307 142.521C82.454 142.685 82.3971 142.862 82.3616 143.045C82.3022 143.433 82.3642 143.834 82.5359 144.171C82.6187 144.34 82.7282 144.488 82.8583 144.607L83.207 144.948L85.4581 147.161L85.4951 147.199H88.3275C88.4755 147.199 88.6023 147.199 88.7661 147.199C88.9183 147.177 89.0664 147.126 89.2047 147.047C89.4679 146.889 89.6799 146.631 89.8071 146.314C89.9145 146.02 89.9529 145.696 89.9181 145.378C89.9181 144.803 89.8758 144.272 89.8599 143.785C89.7701 141.85 89.6591 140.675 89.5587 140.712C89.604 140.979 89.6253 141.25 89.6221 141.522C89.6221 142.053 89.6644 142.824 89.6856 143.791C89.6856 144.278 89.6856 144.815 89.7173 145.384C89.7418 145.663 89.7053 145.944 89.6116 146.2C89.497 146.466 89.3108 146.677 89.0831 146.8C88.8367 146.918 88.5696 146.959 88.3064 146.921H85.5216L85.6061 146.952L83.3603 144.733C83.128 144.539 82.9214 144.305 82.7473 144.038C82.611 143.771 82.5621 143.454 82.6099 143.146C82.6891 142.835 82.8028 142.537 82.9481 142.261C83.0749 141.958 83.207 141.667 83.3339 141.376C83.8623 140.213 84.3115 139.126 84.7448 138.127L84.5809 138.177L87.6458 140.472L89.0197 140.675C89.1974 140.714 89.379 140.722 89.5587 140.7Z" fill="#263238"/>
<path d="M61.785 116.278L78.758 129.365L75.9943 135.225L61.785 116.278Z" fill="#FDD32A"/>
<path d="M42.8523 118.156C42.8523 118.156 46.8471 118.788 50.6994 119.338C53.0984 119.692 55.0642 118.188 56.1369 115.589H56.4909L61.8016 116.278C64.7555 119.022 76.772 131.938 77.8077 135.446C78.9597 139.36 78.7747 147.888 78.7747 147.888L87.9799 162.036C87.9799 162.036 90.4899 164.35 86.923 170.571C83.3562 176.791 72.4019 186.691 72.4019 186.691C72.4019 186.691 64.6763 190.143 62.6735 187.956C60.6708 185.768 47.2593 156.416 47.2593 156.416C47.2593 156.416 41.0873 143.014 39.7134 139.189C36.881 131.261 37.568 122.872 42.8523 118.156Z" fill="#FDD32A"/>
<path d="M64.0494 120.368C64.2229 120.598 64.412 120.809 64.6148 121.001L66.2001 122.581C67.5634 123.902 69.4605 125.742 71.5636 127.702C72.6205 128.701 73.6351 129.598 74.507 130.528C75.2824 131.316 75.9905 132.195 76.6207 133.151C77.1873 134.05 77.6561 135.032 78.0157 136.072C78.0157 136.072 78.0157 135.99 77.9787 135.838C77.929 135.623 77.8691 135.412 77.799 135.206C77.5408 134.427 77.196 133.693 76.7739 133.025C76.1516 132.034 75.443 131.125 74.6602 130.313C73.7883 129.383 72.7737 128.454 71.7274 127.455C69.6137 125.47 67.7061 123.662 66.3111 122.398L64.6518 120.9C64.4656 120.7 64.2638 120.522 64.0494 120.368Z" fill="#263238"/>
<path d="M57.4444 136.287C57.8513 136.919 67.939 157.01 67.939 157.01L97.5309 164.173L95.4965 170.849C95.4965 170.849 65.5347 172.018 62.9559 170.558C60.3772 169.098 58.7867 166.133 54.3532 157.718C49.7506 148.981 47.4836 145.157 47.4836 145.157L57.4444 136.287Z" fill="#9B6B63"/>
<path d="M66.7304 154.602C64.7329 156.384 59.6283 160.683 57.4459 162.555C56.8065 163.105 55.6387 162.232 55.2107 161.436L48.9911 149.62C48.6001 148.899 48.9594 147.787 49.5195 147.262L58.7512 138.778C59.4223 138.146 60.8648 139.41 61.2665 140.283L67.1584 152.237C67.3148 152.633 67.3576 153.079 67.2802 153.507C67.2028 153.934 67.0095 154.319 66.7304 154.602Z" fill="#263238"/>
<path d="M53.2697 143.703C53.3506 143.912 53.4517 144.109 53.5709 144.291C53.8246 144.708 54.1258 145.22 54.4798 145.827C55.2513 147.091 56.3134 148.906 57.4654 150.884C58.6174 152.863 59.6425 154.678 60.3876 156.012L61.2701 157.611C61.3715 157.809 61.4902 157.993 61.6242 158.161C61.5586 157.938 61.4698 157.725 61.3599 157.529C61.175 157.143 60.9002 156.593 60.5461 155.917C59.8486 154.564 58.8499 152.724 57.6927 150.733C56.5354 148.741 55.4468 146.971 54.6383 145.713C54.2315 145.081 53.8986 144.582 53.6608 144.234C53.423 143.886 53.2856 143.703 53.2697 143.703Z" fill="#455A64"/>
<path d="M59.6911 137.128L47.0775 147.053C47.0775 147.053 40.208 135.674 39.8698 130.446C39.5316 125.217 40.6466 122.322 44.6256 121.19C48.6047 120.059 52.8691 125.344 54.4491 127.929C56.2722 130.92 59.6911 137.128 59.6911 137.128Z" fill="#FDD32A"/>
<path d="M59.6911 137.128C59.67 137.074 59.6434 137.023 59.6118 136.976C59.5484 136.856 59.4639 136.704 59.3635 136.508L58.3647 134.713L54.634 128.056C53.7314 126.554 52.6772 125.19 51.4952 123.997C50.8422 123.32 50.1341 122.723 49.3815 122.215C48.5878 121.654 47.7244 121.249 46.8239 121.013L46.1105 120.9H45.3813C45.1382 120.9 44.8951 120.982 44.6521 121.026C44.409 121.07 44.1765 121.171 43.9387 121.247C42.9553 121.568 42.0497 122.164 41.2966 122.986C40.5478 123.889 40.0481 125.045 39.8645 126.299C39.675 127.564 39.6252 128.855 39.7166 130.136C39.8705 131.88 40.2877 133.577 40.9478 135.143C41.5396 136.692 42.2002 138.152 42.8713 139.568C44.2346 142.356 45.6349 144.897 46.9824 147.154L47.0511 147.262L47.1462 147.192L56.2933 139.91L58.8245 137.874L59.4797 137.337C59.5551 137.282 59.6258 137.218 59.6911 137.147L59.4427 137.324L58.7505 137.849L56.1665 139.84L47.0247 146.952L47.1832 146.99C45.8516 144.733 44.4618 142.192 43.1143 139.404C42.4485 138.013 41.7933 136.553 41.2067 135.016C40.5618 133.486 40.1537 131.828 40.0019 130.123C39.9145 128.874 39.9607 127.616 40.1393 126.381C40.3112 125.186 40.7852 124.083 41.4974 123.22C42.2158 122.427 43.0843 121.854 44.0285 121.551C44.261 121.475 44.4882 121.386 44.7208 121.33C44.9533 121.273 45.1805 121.235 45.413 121.203H46.1052L46.7869 121.311C47.6601 121.536 48.4982 121.924 49.2705 122.461C50.0084 122.964 50.7054 123.548 51.3525 124.206C52.525 125.377 53.5737 126.714 54.4755 128.189L58.259 134.713C58.7082 135.472 59.057 136.072 59.3159 136.502L59.596 136.97C59.6241 137.025 59.6559 137.078 59.6911 137.128Z" fill="#263238"/>
<path d="M97.5378 164.173L100.021 165.305C100.36 165.646 108.413 174.964 108.413 174.964L109.623 181.571C109.424 181.74 109.182 181.825 108.938 181.811C108.694 181.797 108.461 181.686 108.275 181.495C107.758 181.037 107.407 180.358 107.298 179.598L106.542 176.69L104.429 173.985L106.167 178.138L107.013 183.196C106.9 183.401 106.741 183.563 106.553 183.662C106.366 183.76 106.158 183.792 105.956 183.752C105.353 183.569 105.168 182.405 105.168 182.405C105.168 182.405 104.592 183.347 103.985 183.038C103.377 182.728 101.39 179.099 101.39 179.099C101.39 179.099 100.233 176.033 100.243 176.223C100.254 176.412 100.962 179.131 100.962 179.131C100.962 179.131 102.547 182.165 102.225 182.614C102.13 182.761 102.01 182.882 101.872 182.967C101.734 183.052 101.582 183.1 101.427 183.107C101.269 183.107 99.2076 179.516 98.8219 178.935C98.4361 178.353 95.4664 172.259 95.4664 172.259L94.5099 168.636L97.5378 164.173Z" fill="#9B6B63"/>
<path d="M101.975 175.116C102.087 175.51 102.255 175.878 102.472 176.203C102.932 177.019 103.355 177.863 103.74 178.732C104.142 179.763 104.4 180.768 104.659 181.47C104.767 181.865 104.937 182.233 105.161 182.551C105.077 182.154 104.969 181.766 104.839 181.387C104.601 180.435 104.317 179.5 103.988 178.587C103.601 177.696 103.147 176.85 102.63 176.058C102.437 175.72 102.217 175.405 101.975 175.116Z" fill="#484848"/>
<path d="M120.473 204.804L148.168 223.94C148.673 224.289 149.231 224.516 149.81 224.607C150.389 224.698 150.977 224.652 151.541 224.471C152.105 224.29 152.633 223.978 153.096 223.553C153.559 223.128 153.948 222.598 154.24 221.993C154.532 221.388 154.722 220.721 154.799 220.028C154.875 219.336 154.837 218.632 154.686 217.957C154.534 217.282 154.273 216.65 153.918 216.096C153.562 215.542 153.118 215.077 152.612 214.729L124.917 195.593C123.896 194.889 122.683 194.699 121.545 195.064C120.406 195.429 119.436 196.32 118.846 197.54C118.553 198.144 118.363 198.812 118.286 199.505C118.21 200.197 118.248 200.901 118.399 201.576C118.551 202.251 118.812 202.883 119.167 203.437C119.523 203.991 119.967 204.455 120.473 204.804Z" fill="#455A64"/>
<path d="M120.473 204.804C120.473 204.804 120.193 204.608 119.739 204.127C119.083 203.403 118.622 202.461 118.417 201.421C118.279 200.676 118.279 199.903 118.417 199.158C118.581 198.204 118.965 197.323 119.525 196.616C120.086 195.909 120.8 195.403 121.588 195.156C122.533 194.868 123.532 194.966 124.426 195.434L152.543 214.868C153.203 215.326 153.751 215.985 154.129 216.778C154.508 217.57 154.704 218.469 154.699 219.382C154.69 220.268 154.491 221.137 154.121 221.906C153.751 222.674 153.222 223.316 152.586 223.769C151.97 224.204 151.274 224.448 150.561 224.482C149.847 224.515 149.137 224.335 148.496 223.959C147.248 223.143 146.028 222.271 144.834 221.462L132.151 212.756L123.623 206.921L121.292 205.347L120.684 204.943L120.473 204.816L120.669 204.974L121.266 205.404L123.57 207.035L132.077 212.965L144.707 221.734C145.906 222.555 147.101 223.415 148.379 224.262C149.061 224.661 149.814 224.852 150.572 224.817C151.331 224.781 152.07 224.521 152.723 224.06C153.396 223.58 153.956 222.903 154.351 222.094C154.745 221.269 154.958 220.338 154.969 219.388C154.975 218.418 154.767 217.463 154.365 216.62C153.963 215.778 153.382 215.077 152.681 214.59L137.192 203.906L130.423 199.247L127.358 197.141L125.911 196.149C125.435 195.833 124.991 195.517 124.505 195.226C123.886 194.905 123.215 194.753 122.541 194.783C121.867 194.812 121.207 195.022 120.609 195.397C120.011 195.772 119.492 196.302 119.088 196.948C118.684 197.595 118.406 198.341 118.275 199.133C118.122 200.051 118.173 201.002 118.423 201.89C118.674 202.777 119.114 203.571 119.702 204.19C119.877 204.375 120.066 204.54 120.267 204.683C120.333 204.729 120.402 204.769 120.473 204.804Z" fill="#263238"/>
<path d="M32.6382 92.7232C35.666 96.5164 37.0611 101.751 37.8432 106.91C38.1444 108.907 38.3716 111.006 37.8432 112.934C37.3147 114.862 35.8299 116.557 34.1442 116.456C32.4585 116.354 31.1057 114.502 30.107 112.776C25.832 105.361 23.1053 98.1727 20.812 89.5939L20.7116 89.36C24.6113 87.0146 29.6367 88.9301 32.6382 92.7232Z" fill="#455A64"/>
<path d="M14.8458 79.5735C15.1746 79.3834 15.5318 79.2733 15.8965 79.2497C16.2612 79.226 16.6261 79.2892 16.9702 79.4357C17.3143 79.5821 17.6307 79.8088 17.901 80.1027C18.1713 80.3966 18.3901 80.7518 18.5447 81.1476L60.9827 190.301C61.4129 191.371 62.0883 192.273 62.9302 192.902C63.7721 193.531 64.746 193.861 65.7385 193.854C76.5343 193.797 110.38 193.614 117.16 193.5C117.747 193.492 118.326 193.659 118.845 193.987C119.909 194.795 120.684 196.048 121.017 197.502C121.345 198.945 121.523 200.432 121.546 201.927C121.704 205.347 121.863 208.913 122.021 212.447C122.057 213.286 121.948 214.125 121.703 214.913C121.458 215.701 121.081 216.42 120.595 217.027C120.109 217.635 119.525 218.117 118.878 218.444C118.231 218.772 117.535 218.938 116.832 218.933H99.8537C101.222 218.933 67.9421 219.685 54.0497 219.995C52.292 220.035 50.5646 219.443 49.0912 218.296C47.6178 217.149 46.466 215.499 45.7851 213.559L0.314029 91.6736C0.0246311 90.8939 -0.00169659 90.0106 0.240556 89.2083C0.482809 88.406 0.97491 87.7467 1.61397 87.3684L14.8458 79.5735Z" fill="#455A64"/>
<path d="M14.8413 79.5736L13.9799 80.0667L11.4593 81.5333L1.75211 87.223C1.18276 87.5116 0.705191 88.0099 0.388793 88.6455C0.0576457 89.3199 -0.0675195 90.1109 0.0347265 90.8834C0.0946878 91.2788 0.201466 91.662 0.351805 92.0213L0.76396 93.1277C1.04403 93.8737 1.32408 94.6386 1.61471 95.4225L5.39827 105.594L14.6616 130.427C21.5311 148.849 29.7112 170.824 38.8318 195.302L45.8546 214.122C46.509 215.748 47.4975 217.149 48.7275 218.194C49.9576 219.239 51.389 219.893 52.888 220.096C53.6421 220.169 54.3994 220.182 55.1549 220.134L57.4219 220.084L61.9875 219.983L80.6832 219.565L90.2477 219.344L95.0776 219.23L97.5083 219.173L98.7237 219.142H99.3367H99.8651C99.918 219.211 99.8968 218.51 99.8651 218.807L99.8228 219.135H116.828C117.691 219.127 118.54 218.874 119.306 218.396C120.066 217.914 120.717 217.218 121.201 216.368C121.686 215.517 121.989 214.538 122.085 213.515C122.126 212.516 122.109 211.515 122.033 210.519C121.99 209.526 121.943 208.54 121.9 207.554C121.812 205.581 121.723 203.617 121.631 201.662C121.541 199.721 121.404 197.673 120.574 195.928C120.165 195.048 119.559 194.321 118.825 193.829C118.448 193.601 118.04 193.456 117.62 193.399C117.197 193.342 116.801 193.399 116.394 193.399L111.58 193.437L74.7278 193.702L66.0299 193.766C65.3339 193.812 64.6373 193.689 63.9818 193.406C63.3263 193.122 62.7253 192.683 62.2147 192.116C61.1579 191.003 60.7721 189.321 60.1433 187.842L53.3107 170.255L41.0459 138.74C33.5423 119.452 27.4706 103.875 23.2961 93.0897C22.2392 90.4029 21.3145 88.0322 20.5007 85.9334L19.3805 83.0696L18.8943 81.8052C18.7567 81.4251 18.5997 81.0557 18.424 80.6989C18.1003 80.1175 17.6301 79.6746 17.0818 79.4345C16.6898 79.2551 16.2681 79.188 15.8505 79.2385C15.5967 79.2645 15.3475 79.3348 15.1108 79.4471L14.8782 79.5736C15.186 79.4083 15.5146 79.3058 15.8505 79.2701C16.2654 79.2279 16.6828 79.2992 17.0712 79.4787C17.6074 79.7239 18.0645 80.1667 18.3764 80.7431C18.5496 81.0995 18.7032 81.4691 18.8362 81.8494L19.3223 83.1138L20.4267 85.9903C21.2299 88.0639 22.16 90.4598 23.201 93.1593L40.8927 138.829C44.6339 148.463 48.7293 159.021 53.1258 170.356C55.324 176.029 57.5962 181.885 59.9425 187.924C60.2331 188.677 60.529 189.435 60.8197 190.194C61.1149 190.98 61.5369 191.689 62.0614 192.28C62.594 192.875 63.2212 193.336 63.9058 193.634C64.5903 193.933 65.3181 194.064 66.0458 194.019L74.7437 193.962L111.601 193.715H116.415C116.817 193.715 117.229 193.683 117.61 193.715C117.996 193.772 118.371 193.907 118.719 194.113C119.406 194.577 119.971 195.26 120.352 196.086C121.161 197.748 121.303 199.734 121.409 201.674C121.515 203.615 121.583 205.594 121.673 207.566C121.716 208.553 121.763 209.539 121.805 210.525C121.877 211.505 121.897 212.488 121.863 213.471C121.77 214.441 121.481 215.369 121.021 216.176C120.56 216.982 119.943 217.642 119.221 218.099C118.496 218.554 117.689 218.795 116.87 218.8H99.8915V219.129C99.9338 219.395 99.9285 218.705 99.8915 218.807H99.3631H98.7554L97.54 218.838L95.1093 218.895L90.2794 219.009L80.7149 219.23L62.0456 219.66L57.48 219.761L55.2131 219.812C54.4681 219.859 53.7213 219.847 52.9778 219.774C51.514 219.585 50.1147 218.953 48.9125 217.936C47.7103 216.919 46.745 215.552 46.1082 213.964C43.7092 207.55 41.3665 201.282 39.0802 195.163L14.8413 130.313C11.4012 121.115 8.29404 112.795 5.56208 105.5C4.19874 101.854 2.93051 98.4676 1.7574 95.3403L0.901353 93.0518C0.76396 92.6788 0.62659 92.3058 0.489198 91.9455C0.341526 91.5987 0.236498 91.2282 0.177408 90.8455C0.0763005 90.1024 0.193976 89.3405 0.510321 88.6897C0.815294 88.0761 1.27637 87.5954 1.8261 87.3179L11.5069 81.5902L14.0169 80.092C14.5718 79.7569 14.8413 79.5736 14.8413 79.5736Z" fill="#263238"/>
<path d="M8.45844 83.3414C8.45844 83.3414 8.51657 83.5121 8.63811 83.8472C8.75965 84.1823 8.95517 84.688 9.19825 85.3328C9.69496 86.6351 10.4295 88.5507 11.3648 91.0225L19.3863 111.885C26.1871 129.504 35.5773 153.837 45.945 180.711L51.0179 193.835L55.2453 206.593L55.2771 206.694H55.3669L102.698 206.637L116.464 206.586H120.163H121.114H121.436C121.436 206.586 121.325 206.586 121.114 206.586H120.163H116.464L102.698 206.542L55.3669 206.485L55.4937 206.586C54.1251 202.465 52.7036 198.197 51.2663 193.816L46.1934 180.686L19.5607 111.897C16.1418 103.104 13.3728 95.9915 11.4599 91.0352L9.24578 85.3771L8.65924 83.9104C8.53241 83.5058 8.45844 83.3414 8.45844 83.3414Z" fill="#263238"/>
<g opacity="0.3">
<path opacity="0.3" d="M56.3337 178.328C56.3337 178.328 45.3953 176.545 43.7677 178.827C42.1402 181.109 37.7067 191.888 37.7067 191.888L35.0646 186.255L38.3091 173.985L46.4522 172.91H54.2306L56.3337 178.328Z" fill="black"/>
</g>
<g opacity="0.3">
<path opacity="0.3" d="M94.5092 193.551L99.8569 218.94H102.515L97.553 193.551H94.5092Z" fill="black"/>
</g>
<path d="M18.1442 80.6735C18.0755 80.7115 20.5486 87.1851 23.661 95.1317C26.7734 103.078 29.3627 109.489 29.4314 109.451C29.5001 109.413 27.0007 102.939 23.9146 95.0242C20.8286 87.1092 18.2129 80.6356 18.1442 80.6735Z" fill="#263238"/>
<path d="M34.8194 178.612C36.0982 174.01 39.8448 170.874 44.1409 170.805C46.4501 170.773 49.2349 170.716 52.1888 170.659C63.6662 170.438 77.9496 170.16 84.5285 170.59C90.8697 171.007 94.6426 174.383 96.6823 177.145C98.0122 178.901 99.009 180.98 99.6046 183.24V183.341C104.36 208.869 113.925 258.647 114.258 260.19L109.502 260.266C109.132 258.635 96.8515 192.343 95.3771 184.403C95.1922 183.676 93.0362 176.008 84.2802 175.432C77.8704 175.009 63.6715 175.287 52.2681 175.508C49.3142 175.571 46.5241 175.622 44.2043 175.66C43.0559 175.649 41.9332 176.067 40.9921 176.854C40.0509 177.641 39.3378 178.76 38.9517 180.054L16.7578 260.177H12.002L34.8194 178.612Z" fill="#455A64"/>
<path d="M34.8206 178.612C34.8206 178.612 34.6727 179.092 34.4032 180.047C34.1337 181.002 33.7321 182.418 33.2037 184.27L28.6328 200.505L11.8922 260.139L11.8499 260.303H16.8541V260.215C22.4132 240.174 28.8071 217.093 35.7824 191.939L38.4245 182.399L39.1009 179.99C39.3271 179.208 39.6871 178.491 40.1578 177.885C41.1425 176.665 42.4782 175.94 43.8937 175.856L61.4692 175.527C67.4246 175.438 73.4698 175.344 79.589 175.451C81.1214 175.483 82.6538 175.521 84.1915 175.622C85.721 175.721 87.2304 176.085 88.6726 176.703C90.1322 177.319 91.4658 178.298 92.5853 179.576C93.7049 180.855 94.5848 182.403 95.167 184.118C95.2042 184.228 95.2359 184.34 95.2621 184.453C100.219 211.075 104.99 236.691 109.392 260.316V260.436H109.498L114.254 260.36H114.412L114.375 260.171L101.989 195.314C101.524 192.878 101.064 190.478 100.61 188.114C100.381 186.929 100.157 185.756 99.9387 184.592C99.8171 184.011 99.7431 183.429 99.5793 182.854C99.4192 182.291 99.2304 181.74 99.0139 181.204C98.1657 179.106 96.989 177.221 95.5474 175.653C94.1499 174.146 92.5396 172.947 90.7916 172.113C89.1181 171.316 87.3585 170.807 85.5655 170.602C83.8058 170.413 82.0884 170.387 80.408 170.337C77.0419 170.267 73.8291 170.28 70.7748 170.299C64.6662 170.349 59.1864 170.463 54.3936 170.564L47.7513 170.697L44.8343 170.754C43.9486 170.736 43.0637 170.823 42.1922 171.013C41.42 171.189 40.6679 171.473 39.9517 171.86C39.3227 172.197 38.7242 172.61 38.1656 173.093C36.9846 174.114 36.0155 175.447 35.3332 176.987C35.1958 177.341 35.069 177.619 34.9897 177.879C34.8365 178.378 34.7625 178.631 34.7625 178.631L35.0109 177.891C35.0901 177.645 35.2222 177.36 35.3596 177.006C35.5422 176.609 35.7433 176.225 35.9621 175.856C36.576 174.811 37.3336 173.898 38.2026 173.156C38.7599 172.68 39.3566 172.273 39.9834 171.942C40.6947 171.561 41.4416 171.283 42.2081 171.114C43.0693 170.93 43.9437 170.847 44.8185 170.868L47.7354 170.823L54.3777 170.71C59.16 170.627 64.6398 170.526 70.7589 170.488C73.8132 170.488 77.0261 170.488 80.3869 170.552C82.0673 170.596 83.7899 170.634 85.5285 170.817C87.3031 171.028 89.0444 171.534 90.7018 172.322C92.4214 173.152 94.0047 174.34 95.3784 175.83C96.8004 177.377 97.961 179.235 98.7973 181.305C98.9994 181.834 99.1759 182.377 99.3257 182.93C99.4736 183.474 99.5582 184.074 99.6745 184.649C99.8964 185.813 100.12 186.986 100.346 188.171C100.793 190.535 101.249 192.937 101.714 195.378C105.413 214.893 109.588 236.723 114.069 260.246L114.19 260.05L109.434 260.126L109.561 260.24C105.17 236.622 100.404 211.005 95.4523 184.378C95.4206 184.264 95.3889 184.144 95.3519 184.03C94.7748 182.276 93.8954 180.687 92.771 179.367C91.6466 178.047 90.3024 177.025 88.8258 176.368C87.3539 175.742 85.8146 175.372 84.2549 175.268C82.7172 175.167 81.1795 175.129 79.6471 175.097C73.5226 174.996 67.4933 175.097 61.5168 175.179L43.9307 175.514C42.4476 175.601 41.0485 176.363 40.0204 177.645C39.5137 178.278 39.1247 179.032 38.8789 179.857C38.6517 180.667 38.4245 181.469 38.2026 182.272C37.3148 185.484 36.4341 188.664 35.5604 191.812L16.6745 260.139L16.7749 260.05H12.019L12.1142 260.209C19.1369 235.054 24.8281 214.653 28.7701 200.543C30.7306 193.487 32.2525 188.006 33.2882 184.289L34.456 180.053C34.6938 179.105 34.8206 178.612 34.8206 178.612Z" fill="#263238"/>
</svg>
