<svg width="233" height="263" viewBox="0 0 233 263" fill="none" xmlns="http://www.w3.org/2000/svg">
<path d="M95.4309 256.129H166.51V249.05L160.363 241.877H95.4309V256.129Z" fill="#263238"/>
<path d="M67.536 256.129H95.4369V241.877H74.7085L67.536 249.007V256.129Z" fill="#37474F"/>
<path d="M140.274 241.877H151.248V180.165H140.274V241.877Z" fill="#263238"/>
<path d="M115.631 241.877H140.275V180.165H115.631V241.877Z" fill="#37474F"/>
<path d="M95.8223 225.488H127.768V220.525H95.8223V225.488Z" fill="#263238"/>
<path d="M83.2729 225.488H95.8175V220.525H83.2729V225.488Z" fill="#37474F"/>
<path d="M75.2969 165.074H178.272V151.396L75.2969 151.396V165.074Z" fill="#37474F"/>
<path d="M114.709 151.404H178.271L209.092 75.3181H145.529L114.709 151.404Z" fill="#37474F"/>
<path d="M114.709 151.404H162.865L193.685 75.3181H145.529L114.709 151.404Z" fill="#455A64"/>
<path d="M131.8 151.404H75.3025V165.082H131.8V151.404Z" fill="#455A64"/>
<path d="M145.526 75.3181L204.964 75.3181V46.04H145.526V75.3181Z" fill="#37474F"/>
<path d="M145.525 75.3181H193.681V46.04H145.525V75.3181Z" fill="#37474F"/>
<path d="M139.487 61.2098C139.487 69.1498 147.162 74.5506 147.162 74.5506H191.631V47.8691H147.162C147.162 47.8691 139.487 53.2699 139.487 61.2098Z" fill="#455A64"/>
<path d="M191.62 74.5435V47.8691C191.62 47.8691 183.938 53.2699 183.938 61.2098C183.938 69.1498 191.62 74.5435 191.62 74.5435Z" fill="#37474F"/>
<path d="M185.38 83.6595C181.937 83.8101 178.502 83.8818 175.066 83.9392C171.631 83.9966 168.188 83.9894 164.745 84.0181C161.302 84.0468 157.874 84.0181 154.431 83.9392L149.274 83.8388C147.553 83.7814 145.838 83.7455 144.117 83.6595C145.838 83.5806 147.553 83.5447 149.274 83.4873L154.431 83.3869C157.874 83.3295 161.309 83.3295 164.745 83.308C168.181 83.2865 171.623 83.308 175.066 83.3869C178.509 83.4658 181.937 83.516 185.38 83.6595Z" fill="#37474F"/>
<path d="M178.277 101.971C174.841 102.114 171.399 102.186 167.963 102.243C164.527 102.301 161.085 102.293 157.649 102.329C154.213 102.365 150.771 102.329 147.328 102.243L142.171 102.143C140.457 102.085 138.735 102.05 137.014 101.971C138.735 101.885 140.457 101.856 142.171 101.791L147.328 101.691C150.771 101.634 154.206 101.641 157.649 101.612C161.092 101.583 164.52 101.612 167.963 101.691C171.406 101.77 174.841 101.82 178.277 101.971Z" fill="#37474F"/>
<path d="M171.167 120.275C167.731 120.426 164.296 120.49 160.853 120.547C157.41 120.605 153.975 120.605 150.539 120.634C147.103 120.662 143.661 120.634 140.225 120.547L135.061 120.447C133.347 120.39 131.625 120.354 129.904 120.275C131.625 120.196 133.347 120.16 135.061 120.096L140.225 120.002C143.661 119.945 147.096 119.945 150.539 119.916C153.982 119.888 157.417 119.916 160.853 120.002C164.289 120.088 167.717 120.096 171.167 120.275Z" fill="#37474F"/>
<path d="M164.064 138.579C160.621 138.73 157.185 138.802 153.743 138.859C150.3 138.916 146.871 138.909 143.429 138.938C139.986 138.967 136.55 138.938 133.115 138.859L127.958 138.759C126.236 138.694 124.515 138.665 122.801 138.579C124.515 138.5 126.236 138.465 127.958 138.407L133.115 138.307C136.55 138.249 139.993 138.249 143.429 138.221C146.864 138.192 150.307 138.221 153.743 138.307C157.178 138.393 160.621 138.436 164.064 138.579Z" fill="#37474F"/>
<path d="M70.8565 176.249H178.286V165.074H70.8565V176.249Z" fill="#263238"/>
<path d="M218.24 75.3181H204.949L164.984 176.249H178.275L218.24 75.3181Z" fill="#263238"/>
<path d="M204.971 46.0397L218.24 51.2541V75.3178H204.971V46.0397Z" fill="#263238"/>
<path d="M111.564 180.165H164.984V176.249H111.564V180.165Z" fill="#A6A6A6"/>
<path d="M0.937569 244.839C2.63027 245.435 52.4287 244.732 54.2936 243.584C54.5159 243.455 54.853 233.923 54.853 233.923C54.853 232.998 55.8572 227.116 55.8572 227.116C60.3113 216.415 70.9194 197.544 70.9194 197.544L38.2703 198.412L22.9571 228.773C22.9571 228.773 16.1791 231.477 10.269 234.174C6.62535 235.831 3.46228 237.344 2.73069 237.911C0.822809 239.395 -0.747962 244.251 0.937569 244.839Z" fill="#D3766A"/>
<path d="M0.771119 244.94C2.52837 245.521 52.6353 245.255 54.5647 244.036C55.2819 243.584 55.8844 227.281 55.8844 227.188L23.5509 226.966V227.518C23.5509 227.518 4.42191 236.182 2.47817 237.746C0.534431 239.309 -0.978964 244.366 0.771119 244.94Z" fill="black" fill-opacity="0.25"/>
<path d="M1.31899 242.996C9.76099 242.745 43.8517 242.53 52.2435 242.917C52.3153 242.917 52.3153 242.967 52.2435 242.974C43.8804 243.405 9.79685 243.347 1.31899 243.139C1.15402 243.132 1.15402 243.003 1.31899 242.996Z" fill="#263238"/>
<path d="M19.9628 227.109C23.2837 226.471 27.3505 226.958 29.9111 229.311C30.0043 229.404 29.8752 229.541 29.7676 229.505C26.5784 228.5 23.2918 227.837 19.9628 227.525C19.9077 227.525 19.8548 227.503 19.8158 227.464C19.7768 227.425 19.7548 227.372 19.7548 227.317C19.7548 227.262 19.7768 227.209 19.8158 227.17C19.8548 227.131 19.9077 227.109 19.9628 227.109Z" fill="#263238"/>
<path d="M17.5374 228.565C20.8582 227.927 24.9251 228.414 27.4785 230.767C27.5789 230.86 27.4785 230.997 27.3422 230.961C24.1576 229.957 20.8759 229.294 17.5518 228.981C17.4966 228.983 17.4429 228.963 17.4026 228.925C17.3622 228.888 17.3385 228.835 17.3366 228.78C17.3347 228.725 17.3548 228.671 17.3924 228.631C17.4301 228.591 17.4822 228.567 17.5374 228.565Z" fill="#263238"/>
<path d="M15.1537 230.021C18.4746 229.383 22.5413 229.87 25.0947 232.223C25.1952 232.316 25.0948 232.452 24.9513 232.417C21.7693 231.413 18.4899 230.75 15.1681 230.437C15.1407 230.438 15.1135 230.433 15.0879 230.424C15.0623 230.414 15.0389 230.4 15.0189 230.381C14.9989 230.362 14.9828 230.34 14.9714 230.315C14.9601 230.29 14.9538 230.263 14.9529 230.236C14.9519 230.209 14.9564 230.182 14.966 230.156C14.9756 230.13 14.9901 230.107 15.0087 230.087C15.0274 230.067 15.0498 230.051 15.0747 230.039C15.0995 230.028 15.1264 230.022 15.1537 230.021Z" fill="#263238"/>
<path opacity="0.1" d="M55.4891 235.056C55.2525 239.36 54.9082 243.799 54.5352 244.036C53.6387 244.61 41.969 244.976 29.7256 245.141L55.4891 235.056Z" fill="black"/>
<path d="M22.1595 227.381L60.8478 227.683C60.8478 227.683 86.0376 165.282 88.5121 162.019C89.7457 160.383 146.753 151.941 156.722 143.499C169.669 132.525 160.115 112.091 160.115 112.091L126.734 111.948C126.734 111.948 125.178 119.837 123.815 120.906C122.911 121.623 70.1147 133.974 60.8478 145.493C47.5573 162.047 22.1595 227.381 22.1595 227.381Z" fill="#C7C7C7"/>
<path d="M26.838 221.084C28.8894 220.97 30.9622 221.084 33.0207 221.048H39.2034C43.3276 221.048 47.4446 221.091 51.5687 221.127C53.907 221.127 56.238 221.285 58.5691 221.386C58.5798 221.382 58.5913 221.381 58.6025 221.383C58.6137 221.385 58.6243 221.389 58.6335 221.396C58.6427 221.402 58.6502 221.411 58.6553 221.421C58.6605 221.431 58.6632 221.442 58.6632 221.454C58.6632 221.465 58.6605 221.476 58.6553 221.486C58.6502 221.496 58.6427 221.505 58.6335 221.512C58.6243 221.518 58.6137 221.523 58.6025 221.525C58.5913 221.526 58.5798 221.525 58.5691 221.522C54.4377 221.708 50.3279 221.823 46.1966 221.794C42.0652 221.766 37.9554 221.694 33.8312 221.565C31.5073 221.493 29.1476 221.507 26.8309 221.292C26.8148 221.296 26.7982 221.296 26.7822 221.292C26.7662 221.288 26.7512 221.281 26.7386 221.27C26.7259 221.26 26.7158 221.246 26.709 221.231C26.7023 221.216 26.6991 221.2 26.6996 221.184C26.7002 221.167 26.7046 221.151 26.7123 221.137C26.7201 221.122 26.7311 221.11 26.7444 221.1C26.7578 221.09 26.7732 221.084 26.7894 221.081C26.8057 221.079 26.8223 221.08 26.838 221.084Z" fill="#A6A6A6"/>
<path d="M60.5669 210.089C61.5639 207.507 62.6469 204.96 63.7658 202.428C65.9534 197.465 75.4354 175.245 77.8741 170.152C79.0719 167.635 80.2625 165.132 81.4603 162.607C81.8955 161.621 82.4443 160.69 83.0956 159.831C83.855 158.919 84.846 158.227 85.9646 157.83C87.141 157.407 88.3379 157.043 89.5509 156.74C90.8849 156.367 92.2118 156.023 93.5459 155.65C96.2045 154.932 98.8751 154.244 101.558 153.584C106.915 152.264 143.093 145.07 149.082 142.481C152.702 140.883 155.54 137.914 156.972 134.225C158.823 129.205 158.672 123.861 158.062 118.64C157.904 117.291 157.697 115.943 157.496 114.602C157.496 114.515 157.61 114.487 157.625 114.602C158.428 119.88 159.346 125.267 158.471 130.603C157.754 134.986 155.358 139.562 151.521 141.929C143.854 146.662 102.325 154.064 91.6094 156.991C90.2968 157.342 88.9771 157.708 87.6717 158.081C86.401 158.352 85.2163 158.931 84.2217 159.767C83.4248 160.601 82.7857 161.573 82.3353 162.636C81.74 163.848 81.1734 165.081 80.5996 166.301C78.1825 171.422 63.7013 203.87 59.5986 214.206C59.1037 215.446 58.616 216.687 58.1067 217.921C58.0422 218.072 57.8055 218.007 57.8557 217.842C58.5945 215.181 59.5914 212.621 60.5669 210.089Z" fill="#A6A6A6"/>
<path d="M39.5813 253.188C41.2811 253.762 89.7886 253.073 91.6749 251.89C93.6976 249.968 94.5439 204.171 94.5439 204.171L63.315 203.913L61.3712 236.792C61.3712 236.792 54.6291 239.603 48.762 242.393C45.1399 244.108 41.9984 245.671 41.274 246.245C39.3876 247.766 37.8957 252.629 39.5813 253.188Z" fill="#D3766A"/>
<path d="M38.6145 253.224C40.3718 253.805 90.4787 253.561 92.4081 252.342C93.1253 251.89 93.527 244.595 93.7493 235.773C93.7493 235.68 93.7493 235.587 93.7493 235.493L61.4158 235.293V235.838C61.4158 235.838 42.2797 244.495 40.3288 246.059C38.3778 247.622 36.8358 252.65 38.6145 253.224Z" fill="black" fill-opacity="0.25"/>
<path d="M39.1401 251.28C47.5893 251.029 81.6729 250.828 90.0647 251.223C90.1364 251.223 90.1364 251.273 90.0647 251.28C81.7016 251.703 47.6108 251.632 39.1401 251.416C38.9608 251.416 38.9608 251.287 39.1401 251.28Z" fill="#263238"/>
<path d="M57.7662 235.4C61.087 234.762 65.1538 235.25 67.7072 237.61C67.8076 237.696 67.7072 237.839 67.5709 237.803C64.3876 236.794 61.1054 236.128 57.7805 235.816C57.7253 235.818 57.6717 235.798 57.6313 235.761C57.591 235.723 57.5672 235.671 57.5653 235.616C57.5634 235.56 57.5835 235.507 57.6212 235.466C57.6588 235.426 57.711 235.402 57.7662 235.4Z" fill="#263238"/>
<path d="M55.3756 236.856C58.6965 236.218 62.7633 236.706 65.3167 239.058C65.4099 239.152 65.2808 239.295 65.1732 239.259C61.9923 238.25 58.7126 237.584 55.39 237.272C55.3627 237.273 55.3354 237.269 55.3099 237.259C55.2843 237.25 55.2608 237.235 55.2408 237.217C55.2208 237.198 55.2047 237.176 55.1934 237.151C55.1821 237.126 55.1758 237.099 55.1748 237.072C55.1739 237.044 55.1783 237.017 55.1879 236.991C55.1975 236.966 55.212 236.942 55.2307 236.922C55.2493 236.902 55.2717 236.886 55.2966 236.875C55.3215 236.864 55.3483 236.857 55.3756 236.856Z" fill="#263238"/>
<path d="M52.9573 238.312C56.2781 237.674 60.3449 238.162 62.8983 240.514C62.9987 240.607 62.8983 240.744 62.762 240.715C59.5787 239.706 56.2965 239.04 52.9716 238.728C52.9164 238.73 52.8628 238.71 52.8224 238.672C52.7821 238.635 52.7583 238.583 52.7564 238.527C52.7545 238.472 52.7746 238.419 52.8123 238.378C52.85 238.338 52.9021 238.314 52.9573 238.312Z" fill="#263238"/>
<path d="M59.6453 235.609L95.02 235.795C95.02 235.795 94.4175 169.973 97.1717 166.452C100.851 161.754 152.349 161.854 163.395 146.526C173.315 132.763 163.395 111.977 163.395 111.977H128.099C128.645 116.543 129.714 121.031 131.284 125.353C131.284 125.353 80.6893 135.208 69.4573 147.437C60.506 157.12 59.6453 235.609 59.6453 235.609Z" fill="#CACBD0"/>
<path d="M126.481 123.23C127.614 123.48 128.721 123.835 129.788 124.292C130.906 124.715 132.011 125.203 133.087 125.726C135.206 126.773 137.265 127.936 139.255 129.212C139.32 129.212 139.255 129.334 139.198 129.305C137.089 128.208 134.894 127.225 132.743 126.286L129.587 124.93C128.532 124.471 127.435 124.084 126.402 123.496C126.259 123.445 126.33 123.201 126.481 123.23Z" fill="#A6A6A6"/>
<path d="M128.824 113.64C129.276 115.419 129.663 117.227 130.173 118.969C130.409 119.78 130.639 120.598 130.94 121.387C131.198 122.046 131.593 122.821 132.375 122.95C133.257 123.122 133.508 122.362 133.436 121.638C133.364 120.913 133.149 120.009 132.991 119.206C132.805 118.281 131.786 113.798 131.937 113.64C131.949 113.631 131.965 113.626 131.98 113.626C131.996 113.626 132.011 113.631 132.023 113.64C132.314 114.229 132.534 114.85 132.676 115.491C132.927 116.337 133.164 117.191 133.393 118.044C133.623 118.898 133.823 119.758 134.031 120.612C134.252 121.247 134.311 121.928 134.204 122.592C134.123 122.912 133.938 123.197 133.679 123.402C133.42 123.607 133.1 123.721 132.769 123.725L132.862 123.897C132.941 124.076 132.999 124.263 133.063 124.442C133.133 124.623 133.192 124.807 133.242 124.994C133.268 125.086 133.288 125.18 133.3 125.274C133.3 125.374 133.3 125.475 133.3 125.575C133.313 125.611 133.312 125.651 133.295 125.686C133.279 125.721 133.25 125.748 133.214 125.762C133.178 125.775 133.138 125.773 133.103 125.757C133.068 125.741 133.041 125.712 133.027 125.676C132.977 125.59 132.913 125.518 132.855 125.432C132.804 125.336 132.763 125.235 132.733 125.131C132.67 124.955 132.617 124.775 132.575 124.593C132.532 124.413 132.475 124.234 132.439 124.055C132.432 123.945 132.432 123.835 132.439 123.725C132.067 123.688 131.711 123.554 131.406 123.337C130.904 122.907 130.536 122.342 130.345 121.709C130.079 120.992 129.871 120.203 129.628 119.443C129.082 117.567 128.701 115.647 128.487 113.705C128.487 113.483 128.774 113.404 128.824 113.64Z" fill="#A6A6A6"/>
<path d="M148.229 116.459C148.394 117.341 148.494 118.231 148.702 119.106C148.898 119.964 149.138 120.811 149.419 121.645C149.674 122.456 150.038 123.228 150.502 123.94C150.992 124.605 151.574 125.196 152.231 125.697C153.488 126.695 154.901 127.48 156.412 128.021C157.173 128.295 157.949 128.522 158.736 128.703C159.146 128.796 159.56 128.868 159.977 128.918C160.324 128.928 160.665 129.006 160.981 129.147C161.011 129.166 161.035 129.192 161.052 129.223C161.069 129.254 161.078 129.288 161.078 129.323C161.078 129.358 161.069 129.393 161.052 129.423C161.035 129.454 161.011 129.48 160.981 129.499C160.38 129.676 159.742 129.696 159.131 129.556C158.465 129.49 157.806 129.372 157.158 129.205C155.844 128.862 154.586 128.333 153.422 127.634C152.243 126.971 151.187 126.11 150.302 125.088C149.473 124.012 148.902 122.76 148.63 121.43C148.219 119.811 148.038 118.143 148.092 116.474C148.099 116.462 148.109 116.453 148.12 116.446C148.131 116.438 148.144 116.434 148.157 116.433C148.17 116.431 148.184 116.433 148.196 116.438C148.208 116.442 148.22 116.45 148.229 116.459Z" fill="#A6A6A6"/>
<path d="M89.7967 191.584C90.141 186.054 90.6 178.379 91.1738 172.871C91.3173 171.508 91.4536 170.153 91.6185 168.797C91.7266 167.738 91.9675 166.697 92.3358 165.698C93.1463 163.626 94.8748 162.578 96.962 162.048C99.4222 161.431 101.983 161.058 104.479 160.649C106.975 160.24 109.614 159.867 112.182 159.509C117.389 158.791 122.604 158.117 127.789 157.242C132.961 156.419 138.076 155.269 143.103 153.799C147.714 152.408 152.427 150.694 156.121 147.502C164.061 140.631 164.347 129.112 163.379 119.479C163.243 118.123 163.078 116.761 162.913 115.405C162.913 115.333 163.013 115.312 163.021 115.405C163.652 120.827 164.383 126.286 163.838 131.751C163.504 136.271 162.023 140.63 159.535 144.418C156.852 148.262 152.871 150.751 148.575 152.487C143.817 154.315 138.906 155.717 133.9 156.675C123.608 158.827 113.1 159.738 102.75 161.51C101.474 161.734 100.199 161.974 98.9273 162.227C97.7463 162.405 96.589 162.715 95.4774 163.152C93.1248 164.207 92.4792 166.487 92.1852 168.854C91.511 174.341 91.0519 182.016 90.6574 187.503C89.8541 198.62 89.4238 209.788 89.4453 220.926C89.4453 222.304 89.4811 224.979 89.4955 226.356C89.4955 226.478 89.309 226.464 89.309 226.356C88.9719 215.174 89.0938 202.73 89.7967 191.584Z" fill="#A6A6A6"/>
<path d="M60.5872 198.577C61.3044 188.901 62.4448 177.095 63.9152 167.491C64.6324 162.844 65.3067 158.167 66.3323 153.555C66.6922 151.657 67.5178 149.877 68.7351 148.377C70.3964 146.515 72.3312 144.916 74.4731 143.636C92.3684 133.071 130.131 125.611 131.279 125.353C131.296 125.353 131.313 125.36 131.325 125.372C131.337 125.384 131.344 125.401 131.344 125.418C131.344 125.435 131.337 125.451 131.325 125.463C131.313 125.475 131.296 125.482 131.279 125.482C122.12 127.634 90.2597 135.961 77.3636 143.062C75.4127 144.138 70.1194 146.792 68.1685 150.615C67.1859 152.558 66.734 155.521 66.3467 157.636C65.9163 160.027 65.5099 162.442 65.1273 164.881C63.6283 174.334 62.4879 185.996 61.6917 195.521C60.8956 205.046 60.1353 220.41 60.1353 221.608C60.1353 221.674 60.1089 221.738 60.0618 221.785C60.0147 221.832 59.9508 221.859 59.8843 221.859C59.8177 221.859 59.7538 221.832 59.7068 221.785C59.6597 221.738 59.6332 221.674 59.6332 221.608C59.5185 211.853 59.8412 208.317 60.5872 198.577Z" fill="#A6A6A6"/>
<path d="M62.1296 228.709C64.0303 228.551 65.9525 228.587 67.8676 228.529L73.6055 228.386C77.4285 228.293 81.2514 228.235 85.0815 228.178C87.2332 228.142 89.385 228.228 91.5797 228.271C91.5941 228.276 91.6066 228.285 91.6155 228.297C91.6243 228.309 91.6291 228.324 91.6291 228.339C91.6291 228.354 91.6243 228.369 91.6155 228.381C91.6066 228.393 91.5941 228.403 91.5797 228.407C87.764 228.694 83.9482 228.902 80.1038 228.967C76.2594 229.031 72.4579 229.067 68.6278 229.031C66.4761 229.031 64.2813 229.081 62.1296 228.917C62.1066 228.91 62.0863 228.897 62.0719 228.878C62.0574 228.859 62.0495 228.836 62.0495 228.813C62.0495 228.789 62.0574 228.766 62.0719 228.747C62.0863 228.728 62.1066 228.715 62.1296 228.709Z" fill="#A6A6A6"/>
<path d="M153.606 75.3896C149.64 79.8151 132.483 98.3416 123.137 97.402C117.536 96.8425 104.188 85.2088 98.9877 80.518C96.0757 77.9072 113.333 66.173 115.743 68.791C119.867 73.2236 125.318 79.3202 126.301 79.7649C127.283 80.2096 139.476 73.7615 148.765 70.2326C157.128 67.0194 156.396 72.2696 153.606 75.3896Z" fill="#D3766A"/>
<path d="M94.4497 74.5937C96.2213 78.3521 102.849 84.6352 105.029 85.5102C107.209 86.3853 118.241 75.4688 117.939 73.0947C117.638 70.7206 110.703 58.4987 106.894 56.641C103.085 54.7833 92.6135 70.6991 94.4497 74.5937Z" fill="#D3766A"/>
<path d="M117.13 70.8064C116.929 67.4562 117.222 64.0947 117.997 60.8294C119.052 56.9707 121.06 51.3546 119.009 50.7091C114.791 49.3822 109.785 63.3757 109.785 63.3757C109.785 63.3757 108.573 69.9098 112.654 71.5953C113.401 71.8855 114.213 71.9654 115.002 71.8263C115.791 71.6872 116.527 71.3345 117.13 70.8064Z" fill="#D3766A"/>
<path d="M112.178 60.6791C111.949 62.8667 109.503 61.3461 109.503 61.3461C109.503 61.3461 112.501 64.3873 111.397 66.5533C110.292 68.7194 107.423 66.6968 107.215 66.5533C107.373 66.7183 110.084 69.5801 108.721 71.6458C107.359 73.7115 104.762 71.3374 104.59 71.1796C104.69 71.3804 105.974 74.0486 104.59 75.3827C102.23 77.6778 98.766 70.9572 96.1911 70.2543C96.1911 70.2543 94.5055 74.4717 94.4338 74.5578C94.4338 74.5578 90.9982 68.2317 92.1386 64.8176C92.2981 64.3183 92.6231 63.8884 93.06 63.5989C93.4969 63.3094 94.0195 63.1776 94.5414 63.2253C94.5414 63.2253 93.2073 61.3031 94.2043 59.6391C94.7207 58.7927 96.5425 58.8645 96.5425 58.8645C96.2661 58.4133 96.1197 57.8945 96.1197 57.3654C96.1197 56.8363 96.2661 56.3175 96.5425 55.8664C97.3243 54.7331 99.0242 54.977 99.0242 54.977C99.0242 54.977 98.766 53.0117 99.9423 52.108C102.295 50.3364 112.659 55.9955 112.178 60.6791Z" fill="#D3766A"/>
<path d="M99.2956 55.0201C99.2597 55.0201 99.2956 54.9484 99.2956 54.9556C103.314 56.0095 106.916 58.261 109.624 61.4108C109.71 61.5112 109.581 61.6905 109.466 61.5973C106.413 58.9233 102.987 56.7078 99.2956 55.0201Z" fill="#263238"/>
<path d="M96.5142 58.8573C96.4712 58.8573 96.5142 58.7712 96.5142 58.7784C100.933 59.9848 104.775 62.7325 107.345 66.5247C107.431 66.6609 107.345 66.8689 107.266 66.7255C105.437 64.2295 100.007 60.3922 96.5142 58.8573Z" fill="#263238"/>
<path d="M104.682 71.5236C102.128 67.837 98.6569 65.341 94.7264 63.2896C94.6762 63.2896 94.7264 63.1964 94.7694 63.2107C96.9642 63.6841 99.3383 65.2549 101.081 66.632C102.72 67.881 104.005 69.5345 104.811 71.4304C104.84 71.5093 104.732 71.6025 104.682 71.5236Z" fill="#263238"/>
<path d="M109.575 61.3462C109.676 61.4681 109.389 61.4753 109.482 61.6044C109.884 62.1352 112.043 65.5349 111.11 66.6251C110.393 67.5002 108.672 67.1057 108.083 66.6969L106.599 65.6712L107.639 67.1487C108.105 67.8037 108.461 68.5305 108.693 69.3005C108.821 69.6494 108.874 70.0216 108.848 70.3925C108.822 70.7633 108.718 71.1245 108.543 71.4522C108.376 71.7552 108.111 71.9918 107.791 72.1224C107.471 72.253 107.116 72.2696 106.785 72.1694C106.048 71.9316 105.384 71.5094 104.856 70.943L103.342 69.4367L104.275 71.3518C104.535 71.8821 104.725 72.4438 104.842 73.023C104.975 73.5694 104.945 74.1431 104.755 74.6726C104.659 74.9066 104.499 75.1091 104.294 75.2573C104.088 75.4056 103.846 75.4937 103.594 75.5118C103.024 75.4687 102.478 75.262 102.023 74.9165C101.019 74.1911 100.076 73.3851 99.204 72.5066C98.7449 72.0762 98.2859 71.6459 97.7695 71.2442C97.3141 70.8042 96.7683 70.4689 96.17 70.2616C96.7321 70.5296 97.2364 70.9048 97.6547 71.3661C98.0994 71.8037 98.5226 72.2699 98.9458 72.7289C99.789 73.685 100.721 74.5591 101.729 75.3397C102.26 75.7766 102.909 76.0462 103.594 76.1143C103.968 76.1112 104.334 75.999 104.646 75.7913C104.958 75.5837 105.203 75.2897 105.351 74.9452C105.61 74.296 105.668 73.5835 105.516 72.901C105.4 72.2528 105.197 71.6231 104.913 71.029L104.332 71.4307C104.949 72.0991 105.731 72.5938 106.599 72.8652C107.087 73.0062 107.609 72.9732 108.076 72.7719C108.527 72.5633 108.905 72.2233 109.159 71.7965C109.384 71.3808 109.517 70.9222 109.55 70.451C109.584 69.9798 109.517 69.5069 109.353 69.0638C109.079 68.2248 108.673 67.4353 108.148 66.7255L107.703 67.1774C108.471 67.6723 110.314 68.325 111.648 67.1129C113.14 65.3126 110.164 61.9272 109.575 61.3462Z" fill="#263238"/>
<path d="M109.506 61.346C109.928 61.5105 110.374 61.605 110.826 61.6257C111.008 61.6415 111.19 61.6078 111.354 61.5283C111.518 61.4487 111.658 61.3263 111.758 61.1739C111.933 60.8132 111.998 60.4091 111.945 60.0119C111.945 59.5672 111.851 59.1082 111.773 58.6276C112.077 59.0125 112.297 59.4573 112.418 59.933C112.501 60.1907 112.532 60.4624 112.509 60.7322C112.485 61.002 112.408 61.2643 112.282 61.5038C112.109 61.7605 111.857 61.9542 111.565 62.0561C111.3 62.1505 111.014 62.1679 110.74 62.1063C110.259 61.989 109.827 61.7229 109.506 61.346Z" fill="#263238"/>
<path d="M133.918 75.2319L138.767 92.5462C138.767 92.5462 153.162 78.9902 156.268 73.8045C159.768 67.9733 156.017 67.4641 149.734 68.9775C143.451 70.4909 133.918 75.2319 133.918 75.2319Z" fill="#FFC727"/>
<path opacity="0.1" d="M133.918 75.2319L138.767 92.5462C138.767 92.5462 153.162 78.9902 156.268 73.8045C159.768 67.9733 156.017 67.4641 149.734 68.9775C143.451 70.4909 133.918 75.2319 133.918 75.2319Z" fill="#030402"/>
<path d="M136.987 74.8377C137.238 75.4186 138.794 80.798 139.138 81.9743C139.483 83.1506 140.774 87.9561 140.996 89.197C140.996 89.2084 140.991 89.2193 140.983 89.2274C140.975 89.2355 140.964 89.24 140.953 89.24C140.942 89.24 140.931 89.2355 140.923 89.2274C140.914 89.2193 140.91 89.2084 140.91 89.197C140.458 88.0207 139.11 83.1864 138.758 81.9886C138.407 80.7908 137.001 75.4402 136.922 74.8162C136.879 74.8018 136.965 74.8018 136.987 74.8377Z" fill="#263238"/>
<path d="M168.661 132.784C168.524 132.87 122.886 120.662 122.599 120.081C122.197 119.264 141.248 77.398 150.536 70.5913C153.204 68.626 160.334 66.754 163.159 70.7204C169.177 79.1552 171.049 102.48 170.791 109.452C170.418 120.885 169.156 132.454 168.661 132.784Z" fill="#FFC727"/>
<g opacity="0.1" filter="url(#filter0_d_1_914)">
<path d="M163.952 71.9327L153.144 69.2287C153.641 69.0434 154.148 68.8877 154.664 68.7624L163.321 70.9142C163.536 71.2369 163.744 71.5741 163.952 71.9327ZM165.064 74.1203L150.612 70.534L150.533 70.5914C150.296 70.7636 150.059 70.9572 149.815 71.1796L165.473 75.0957C165.33 74.7443 165.2 74.4287 165.064 74.1203ZM166.24 77.1686L148.273 72.6786C148.073 72.8938 147.865 73.1305 147.657 73.3959L166.549 78.1225C166.448 77.7782 166.348 77.477 166.24 77.1686ZM167.158 80.1595L146.358 74.9666L145.813 75.6839L167.381 81.0776C167.324 80.762 167.245 80.4608 167.158 80.1595ZM167.876 83.1074L144.651 77.2977C144.479 77.5344 144.314 77.7711 144.149 78.0149L168.077 83.9968C168.041 83.7027 167.976 83.4015 167.904 83.1074H167.876ZM168.493 86.0194L143.059 79.6574L142.586 80.3747L168.665 86.8945L168.493 86.0194ZM169.016 88.8884L141.553 82.0172C141.402 82.261 141.252 82.5121 141.094 82.7344L169.16 89.7491C169.152 89.4981 169.095 89.204 169.045 88.9099L169.016 88.8884ZM169.461 91.7574L140.097 84.4128L139.659 85.13L169.583 92.6037C169.576 92.3599 169.533 92.073 169.49 91.7789L169.461 91.7574ZM169.841 94.6264L138.698 86.8371C138.555 87.0809 138.411 87.332 138.275 87.5543L169.941 95.444C169.941 95.2217 169.906 94.9276 169.87 94.6335L169.841 94.6264ZM170.157 97.4595L137.364 89.2542C137.221 89.4981 137.084 89.7491 136.948 89.9714L170.271 98.3059L170.157 97.4595ZM170.415 100.285L135.987 91.6785C135.851 91.9295 135.714 92.1806 135.585 92.4316L170.465 101.153L170.415 100.285ZM170.608 103.09L134.725 94.1243C134.588 94.3753 134.459 94.6264 134.323 94.8415L170.687 103.929C170.673 103.678 170.659 103.391 170.637 103.097L170.608 103.09ZM170.745 105.887L133.448 96.5629C133.319 96.814 133.19 97.065 133.053 97.3161L170.795 106.748C170.788 106.468 170.781 106.188 170.773 105.894L170.745 105.887ZM132.164 99.0016C132.035 99.2526 131.906 99.5037 131.784 99.7547L170.759 109.495V109.402C170.759 109.165 170.759 108.914 170.759 108.684L132.164 99.0016ZM130.959 101.447L130.586 102.208L170.68 112.249C170.68 111.969 170.68 111.69 170.68 111.41L130.959 101.447ZM129.754 103.908C129.625 104.159 129.496 104.41 129.381 104.661L170.537 114.953C170.537 114.673 170.573 114.394 170.587 114.114L129.754 103.908ZM128.556 106.368L128.19 107.128L170.379 117.672C170.379 117.392 170.379 117.112 170.436 116.832L128.556 106.368ZM127.38 108.828C127.265 109.086 127.143 109.344 127.029 109.595L170.185 120.354L170.25 119.522L127.38 108.828ZM126.232 111.302C126.118 111.561 126.003 111.812 125.881 112.063L169.97 123.087C169.97 122.814 170.013 122.534 170.042 122.255L126.232 111.302ZM125.113 113.777L124.769 114.544L169.719 125.776C169.719 125.511 169.769 125.231 169.798 124.952L125.113 113.777ZM124.023 116.266C123.909 116.538 123.794 116.789 123.693 117.033L169.425 128.466C169.425 128.201 169.49 127.928 169.525 127.641L124.023 116.266ZM122.99 118.769C122.869 119.085 122.775 119.35 122.711 119.551L169.066 131.134C169.1 130.89 169.143 130.618 169.195 130.317L122.99 118.769Z" fill="#030402"/>
</g>
<path d="M152.717 77.0609C154.338 77.2904 159.101 74.2923 160.887 71.0719C161.009 70.8495 160.169 61.9772 160.169 60.1984C160.169 59.8326 149.016 62.8379 149.016 62.8379C149.636 65.0636 149.983 67.3565 150.049 69.6661C150.042 69.9069 150.015 70.1467 149.97 70.3833C149.97 70.4192 149.97 70.4551 149.97 70.5053C149.705 71.8752 150.329 76.6951 152.717 77.0609Z" fill="#D3766A"/>
<path d="M159.439 60.2272C159.002 62.924 157.237 70.4551 151.076 70.5627C150.695 70.5657 150.313 70.5417 149.936 70.491V70.3691C149.981 70.1327 150.005 69.8926 150.007 69.6518C149.945 67.3424 149.601 65.0493 148.982 62.8236C148.982 62.8236 156.957 60.6719 159.439 60.2272Z" fill="#263238"/>
<path d="M161.221 46.3914C162.562 50.3004 160.855 61.7764 158.137 64.4086C154.184 68.2316 147.536 68.8054 144.243 64.0213C141.045 59.3807 143.526 44.4692 146.589 42.0521C151.093 38.4945 159.248 40.6247 161.221 46.3914Z" fill="#D3766A"/>
<path d="M152.348 53.8649C152.348 53.8649 152.398 53.9151 152.398 53.9438C152.262 54.7113 152.233 55.6222 152.9 55.9736C152.9 55.9736 152.9 56.0238 152.9 56.0167C152.047 55.7728 152.097 54.575 152.348 53.8649Z" fill="#263238"/>
<path d="M153.151 53.1622C154.413 53.2411 154.148 55.7515 152.986 55.6726C151.824 55.5937 152.096 53.0905 153.151 53.1622Z" fill="#263238"/>
<path d="M147.589 53.3343C147.589 53.3343 147.525 53.3343 147.525 53.3916C147.467 54.1734 147.267 55.0557 146.542 55.2421V55.2852C147.41 55.2565 147.632 54.1089 147.589 53.3343Z" fill="#263238"/>
<path d="M146.978 52.4453C145.737 52.223 145.378 54.719 146.526 54.927C147.674 55.135 148.018 52.6749 146.978 52.4453Z" fill="#263238"/>
<path d="M154.007 52.2657C153.686 52.1334 153.373 51.985 153.067 51.821C152.717 51.7107 152.412 51.4891 152.199 51.1898C152.152 51.0815 152.141 50.9606 152.168 50.8454C152.195 50.7303 152.259 50.6271 152.35 50.5514C152.553 50.4316 152.785 50.3683 153.021 50.3683C153.256 50.3683 153.488 50.4316 153.691 50.5514C154.138 50.7291 154.504 51.0665 154.717 51.4982C154.763 51.5999 154.779 51.713 154.761 51.8233C154.743 51.9337 154.693 52.0363 154.617 52.1183C154.541 52.2004 154.443 52.2581 154.334 52.2843C154.226 52.3105 154.112 52.304 154.007 52.2657Z" fill="#263238"/>
<path d="M145.932 51.3333C146.277 51.2993 146.619 51.2467 146.958 51.1755C147.326 51.1726 147.682 51.0463 147.969 50.8169C148.047 50.7279 148.094 50.6158 148.101 50.4978C148.109 50.3798 148.078 50.2626 148.012 50.1642C147.85 49.9939 147.647 49.8692 147.421 49.8024C147.196 49.7357 146.957 49.7294 146.729 49.784C146.246 49.8271 145.797 50.0467 145.466 50.4009C145.398 50.4865 145.355 50.5899 145.343 50.699C145.332 50.8081 145.352 50.9183 145.401 51.0164C145.45 51.1145 145.526 51.1965 145.62 51.2527C145.714 51.3089 145.823 51.3368 145.932 51.3333Z" fill="#263238"/>
<path d="M151.496 58.5488C151.269 58.8371 150.984 59.0743 150.659 59.2449C150.334 59.4154 149.976 59.5155 149.61 59.5386C149.291 59.5685 148.97 59.5515 148.656 59.4884C148.595 59.4818 148.535 59.4674 148.477 59.4454L148.305 59.4023C148.265 59.39 148.23 59.3652 148.206 59.3316C148.181 59.2981 148.168 59.2575 148.168 59.2159C148.165 59.1897 148.165 59.1632 148.168 59.137V59.0652C148.211 58.4699 148.362 57.5662 148.362 57.5662C148.133 57.6523 146.971 58.0396 147.021 57.724C147.369 55.0376 147.992 52.394 148.878 49.8343C148.886 49.8192 148.898 49.8071 148.913 49.8001C148.928 49.7931 148.945 49.7916 148.962 49.7958C148.978 49.8001 148.992 49.8098 149.002 49.8234C149.011 49.8369 149.016 49.8535 149.015 49.8701C148.706 52.3518 147.96 54.7689 147.58 57.2649C147.994 57.1213 148.427 57.0368 148.864 57.0139C148.95 57.0139 148.541 58.7568 148.541 59.0294C149.026 59.1287 149.526 59.1298 150.012 59.0325C150.497 58.9351 150.958 58.7414 151.367 58.4628C151.496 58.4125 151.554 58.4914 151.496 58.5488Z" fill="#263238"/>
<path d="M149.072 59.2232C149.359 59.684 149.759 60.0641 150.233 60.3277C150.495 60.4583 150.79 60.5059 151.08 60.464C151.718 60.3707 151.797 59.797 151.733 59.302C151.696 59.0368 151.629 58.7768 151.532 58.5274C150.806 59.0141 149.945 59.2577 149.072 59.2232Z" fill="#263238"/>
<path d="M150.198 60.3275C150.459 60.4582 150.755 60.5057 151.044 60.4638C151.683 60.3706 151.761 59.7968 151.697 59.3019C151.367 59.2736 151.038 59.3603 150.764 59.5472C150.491 59.7342 150.291 60.0099 150.198 60.3275Z" fill="#FF9CBD"/>
<path d="M160.723 57.0426C158.671 56.4042 157.811 49.4469 157.811 49.4469C157.811 49.4469 157.746 52.3877 157.201 52.3159C156.656 52.2442 154.504 48.1846 154.332 45.3156C152.678 46.3463 150.896 47.1564 149.031 47.7256C146.399 48.4428 143.509 48.1846 143.523 47.7256C143.523 46.3986 144.85 42.9774 146.686 41.8011C148.023 40.8423 149.59 40.2544 151.227 40.0969C152.865 39.9395 154.515 40.2181 156.01 40.9045C160.242 42.6546 161.289 45.4304 161.863 47.5749C162.437 49.7195 161.476 57.2793 160.723 57.0426Z" fill="#20ED0E" fill-opacity="0.63"/>
<path d="M159.114 55.7657C159.114 55.7657 161.646 52.0432 163.331 52.9398C165.017 53.8364 163.145 59.2157 161.179 59.9688C160.935 60.0838 160.671 60.1482 160.401 60.1583C160.132 60.1683 159.863 60.1238 159.611 60.0273C159.359 59.9308 159.129 59.7844 158.935 59.5969C158.741 59.4094 158.587 59.1845 158.483 58.936L159.114 55.7657Z" fill="#D3766A"/>
<path d="M162.742 54.4674C162.742 54.4674 162.778 54.5105 162.742 54.5248C161.372 55.0986 160.669 56.3825 160.174 57.7166C160.252 57.5773 160.36 57.4567 160.49 57.3632C160.619 57.2696 160.768 57.2052 160.924 57.1745C161.081 57.1439 161.243 57.1476 161.398 57.1854C161.553 57.2233 161.699 57.2944 161.824 57.3938C161.86 57.3938 161.824 57.4727 161.824 57.4655C161.58 57.3936 161.319 57.3983 161.078 57.4791C160.837 57.5599 160.627 57.7129 160.475 57.9174C160.225 58.2613 160.013 58.6317 159.844 59.022C159.78 59.1439 159.557 59.0793 159.6 58.9359C159.521 57.1499 160.855 54.6683 162.742 54.4674Z" fill="#263238"/>
<path d="M150.557 40.0438C152.025 39.4158 153.576 39.0027 155.162 38.8173C156.941 38.6523 162.506 39.2476 163.812 40.4024C165.117 41.5572 165.311 46.8576 165.325 47.5749C165.34 48.2921 164.859 52.9829 163.174 54.0301C161.488 55.0773 161.531 47.2019 158.956 44.5051C156.381 41.8082 150.557 40.0438 150.557 40.0438Z" fill="#FFC727"/>
<path opacity="0.1" d="M150.557 40.051C150.557 40.051 156.338 41.8513 158.913 44.5554C161.488 47.2594 161.423 55.1491 163.145 54.0732C163.862 53.607 164.278 52.8826 164.622 51.6561C164.335 49.3394 163.511 45.7316 161.66 43.1926C159.924 40.8185 156.862 39.5562 153.555 39.0828C152.53 39.3204 151.527 39.6443 150.557 40.051Z" fill="black"/>
<path d="M162.546 58.7497C162.46 56.641 160.488 50.946 158.336 47.6539C156.184 44.3617 149.65 42.2745 148.725 42.3032C146.48 42.3677 145.698 43.0204 145.354 42.8124C145.009 42.6044 147.362 40.9835 148 40.6248C148.639 40.2662 150.36 39.427 151.336 39.4772C152.311 39.5274 158.293 40.3021 160.402 42.9272C162.51 45.5523 165.379 52.818 164.762 54.6327C164.612 55.0702 164.045 55.3499 163.808 55.9596C163.543 56.7701 163.342 57.7168 163.091 58.2835C162.862 58.7353 162.553 58.929 162.546 58.7497Z" fill="#FFC727"/>
<path d="M157.862 46.2191C158.385 45.9229 158.882 45.5822 159.346 45.2007C159.825 44.8212 160.256 44.3853 160.63 43.9024C160.63 43.9024 160.716 43.9024 160.695 43.9383C160.378 44.4737 159.981 44.9574 159.518 45.3728C159.042 45.78 158.495 46.096 157.905 46.3052C157.84 46.3196 157.804 46.2191 157.862 46.2191Z" fill="#263238"/>
<path d="M162.632 56.648C162.689 56.4974 162.796 56.3683 162.868 56.2248C162.961 56.062 163.033 55.8886 163.083 55.7084C163.138 55.3602 163.229 55.0188 163.356 54.6899C163.498 54.4434 163.669 54.2147 163.865 54.0086C164.109 53.7887 164.264 53.488 164.303 53.1622C164.303 53.1192 164.374 53.1192 164.374 53.1622C164.263 53.7549 164.004 54.3099 163.621 54.776C163.485 55.1277 163.377 55.4899 163.299 55.8591C163.204 56.2017 163 56.5039 162.718 56.7197C162.696 56.7413 162.61 56.6982 162.632 56.648Z" fill="#263238"/>
<path d="M161.979 54.353C162.187 54.1163 162.402 53.9083 162.589 53.6358C162.767 53.3905 162.925 53.1315 163.062 52.8611C163.205 52.5958 163.327 52.3232 163.456 52.0578C163.586 51.7925 163.815 51.4482 163.958 51.1254C163.958 51.0824 164.037 51.1254 164.023 51.1254C163.872 51.4553 163.779 51.8427 163.643 52.1582C163.517 52.4488 163.373 52.7315 163.213 53.0046C163.063 53.2593 162.89 53.4995 162.696 53.7219C162.502 53.9651 162.257 54.1633 161.979 54.3028C161.979 54.3028 161.979 54.3674 161.979 54.353Z" fill="#263238"/>
<path d="M161.26 52.2729C161.712 51.9124 162.11 51.4898 162.444 51.0177C162.759 50.5515 163.053 50.0638 163.34 49.5832C163.34 49.5832 163.419 49.5832 163.405 49.5832C163.211 50.1384 162.951 50.6682 162.63 51.1612C162.47 51.3955 162.285 51.6119 162.078 51.8067C161.841 52.0044 161.581 52.173 161.303 52.3088C161.26 52.3518 161.26 52.3016 161.26 52.2729Z" fill="#263238"/>
<path d="M160.496 50.2791C160.719 50.1345 160.914 49.9496 161.07 49.734C161.256 49.5045 161.443 49.2678 161.615 49.0168C161.787 48.7657 161.959 48.5649 162.131 48.2995C162.315 48.077 162.45 47.8179 162.526 47.5392C162.526 47.5297 162.53 47.5206 162.536 47.5139C162.543 47.5072 162.552 47.5034 162.562 47.5034C162.571 47.5034 162.58 47.5072 162.587 47.5139C162.594 47.5206 162.597 47.5297 162.597 47.5392C162.567 47.8251 162.477 48.1013 162.332 48.3497C162.191 48.6355 162.023 48.9069 161.83 49.1602C161.643 49.4124 161.439 49.652 161.22 49.8775C161.034 50.0975 160.783 50.2531 160.503 50.3222C160.474 50.3796 160.439 50.3078 160.496 50.2791Z" fill="#263238"/>
<path d="M156.285 44.9425C156.495 44.6917 156.717 44.4523 156.952 44.2253C157.196 43.9922 157.453 43.7719 157.72 43.5654C158.233 43.1544 158.791 42.8031 159.384 42.5182C159.384 42.5182 159.455 42.5182 159.427 42.5684C158.401 43.3933 157.347 44.1751 156.335 45.0071L156.285 44.9425Z" fill="#263238"/>
<path d="M155.063 43.1066C155.276 42.8602 155.517 42.6388 155.78 42.4467C156.353 42.0651 156.967 41.7476 157.609 41.4999C157.652 41.4999 157.681 41.5358 157.609 41.5573C157.05 41.9088 156.49 42.2746 155.952 42.6188C155.686 42.803 155.43 43.0017 155.185 43.2142C154.941 43.4293 154.747 43.6947 154.518 43.9314H154.475C154.613 43.6194 154.813 43.3388 155.063 43.1066Z" fill="#263238"/>
<path d="M153.375 42.2314C153.58 41.99 153.808 41.7691 154.056 41.5715C154.525 41.2004 155.054 40.9118 155.62 40.718C155.62 40.718 155.684 40.761 155.62 40.7826C155.097 41.0738 154.6 41.4098 154.135 41.7867C153.906 41.9732 153.683 42.1812 153.461 42.3748C153.253 42.5956 153.033 42.804 152.801 42.9988C152.758 42.9988 152.801 42.9988 152.801 42.9988C152.964 42.723 153.156 42.4657 153.375 42.2314Z" fill="#263238"/>
<path d="M152.102 41.1409C152.331 40.9688 152.568 40.811 152.819 40.646C153.036 40.48 153.278 40.3493 153.536 40.2587C153.579 40.2587 153.593 40.3018 153.536 40.3233C153.091 40.6532 152.661 40.9903 152.223 41.3346C151.845 41.6732 151.504 42.0506 151.205 42.4607C151.162 42.4607 151.205 42.4607 151.205 42.4607C151.367 41.9417 151.679 41.4825 152.102 41.1409Z" fill="#263238"/>
<path d="M150.539 40.7539C150.959 40.3862 151.446 40.1036 151.973 39.9219C152.009 39.9219 152.038 39.9721 151.973 39.9864C151.494 40.2264 151.053 40.5384 150.668 40.9117C150.276 41.2789 149.925 41.6878 149.621 42.131C149.621 42.131 149.563 42.131 149.578 42.131C149.785 41.6024 150.114 41.1304 150.539 40.7539Z" fill="#263238"/>
<path d="M148.44 41.6361C148.498 41.5269 148.563 41.4215 148.634 41.3205C148.775 41.1185 148.939 40.9332 149.122 40.7683C149.497 40.4315 149.906 40.1335 150.341 39.8789C150.377 39.8789 150.413 39.9219 150.377 39.9434C149.958 40.198 149.572 40.5041 149.229 40.8543C149.06 41.0242 148.905 41.2064 148.763 41.3994C148.691 41.4927 148.627 41.5931 148.562 41.6935C148.509 41.7956 148.449 41.8938 148.383 41.9876C148.383 41.9876 148.318 41.9876 148.326 41.9876C148.344 41.8648 148.382 41.7459 148.44 41.6361Z" fill="#263238"/>
<path d="M147.17 41.7152C147.299 41.5502 147.428 41.3996 147.571 41.249C147.713 41.1056 147.864 40.9715 148.023 40.8473L148.511 40.46C148.511 40.4241 148.597 40.46 148.554 40.5102C148.391 40.6424 148.237 40.7862 148.095 40.9405L147.686 41.3709C147.55 41.5143 147.414 41.6506 147.284 41.8012C147.156 41.9562 147.019 42.1047 146.876 42.2459L146.833 42.2101C146.926 42.0328 147.039 41.8667 147.17 41.7152Z" fill="#263238"/>
<path d="M165.469 74.9951C169.399 86.7723 174.649 115.025 169.284 119.565C162.054 125.69 142.029 130.89 135.997 130.517C133.4 130.359 130.202 112.952 132.927 112.371C136.191 111.654 155.377 104.904 155.649 103.929C155.922 102.953 156.209 90.4302 157.93 80.0302C159.917 67.9732 163.31 68.5255 165.469 74.9951Z" fill="#D3766A"/>
<path d="M156.002 92.7972L173.567 96.6345C173.567 96.6345 168.346 77.5629 165.226 72.3915C161.719 66.5675 159.488 69.6373 157.896 75.8989C156.303 82.1604 156.002 92.7972 156.002 92.7972Z" fill="#FFC727"/>
<path opacity="0.1" d="M156.002 92.7972L173.567 96.6345C173.567 96.6345 168.346 77.5629 165.226 72.3915C161.719 66.5675 159.488 69.6373 157.896 75.8989C156.303 82.1604 156.002 92.7972 156.002 92.7972Z" fill="#030402"/>
<path d="M157.095 89.9142C157.727 89.9572 163.206 91.1048 164.397 91.3845C165.588 91.6643 170.443 92.7401 171.641 93.1275C171.653 93.1275 171.664 93.132 171.672 93.1401C171.68 93.1481 171.684 93.1591 171.684 93.1705C171.684 93.1819 171.68 93.1929 171.672 93.2009C171.664 93.209 171.653 93.2135 171.641 93.2135C170.393 93.0629 165.487 91.987 164.275 91.7288C163.063 91.4706 157.662 90.2154 157.103 89.9931C157.094 89.9905 157.087 89.9856 157.082 89.979C157.077 89.9724 157.074 89.9644 157.073 89.956C157.072 89.9476 157.074 89.9391 157.078 89.9317C157.082 89.9243 157.088 89.9182 157.095 89.9142Z" fill="#263238"/>
<path d="M138.024 130.481C136.862 131.034 124.188 132.906 120.451 132.454C116.485 132.063 112.609 131.029 108.975 129.391C103.237 126.788 99.1488 124.7 98.3168 122.9C97.3485 120.806 99.5218 119.708 108.523 123.029C114.462 125.224 117.13 123.524 119.139 121.674C123.944 117.122 129.786 113.808 136.159 112.019C136.159 112.019 140.247 129.42 138.024 130.481Z" fill="#D3766A"/>
<path d="M118.124 122.549C120.218 120.698 109.689 122.606 107.451 120.347C105.214 118.087 108.169 116.76 111.195 116.431C121.653 115.347 126.186 110.822 133.373 112.335C140.559 113.848 118.124 122.549 118.124 122.549Z" fill="#D3766A"/>
<path d="M163.88 263H232.714V259.708H163.88V263Z" fill="white"/>
<path d="M196.652 0L196.652 259.708H199.944V0H196.652Z" fill="white"/>
<path d="M198.304 7.88258H174.893C169.571 7.88258 164.191 2.61798 163.969 2.39563L164.471 1.88639C164.521 1.9366 169.872 7.16533 174.893 7.16533H198.275L198.304 7.88258Z" fill="#263238"/>
<path d="M167.838 160.326C157.797 160.326 153.551 146.404 150.696 136.951C150.015 134.389 149.137 131.883 148.071 129.456C144.908 123.438 140.504 116.416 134.443 115.556L134.544 114.838C140.92 115.749 145.453 122.95 148.695 129.126C149.791 131.589 150.686 134.136 151.37 136.743C154.39 146.727 158.952 161.847 170.299 159.329C179.989 157.177 182.348 139.139 176.933 108.462C175.183 98.564 173.404 76.523 173.404 64.7816V42.8267H174.121V64.7816C174.121 76.4943 175.9 98.4923 177.636 108.34C180.821 126.357 184.091 157.041 170.464 160.032C169.602 160.225 168.721 160.323 167.838 160.326Z" fill="#EBEBEB"/>
<path d="M167.852 160.147C157.896 160.147 153.707 146.304 150.867 136.901C149.906 133.731 149.081 130.991 148.228 129.37C145.043 123.316 140.603 116.244 134.478 115.376L134.528 115.018C140.819 115.914 145.287 123.072 148.543 129.205C149.411 130.854 150.243 133.609 151.204 136.793C154.245 146.835 158.843 162.026 170.34 159.501C180.145 157.35 182.534 139.218 177.118 108.433C175.368 98.5425 173.59 76.5158 173.59 64.7816V42.8267H173.948V64.7816C173.948 76.5015 175.727 98.4922 177.47 108.369C182.942 139.375 180.439 157.665 170.419 159.853C169.577 160.045 168.716 160.143 167.852 160.147Z" fill="#C62C2C"/>
<path d="M163.775 41.2993H183.772V14.9261L163.775 14.9261V41.2993Z" fill="#222222"/>
<path d="M165.677 39.1974H181.872V17.2712L165.677 17.2712V39.1974Z" fill="#EBEBEB"/>
<path d="M165.676 39.1975H181.871V27.1118C180.326 27.8016 178.669 28.205 176.979 28.3025C173.687 28.3025 171.801 27.2266 170.101 27.1118C168.584 26.9818 167.059 27.2488 165.676 27.8865V39.1975Z" fill="#C62C2C"/>
<path d="M168.115 14.926H179.433L178.715 11.9997H168.832L168.115 14.926ZM173.236 13.4916C173.236 13.3489 173.292 13.2121 173.393 13.1112C173.494 13.0103 173.631 12.9536 173.774 12.9536C173.916 12.9536 174.053 13.0103 174.154 13.1112C174.255 13.2121 174.312 13.3489 174.312 13.4916C174.312 13.6342 174.255 13.771 174.154 13.8719C174.053 13.9728 173.916 14.0295 173.774 14.0295C173.631 14.0295 173.494 13.9728 173.393 13.8719C173.292 13.771 173.236 13.6342 173.236 13.4916Z" fill="#DBDBDB"/>
<path d="M172.872 44.3546H174.665V41.292H172.872V44.3546Z" fill="#DBDBDB"/>
<path d="M129.745 115.075C129.745 116.008 131.524 116.768 133.726 116.768C135.928 116.768 137.714 116.008 137.714 115.075C137.714 114.143 135.928 113.382 133.726 113.382C131.524 113.382 129.745 114.114 129.745 115.075Z" fill="white"/>
<path d="M176.853 22.8082V24.1566H174.443V26.5594H173.095V24.1566H170.692V22.8082H173.095V20.4054H174.443V22.8082H176.853Z" fill="#C62C2C"/>
<path d="M174.138 7.30149H173.421V13.2905H174.138V7.30149Z" fill="#263238"/>
<defs>
<filter id="filter0_d_1_914" x="118.706" y="68.7624" width="56.0938" height="70.3813" filterUnits="userSpaceOnUse" color-interpolation-filters="sRGB">
<feFlood flood-opacity="0" result="BackgroundImageFix"/>
<feColorMatrix in="SourceAlpha" type="matrix" values="0 0 0 0 0 0 0 0 0 0 0 0 0 0 0 0 0 0 127 0" result="hardAlpha"/>
<feOffset dy="4"/>
<feGaussianBlur stdDeviation="2"/>
<feComposite in2="hardAlpha" operator="out"/>
<feColorMatrix type="matrix" values="0 0 0 0 0 0 0 0 0 0 0 0 0 0 0 0 0 0 0.25 0"/>
<feBlend mode="normal" in2="BackgroundImageFix" result="effect1_dropShadow_1_914"/>
<feBlend mode="normal" in="SourceGraphic" in2="effect1_dropShadow_1_914" result="shape"/>
</filter>
</defs>
</svg>
