<svg width="13" height="18" viewBox="0 0 13 18" fill="none" xmlns="http://www.w3.org/2000/svg">
<path d="M9.81385 9.41928C11.0848 8.45514 11.9046 6.95186 11.9046 5.26488C11.9046 2.36183 9.47987 0 6.49987 0C3.51986 0 1.09543 2.36183 1.09543 5.26488C1.09543 6.95186 1.9152 8.45514 3.18588 9.41928C1.39239 10.4587 0 12.4217 0 14.8694V17.0037C0 17.554 0.457827 18 1.02272 18H11.9773C12.5419 18 13 17.554 13 17.0037V14.8694C13 12.4222 11.6079 10.4589 9.81385 9.41928ZM3.14087 5.26488C3.14087 3.46062 4.64778 1.99262 6.50013 1.99262C8.35222 1.99262 9.85913 3.46062 9.85913 5.26488C9.85913 7.06939 8.35222 8.53739 6.50013 8.53739C4.64778 8.53739 3.14087 7.06939 3.14087 5.26488ZM10.9546 16.0074H2.04544V14.8694C2.04544 12.4726 4.03602 10.53 6.49987 10.53C8.96025 10.53 10.9543 12.4692 10.9543 14.8694V16.0074H10.9546Z" fill="#C62C2C"/>
</svg>
