<svg width="21" height="25" viewBox="0 0 21 25" fill="none" xmlns="http://www.w3.org/2000/svg">
<path d="M16.8421 0H4.15785C1.86138 0 0 1.92164 0 4.30017V23.9777C0 24.8126 0.925681 25.3008 1.57895 24.7942L5.5438 21.7188H16.8421C19.1386 21.7188 21 19.7972 21 17.4186V4.30017C21 1.9251 19.142 0 16.8421 0V0ZM19.0263 17.4186C19.0263 18.6673 18.05 19.6776 16.8421 19.6776H5.21486C5.0013 19.6776 4.79365 19.7493 4.62275 19.8817L1.97369 21.9365V4.30017C1.97369 3.0515 2.95 2.04125 4.15785 2.04125H16.8421C18.0495 2.04125 19.0263 3.05097 19.0263 4.30017V17.4186Z" fill="#C62C2C"/>
</svg>
