<svg width="34" height="34" viewBox="0 0 34 34" fill="none" xmlns="http://www.w3.org/2000/svg">
<g clip-path="url(#clip0_1_1040)">
<path d="M24.4362 34C23.3386 34 22.2504 33.806 21.1863 33.4194C16.4984 31.7164 12.1469 28.9427 8.60231 25.3982C5.05769 21.8536 2.28401 17.5021 0.581092 12.8142C0.0338603 11.3076 -0.127633 9.75242 0.10126 8.19167C0.315677 6.72973 0.881966 5.31049 1.73897 4.08734C2.59976 2.8588 3.74734 1.83699 5.05762 1.13238C6.45488 0.381023 7.97997 0 9.59066 0C10.0916 0 10.5246 0.350013 10.6295 0.839805L12.2972 8.62223C12.3727 8.97464 12.2644 9.34132 12.0096 9.59617L9.16003 12.4457C11.8482 17.7902 16.2101 22.1522 21.5546 24.8403L24.4042 21.9907C24.6589 21.7359 25.0257 21.6278 25.3781 21.7031L33.1605 23.3708C33.6504 23.4758 34.0003 23.9087 34.0003 24.4097C34.0003 26.0204 33.6193 27.5455 32.8679 28.9428C32.1633 30.253 31.1415 31.4006 29.9129 32.2614C28.6898 33.1184 27.2706 33.6847 25.8086 33.8991C25.3505 33.9664 24.8924 33.9999 24.4362 34ZM8.74175 2.1714C6.61717 2.40593 4.73145 3.51952 3.47921 5.30677C2.07105 7.31647 1.74269 9.78835 2.57831 12.0887C5.85227 21.1014 12.8991 28.1482 21.9118 31.4222C24.212 32.2578 26.684 31.9295 28.6937 30.5213C30.4809 29.269 31.5945 27.3833 31.8291 25.2587L25.4981 23.9021L22.5221 26.878C22.2055 27.1947 21.7243 27.2788 21.3191 27.0884C14.9982 24.1188 9.88164 19.0023 6.91207 12.6813C6.72169 12.2761 6.80576 11.7949 7.12244 11.4783L10.0984 8.50237L8.74175 2.1714Z" fill="#C62C2C"/>
<path d="M32.9385 18.0618C32.3518 18.0618 31.8761 17.586 31.8761 16.9993C31.8761 8.79754 25.2034 2.12491 17.0017 2.12491C16.4149 2.12491 15.9392 1.6492 15.9392 1.06246C15.9392 0.475715 16.4149 0 17.0017 0C21.5424 0 25.8113 1.76819 29.022 4.97894C32.2328 8.18968 34.001 12.4586 34.001 16.9993C34.001 17.586 33.5253 18.0618 32.9385 18.0618Z" fill="#C62C2C"/>
<path d="M28.6887 18.0618C28.1019 18.0618 27.6262 17.5861 27.6262 16.9994C27.6262 11.141 22.86 6.37479 17.0017 6.37479C16.4149 6.37479 15.9392 5.89908 15.9392 5.31233C15.9392 4.72559 16.4149 4.24988 17.0017 4.24988C24.0317 4.24988 29.7511 9.96928 29.7511 16.9994C29.7511 17.5861 29.2755 18.0618 28.6887 18.0618Z" fill="#C62C2C"/>
<path d="M24.4389 18.0617C23.8521 18.0617 23.3764 17.586 23.3764 16.9993C23.3764 13.4842 20.5167 10.6245 17.0017 10.6245C16.4149 10.6245 15.9392 10.1488 15.9392 9.56209C15.9392 8.97535 16.4149 8.49963 17.0017 8.49963C21.6884 8.49963 25.5013 12.3125 25.5013 16.9993C25.5013 17.586 25.0257 18.0617 24.4389 18.0617Z" fill="#C62C2C"/>
</g>
<defs>
<clipPath id="clip0_1_1040">
<rect width="34" height="34" fill="white"/>
</clipPath>
</defs>
</svg>
