<svg width="34" height="44" viewBox="0 0 34 44" fill="none" xmlns="http://www.w3.org/2000/svg">
<path d="M18.8238 33.3059L18.8102 29.0132L23.1029 28.9996C24.0513 28.9966 24.8176 28.2255 24.8146 27.277C24.8116 26.3286 24.0404 25.5624 23.092 25.5654L18.7993 25.579L18.7857 21.2863C18.7827 20.3378 18.0116 19.5716 17.0631 19.5746C16.1147 19.5776 15.3485 20.3487 15.3515 21.2972L15.3651 25.5899L11.0724 25.6035C10.1239 25.6065 9.3577 26.3776 9.3607 27.326C9.36371 28.2745 10.1348 29.0407 11.0832 29.0377L15.376 29.0241L15.3896 33.3168C15.3926 34.2652 16.1637 35.0315 17.1121 35.0285C18.0606 35.0255 18.8268 34.2544 18.8238 33.3059ZM7.92428 10.079C11.7381 4.87498 15.4922 0.73563 15.6503 0.561741C15.9745 0.205217 16.4336 0.00153073 16.9152 3.5992e-06C17.3968 -0.00152353 17.8572 0.199247 18.1837 0.553707C18.3428 0.726591 22.1231 4.84238 25.9699 10.0218C31.2854 17.1792 33.9866 22.6875 33.9983 26.3944L33.9998 26.8639C34.0296 36.2596 26.4282 43.9279 17.0546 43.9576C14.1426 43.9669 11.2661 43.2248 8.73623 41.8115C7.90806 41.3489 7.61196 40.3028 8.0745 39.475C8.53704 38.6472 9.5828 38.3507 10.411 38.8133C12.4268 39.9394 14.7203 40.5308 17.0437 40.5234C24.5235 40.4997 30.5894 34.377 30.5656 26.8745L30.5641 26.4053C30.555 23.5352 27.9505 18.4521 23.2301 12.0927C20.8074 8.82844 18.3611 5.94427 16.9285 4.30683C15.5111 5.94828 13.0935 8.83546 10.6942 12.1093C6.00349 18.5097 3.42491 23.6175 3.43402 26.4913L3.43551 26.9608C3.44255 29.1803 3.96472 31.2945 4.98742 33.2438C5.42808 34.0835 5.10438 35.1215 4.26466 35.5622C3.42528 36.0025 2.38694 35.6792 1.94628 34.8395C0.682667 32.4304 0.0100009 29.71 0.00131671 26.9714L-0.000171075 26.5022C-0.0119255 22.7954 2.65421 17.27 7.92428 10.079Z" fill="#C62C2C"/>
</svg>
