<svg width="29" height="44" viewBox="0 0 29 44" fill="none" xmlns="http://www.w3.org/2000/svg">
<path fill-rule="evenodd" clip-rule="evenodd" d="M4.8337 15.3608C4.79675 9.00756 9.26043 4.86357 14.4392 4.83345C19.618 4.80333 24.1295 8.89513 24.1665 15.2484C24.1715 16.1063 23.8735 17.6571 23.0747 19.9213C22.3091 22.0863 21.219 24.5455 19.9626 27.0831C18.2475 30.5393 16.3004 33.9919 14.6252 36.8219C12.9172 34.0116 10.9301 30.5818 9.17494 27.1458C7.88909 24.6231 6.77046 22.1767 5.97975 20.0207C5.15463 17.7659 4.83869 16.2187 4.8337 15.3608ZM14.4111 0.000253613C6.40248 0.0468279 -0.0510179 6.52966 0.000503273 15.3889C0.0401631 22.2085 8.71283 36.6123 12.7054 42.8869C13.6322 44.3412 15.7056 44.3291 16.6154 42.8642C20.5348 36.5435 29.0393 22.0399 28.9997 15.2203C28.9482 6.36102 22.4197 -0.0463207 14.4111 0.000253613ZM14.5235 19.333C17.1939 19.3175 19.3441 17.1421 19.3286 14.4717C19.3131 11.8014 17.1376 9.65111 14.4673 9.66664C11.797 9.68217 9.64668 11.8576 9.66221 14.5279C9.67774 17.1983 11.8532 19.3486 14.5235 19.333Z" fill="#C62C2C"/>
</svg>
