<svg width="48" height="46" viewBox="0 0 48 46" fill="none" xmlns="http://www.w3.org/2000/svg">
<path d="M47.802 22.9565C47.8263 35.6288 37.087 45.9911 23.9183 46C18.2308 46.0039 13.0065 44.096 8.90099 40.9074C7.83345 40.0783 7.75365 38.5387 8.72376 37.6052L9.80962 36.5602C10.6393 35.7618 11.9639 35.6745 12.8831 36.3762C15.9078 38.686 19.7357 40.0646 23.901 40.0646C33.7028 40.0646 41.634 32.4309 41.634 23C41.634 13.5677 33.7012 5.93549 23.901 5.93549C19.1965 5.93549 14.9238 7.69472 11.7512 10.5663L16.6426 15.2733C17.6141 16.2082 16.926 17.8065 15.5523 17.8065H1.542C0.690333 17.8065 0 17.1422 0 16.3226V2.84041C0 1.51847 1.66092 0.856381 2.63238 1.79113L7.39061 6.36999C11.6815 2.42391 17.4971 0 23.901 0C37.086 0 47.7776 10.274 47.802 22.9565ZM30.3666 30.2631L31.3133 29.0918C32.0976 28.1214 31.9159 26.723 30.9075 25.9683L26.985 23.0324V13.3549C26.985 12.1256 25.9494 11.1291 24.672 11.1291H23.13C21.8525 11.1291 20.817 12.1256 20.817 13.3549V25.9354L27.1208 30.6536C28.1291 31.4082 29.5823 31.2335 30.3666 30.2631Z" fill="#C62C2C"/>
</svg>
