<svg width="44" height="44" viewBox="0 0 44 44" fill="none" xmlns="http://www.w3.org/2000/svg">
<path d="M11.1856 9.49459L12.2227 10.5413L13.2887 9.52408L15.5392 7.37673C15.9028 7.05152 16.4435 6.95296 16.907 7.13733C17.3718 7.34798 17.6472 7.7912 17.6436 8.26113L17.5809 16.428C17.5757 17.1067 17.0352 17.6448 16.3319 17.6394L7.80705 17.5739C7.27693 17.5699 6.83898 17.2629 6.66112 16.8162C6.48106 16.3573 6.5877 15.8324 6.9648 15.4631L9.30591 13.257L10.4275 12.2002L9.34181 11.1065L1.85356 3.56279C1.3795 3.08471 1.3852 2.32612 1.86635 1.85525C2.35641 1.37831 3.14708 1.38442 3.62971 1.8689C3.63002 1.86921 3.63033 1.86952 3.63064 1.86983L11.1856 9.49459ZM27.8911 35.3695L27.8911 35.3695L27.8828 35.3777C27.5431 35.7145 27.0162 35.8263 26.5304 35.6357C26.0481 35.4186 25.7736 34.969 25.777 34.514L25.8305 27.5447C25.8356 26.8845 26.3879 26.3281 27.0796 26.3334L34.0831 26.3871C34.5965 26.3911 35.0358 26.6912 35.2213 27.1527L35.2239 27.1593L35.2266 27.1659C35.4048 27.5974 35.3094 28.1204 34.9426 28.4865C34.9416 28.4875 34.9406 28.4884 34.9396 28.4894L33.3726 30.0221L32.2909 31.0801L33.3572 32.1536L41.5588 40.4112L41.5593 40.4117C42.0344 40.8895 42.0284 41.6732 41.546 42.1437C41.0552 42.6225 40.2645 42.6147 39.7853 42.1322C39.7851 42.132 39.7849 42.1318 39.7847 42.1316L31.5843 33.8476L30.5352 32.7879L29.4682 33.8296L27.8911 35.3695Z" stroke="#C62C2C" stroke-width="3"/>
</svg>
