<svg width="92" height="103" viewBox="0 0 92 103" fill="none" xmlns="http://www.w3.org/2000/svg">
<path d="M53.6667 27.3594V0H5.75C2.56354 0 0 2.15254 0 4.82812V98.1719C0 100.847 2.56354 103 5.75 103H86.25C89.4365 103 92 100.847 92 98.1719V32.1875H59.4167C56.2542 32.1875 53.6667 30.0148 53.6667 27.3594ZM69.2827 70.8145H53.6667V86.9083C53.6667 88.6866 51.9512 90.127 49.8333 90.127H42.1667C40.0487 90.127 38.3333 88.6866 38.3333 86.9083V70.8145H22.7173C19.296 70.8145 17.5878 67.3363 20.0172 65.3104L43.1178 46.0583C44.711 44.7286 47.2842 44.7286 48.8774 46.0583L71.978 65.3104C74.4098 67.3363 72.704 70.8145 69.2827 70.8145ZM90.3229 21.123L66.8677 1.4082C65.7896 0.50293 64.3281 0 62.7948 0H61.3333V25.75H92V24.5229C92 23.2555 91.401 22.0283 90.3229 21.123Z" fill="#C62C2C"/>
</svg>
