<svg width="6" height="8" viewBox="0 0 6 8" fill="none" xmlns="http://www.w3.org/2000/svg">
<path d="M2.99904 0C1.34318 0 0 1.55955 0 3.49045V3.49169C0 4.01582 0.365162 4.44057 0.81572 4.44057C1.26628 4.44057 1.63144 4.01483 1.63144 3.49045C1.63144 2.61277 2.24132 1.89876 3.00011 1.89876C3.75465 1.89876 4.36856 2.61326 4.36856 3.49169C4.36856 4.36986 3.75465 5.08437 3.00011 5.08437C2.54955 5.08437 2.18439 5.50961 2.18439 6.03375V7.05062C2.18439 7.575 2.54955 8 3.00011 8C3.45045 8 3.81583 7.575 3.81583 7.05062V6.85209C5.07488 6.43748 6 5.08783 6 3.49169C6 1.56623 4.65427 0 2.99904 0Z" fill="#C62C2C"/>
</svg>
