<svg width="98" height="216" viewBox="0 0 98 216" fill="none" xmlns="http://www.w3.org/2000/svg">
<path d="M31.8354 66.4214L30.6091 71.0343L15.2282 73.7671V79.8557C15.2282 79.8557 35.5907 81.5445 37.5716 80.5771C39.5524 79.6097 42.6003 69.0667 42.6003 69.0667L31.8354 66.4214Z" fill="#FFBE9D"/>
<path d="M30.915 71.2694C30.8678 71.3459 31.7757 71.816 32.6128 72.685C33.45 73.554 33.8921 74.4175 33.9805 74.3847C33.7637 73.6813 33.374 73.034 32.8422 72.4935C32.3103 71.953 31.6507 71.534 30.915 71.2694Z" fill="#EB996E"/>
<path d="M31.8354 66.4214L30.6091 71.0343L15.2282 73.7671V79.8557C15.2282 79.8557 35.5907 81.5445 37.5716 80.5771C39.5524 79.6097 42.6003 69.0667 42.6003 69.0667L31.8354 66.4214Z" fill="#9B6B63"/>
<path d="M53.7582 36.4651L58.0559 35.6016L73.4015 36.7712L76.6735 38.0774L62.6661 53.277L53.7582 36.4651Z" fill="#9B6B63"/>
<path d="M48.104 20.5494C48.5993 17.3284 49.0925 14.1093 49.5838 10.8919L60.6788 9.14839L63.2256 35.2407L47.3789 36.3338C46.8153 35.5211 46.5372 34.5664 46.583 33.6011C46.7717 29.9337 47.8918 21.9431 48.104 20.5494Z" fill="#263238"/>
<path d="M78.8466 13.8433C78.618 11.7 77.9303 9.62044 76.8238 7.72656C75.7174 5.83268 74.2144 4.16254 72.403 2.81394C69.1311 0.474706 65.4229 -0.159295 61.2962 0.0319979C59.2682 0.130377 56.9808 1.01579 55.218 1.95586C52.801 3.25118 51.7987 5.84183 50.6492 8.19747C48.3441 12.9142 48.6978 19.276 50.3013 21.0305L79.2593 36.8804C82.9969 35.0386 82.5076 28.8899 81.2283 25.1515C80.0745 21.455 79.2775 17.6707 78.8466 13.8433Z" fill="#263238"/>
<path d="M71.881 6.3829L58.5103 2.83579C54.2126 2.28924 51.1765 7.13167 50.7697 11.1379C50.3158 15.5868 49.9562 21.0414 50.4101 24.3808C51.3298 31.1089 56.836 32.12 56.836 32.12C56.836 32.12 56.836 32.2184 56.836 34.2078L56.7358 37.0991C58.3688 42.5646 69.7999 41.6682 71.0143 37.8041L74.0799 8.83691C74.1136 8.24642 73.906 7.66585 73.4984 7.211C73.0908 6.75615 72.5133 6.46046 71.881 6.3829Z" fill="#9B6B63"/>
<path d="M52.4389 17.6254C52.4291 17.8495 52.5144 18.0681 52.6763 18.2346C52.8383 18.4011 53.0641 18.5022 53.3055 18.5163C53.4228 18.5292 53.5416 18.5199 53.655 18.4892C53.7684 18.4585 53.8739 18.4069 53.9652 18.3375C54.0566 18.2681 54.1319 18.1824 54.1867 18.0854C54.2415 17.9884 54.2746 17.8821 54.2841 17.773C54.294 17.5493 54.2097 17.3308 54.0491 17.1636C53.8886 16.9963 53.6642 16.8935 53.4234 16.8767C53.3055 16.8646 53.1861 16.8745 53.0724 16.9058C52.9587 16.9371 52.8528 16.9892 52.7611 17.0589C52.6694 17.1287 52.5936 17.2147 52.5383 17.312C52.483 17.4093 52.4491 17.5159 52.4389 17.6254Z" fill="#263238"/>
<path d="M52.0369 15.0183C52.1489 15.1331 52.8623 14.674 53.8586 14.7013C54.8549 14.7286 55.5683 15.2151 55.6803 15.1058C55.7923 14.9965 55.6272 14.8543 55.3147 14.6303C54.8949 14.3399 54.3881 14.1776 53.8645 14.1657C53.3448 14.1524 52.8336 14.29 52.4024 14.5592C52.09 14.756 51.978 14.9637 52.0369 15.0183Z" fill="#263238"/>
<path d="M61.7489 17.5327C61.739 17.7564 61.8233 17.9749 61.9839 18.1421C62.1444 18.3094 62.3688 18.4122 62.6096 18.4291C62.7272 18.4411 62.8462 18.4312 62.9596 18.3998C63.073 18.3685 63.1784 18.3163 63.2697 18.2465C63.3609 18.1767 63.4362 18.0906 63.4909 17.9933C63.5456 17.8961 63.5787 17.7896 63.5882 17.6803C63.5995 17.4568 63.5156 17.2381 63.3546 17.0715C63.1936 16.9048 62.9684 16.8035 62.7275 16.7894C62.6104 16.7773 62.4918 16.7871 62.3788 16.8181C62.2658 16.8491 62.1606 16.9008 62.0694 16.97C61.9782 17.0393 61.9029 17.1247 61.8478 17.2214C61.7928 17.318 61.7592 17.4239 61.7489 17.5327Z" fill="#263238"/>
<path d="M61.7564 15.0513C61.8684 15.1661 62.5876 14.707 63.5839 14.7343C64.5802 14.7616 65.2936 15.2809 65.4056 15.1388C65.5176 14.9967 65.3525 14.8873 65.0401 14.6633C64.6184 14.3722 64.1095 14.2098 63.5839 14.1987C63.066 14.185 62.5566 14.3227 62.1278 14.5922C61.8153 14.7999 61.7033 14.9967 61.7564 15.0513Z" fill="#263238"/>
<path d="M57.9866 21.5225C57.468 21.3569 56.9295 21.2504 56.3831 21.2055C56.1296 21.1782 55.8879 21.1235 55.8525 20.9596C55.8368 20.7157 55.9027 20.4733 56.0412 20.2654L56.8547 18.4946C57.9867 15.9641 58.812 13.8872 58.7059 13.8435C58.5998 13.7998 57.5858 15.8165 56.4597 18.3416C56.1827 18.9647 55.9233 19.5604 55.6757 20.1288C55.5045 20.4089 55.4461 20.7362 55.5106 21.0525C55.5459 21.1359 55.6007 21.211 55.671 21.2724C55.7413 21.3338 55.8255 21.38 55.9174 21.4077C56.0575 21.4452 56.202 21.4672 56.3477 21.4733C56.8893 21.5571 57.4404 21.5736 57.9866 21.5225Z" fill="#263238"/>
<path d="M56.8334 32.1201C60.2384 32.4738 63.6782 31.8459 66.6845 30.322C66.6845 30.322 64.0257 34.8693 56.8216 34.0331L56.8334 32.1201Z" fill="#484848"/>
<path d="M61.2612 23.3533C61.1472 23.1794 60.9884 23.0344 60.7991 22.9314C60.6097 22.8283 60.3958 22.7705 60.1764 22.763C59.869 22.7326 59.5584 22.7794 59.2773 22.8987C58.9962 23.0179 58.7549 23.2052 58.5788 23.4407C58.4513 23.6599 58.4176 23.9156 58.4845 24.1567C58.5375 24.277 58.4845 24.2168 58.5965 24.3043C58.9272 24.6405 59.3424 24.8958 59.805 25.0476C60.0554 25.1137 60.3215 25.1083 60.5685 25.0323C60.8156 24.9562 61.0323 24.813 61.1904 24.6213C61.3267 24.4364 61.4055 24.2202 61.418 23.9965C61.4304 23.7728 61.3762 23.5503 61.2612 23.3533Z" fill="#484848"/>
<path d="M61.0785 22.2876C60.9193 22.2876 60.878 23.2768 59.8994 23.9546C58.9208 24.6323 57.8007 24.5011 57.783 24.6268C57.783 24.6869 58.0365 24.829 58.5199 24.8564C59.155 24.888 59.7817 24.7098 60.2885 24.3535C60.7791 24.0153 61.1088 23.5137 61.2082 22.9544C61.2671 22.5335 61.1551 22.2821 61.0785 22.2876Z" fill="#263238"/>
<path d="M61.409 12.1325C61.4857 12.3894 62.4879 12.3566 63.6375 12.5807C64.787 12.8048 65.7067 13.1819 65.8836 12.9688C65.9602 12.8649 65.8187 12.619 65.465 12.3457C64.9888 12.0014 64.4311 11.7672 63.8379 11.6625C63.2531 11.5459 62.6466 11.5608 62.0693 11.7062C61.6212 11.8319 61.3795 12.0232 61.409 12.1325Z" fill="#263238"/>
<path d="M52.0792 12.9907C52.3092 13.1711 53.0284 12.8486 53.9422 12.7065C54.856 12.5644 55.6459 12.6081 55.7874 12.3677C55.8464 12.2474 55.6931 12.0616 55.3217 11.9086C54.8204 11.7377 54.2789 11.6942 53.7533 11.7826C53.2278 11.871 52.7373 12.0881 52.3327 12.4114C52.0498 12.6737 51.979 12.9033 52.0792 12.9907Z" fill="#263238"/>
<path d="M58.494 2.37108C58.0896 5.07908 58.4975 7.83805 59.6731 10.3453C59.9721 11.0552 60.4279 11.6994 61.0113 12.2363C61.3067 12.5011 61.6645 12.6987 62.0563 12.8135C62.4481 12.9283 62.8633 12.9571 63.2692 12.8976C62.0328 11.405 61.33 9.59172 61.2589 7.71088C62.1256 9.60741 63.0275 11.5367 64.4778 13.0944C65.9281 14.6521 68.0916 15.7889 70.3083 15.5921L70.1491 14.2203C70.4234 15.2268 71.0444 16.1229 71.9177 16.7727C72.3616 17.0854 72.9012 17.2592 73.4586 17.269C74.016 17.2789 74.5623 17.1242 75.0187 16.8273C74.2582 13.4825 76.4571 9.83696 75.0541 6.67243C74.0872 4.48623 71.623 3.17451 69.1587 2.46399C65.7043 1.47409 62.0289 1.34963 58.5058 2.10327" fill="#263238"/>
<path d="M58.7915 2.42588C58.7915 2.47495 58.7915 2.52402 58.7627 2.57309L58.7915 2.42588Z" fill="#263238"/>
<path d="M58.7635 2.57341L58.3214 2.40398C56.9595 1.75905 56.0634 1.0212 53.9529 2.7647C52.7296 3.85396 51.7465 5.15336 51.0583 6.59056C50.3273 7.87641 49.7935 9.25059 49.4724 10.6733C49.1608 12.3708 49.1151 14.1012 49.3368 15.8109C50.5631 15.0566 51.1821 13.7066 51.5712 12.3949C51.9603 11.0832 52.1607 9.7059 52.8976 8.51442C52.6266 9.62553 52.5569 10.7707 52.6913 11.903C52.7178 12.2161 52.8593 12.5113 53.0922 12.7393C53.2114 12.8487 53.3724 12.9101 53.5402 12.9101C53.708 12.9101 53.869 12.8487 53.9883 12.7393C53.5787 11.4234 53.5787 10.027 53.9883 8.71118C54.3905 7.40324 54.9336 6.13614 55.6095 4.92904C55.2904 7.19652 55.3921 9.49791 55.9102 11.7336C55.9531 12.061 56.0963 12.3701 56.3228 12.6245C56.5327 12.7742 56.7769 12.8773 57.0365 12.9256C57.2962 12.9739 57.5643 12.9663 57.8202 12.9032C58.3316 12.7756 58.8668 12.7532 59.3884 12.8376C58.1794 9.53217 57.9633 5.984 58.7635 2.57341Z" fill="#263238"/>
<path d="M68.2023 28.8079C69.3165 24.911 68.5914 14.9146 70.0063 11.0996L75.5774 11.7774L79.2561 36.8586L66.363 37.3177L68.2023 28.8079Z" fill="#263238"/>
<path d="M49.9742 192.155L50.5637 202.223C50.5637 202.223 39.7163 205.415 39.6278 207.284L60.7273 207.683L60.5268 191.964L49.9742 192.155Z" fill="#455A64"/>
<g opacity="0.6">
<path opacity="0.6" d="M57.0574 201.272C57.2584 201.33 57.4293 201.455 57.538 201.622C57.6466 201.789 57.6854 201.988 57.647 202.179C57.5902 202.366 57.4598 202.526 57.2817 202.627C57.1036 202.728 56.891 202.764 56.686 202.726C56.471 202.667 56.2868 202.538 56.1683 202.361C56.0498 202.185 56.0054 201.974 56.0434 201.77C56.1172 201.575 56.27 201.415 56.4693 201.323C56.6685 201.231 56.8986 201.215 57.1105 201.278" fill="white"/>
</g>
<g opacity="0.6">
<path opacity="0.6" d="M60.7121 207.688V206.109L40.326 206.377C40.1091 206.477 39.9227 206.626 39.7837 206.81C39.6447 206.995 39.5575 207.208 39.5301 207.431L60.7121 207.688Z" fill="white"/>
</g>
<path d="M50.2051 202.13C50.2051 202.228 50.7239 202.261 51.2368 202.562C51.7497 202.862 52.0268 203.256 52.1211 203.218C52.2154 203.179 52.0504 202.627 51.4255 202.277C50.8005 201.928 50.1816 202.042 50.2051 202.13Z" fill="#263238"/>
<path d="M48.01 203.015C48.01 203.108 48.4403 203.261 48.7941 203.66C49.1478 204.059 49.2598 204.486 49.3836 204.48C49.5074 204.475 49.5428 203.934 49.0829 203.447C48.6231 202.961 48.01 202.923 48.01 203.015Z" fill="#263238"/>
<path d="M46.8006 205.502C46.8949 205.502 47.0247 205.038 46.7535 204.519C46.4823 203.999 45.993 203.803 45.9517 203.885C45.9104 203.967 46.2111 204.24 46.4292 204.666C46.6474 205.093 46.6945 205.502 46.8006 205.502Z" fill="#263238"/>
<path d="M50.3503 199.824C50.3974 199.911 50.8691 199.769 51.4468 199.796C52.0245 199.824 52.4903 199.988 52.5433 199.906C52.5964 199.824 52.1484 199.49 51.4645 199.463C50.7806 199.436 50.2972 199.747 50.3503 199.824Z" fill="#263238"/>
<path d="M50.2731 197.79C50.6204 197.879 50.987 197.879 51.3343 197.79C51.9381 197.677 52.5138 197.46 53.0321 197.151C53.149 197.088 53.2544 197.009 53.3446 196.916C53.4124 196.848 53.4533 196.761 53.4608 196.668C53.4683 196.576 53.4419 196.484 53.3859 196.408C53.3322 196.343 53.2635 196.29 53.185 196.253C53.1064 196.216 53.02 196.196 52.9319 196.194C52.7982 196.196 52.6653 196.214 52.5369 196.249C52.3123 196.306 52.0934 196.381 51.8826 196.473C51.5275 196.626 51.2012 196.831 50.9157 197.08C50.4382 197.506 50.2731 197.867 50.3262 197.883C50.3792 197.9 50.6092 197.61 51.0985 197.255C51.3869 197.051 51.7019 196.882 52.0358 196.752C52.2265 196.675 52.4237 196.613 52.6254 196.566C52.8494 196.511 53.038 196.506 53.097 196.593C53.156 196.681 53.097 196.643 53.097 196.708C53.0283 196.773 52.951 196.83 52.8671 196.878C52.689 196.99 52.5039 197.092 52.3129 197.184C51.989 197.34 51.6494 197.466 51.2989 197.561C50.9508 197.611 50.6078 197.688 50.2731 197.79Z" fill="#263238"/>
<path d="M50.4183 197.927C50.6074 197.642 50.6979 197.31 50.6777 196.976C50.6918 196.606 50.6359 196.236 50.5126 195.883C50.4403 195.679 50.3475 195.481 50.2355 195.293C50.1758 195.164 50.0815 195.052 49.9618 194.967C49.8421 194.882 49.7009 194.827 49.5517 194.806C49.4573 194.81 49.3661 194.839 49.2888 194.889C49.2115 194.94 49.1513 195.009 49.1154 195.09C49.0605 195.205 49.0247 195.327 49.0093 195.451C48.9768 195.669 48.9768 195.889 49.0093 196.107C49.0756 196.473 49.2376 196.818 49.4809 197.113C49.9054 197.616 50.3357 197.719 50.3416 197.687C50.3475 197.654 50.0115 197.463 49.6873 196.982C49.5014 196.702 49.3827 196.389 49.3394 196.063C49.3148 195.882 49.3148 195.698 49.3394 195.517C49.3689 195.304 49.4514 195.134 49.534 195.156C49.6165 195.178 49.8229 195.309 49.9113 195.473C50.0196 195.647 50.1103 195.83 50.1825 196.02C50.3061 196.333 50.3816 196.66 50.4065 196.992C50.4596 197.55 50.3534 197.911 50.4183 197.927Z" fill="#263238"/>
<path d="M72.0209 191.062L72.4277 204.065L75.9649 214.258C76.0257 214.432 76.0472 214.615 76.0282 214.797C76.0092 214.978 75.95 215.154 75.8543 215.314C75.7586 215.473 75.6284 215.613 75.472 215.724C75.3155 215.834 75.1361 215.914 74.945 215.958C74.7223 216.009 74.4895 216.011 74.266 215.962C74.0425 215.914 73.8347 215.817 73.6598 215.679C71.4195 213.875 63.2014 207.224 63.225 206.273C63.2604 205.18 61.8219 192.609 61.8219 192.609L72.0209 191.062Z" fill="#455A64"/>
<g opacity="0.6">
<path opacity="0.6" d="M74.9318 215.958L63.1411 205.393L63.1705 205.94C63.1981 206.415 63.407 206.867 63.7601 207.213C64.7033 208.142 67.368 210.645 73.5817 215.674C73.7611 215.818 73.976 215.918 74.2074 215.967C74.4387 216.015 74.6794 216.011 74.9082 215.952L74.9318 215.958Z" fill="white"/>
</g>
<g opacity="0.6">
<path opacity="0.6" d="M65.7987 201.07C65.9784 201.178 66.1081 201.344 66.1626 201.536C66.2172 201.728 66.1925 201.932 66.0934 202.108C65.9829 202.278 65.806 202.402 65.5995 202.453C65.3931 202.505 65.173 202.482 64.9851 202.387C64.798 202.272 64.6632 202.096 64.6067 201.895C64.5501 201.693 64.5757 201.479 64.6786 201.294C64.8134 201.13 65.011 201.021 65.2304 200.988C65.4498 200.955 65.6744 201.002 65.8576 201.119" fill="white"/>
</g>
<path d="M71.4082 210.421C71.4849 210.454 71.7678 209.76 72.5873 209.356C73.0879 209.141 73.6281 209.016 74.179 208.989C74.179 208.957 74.0081 208.864 73.6779 208.836C73.2442 208.813 72.8125 208.906 72.434 209.104C72.0528 209.297 71.7412 209.59 71.5379 209.946C71.3846 210.235 71.3729 210.421 71.4082 210.421Z" fill="#263238"/>
<path d="M72.5001 212.132C73.2357 211.6 74.1375 211.302 75.0705 211.285C74.8483 211.17 74.5996 211.106 74.3452 211.098C74.0908 211.09 73.8381 211.139 73.6084 211.241C72.7948 211.514 72.4293 212.099 72.5001 212.132Z" fill="#263238"/>
<path d="M69.4233 208.301C69.9806 207.893 70.572 207.528 71.1919 207.208C71.8626 206.98 72.5502 206.797 73.2494 206.661C72.5082 206.516 71.7355 206.618 71.0681 206.951C70.3625 207.203 69.7785 207.682 69.4233 208.301Z" fill="#263238"/>
<path d="M68.9425 204.355C68.9838 204.431 69.7443 204.098 70.7465 204.016C71.7487 203.934 72.5622 204.12 72.5917 204.016C72.0256 203.711 71.3613 203.603 70.717 203.71C70.0622 203.725 69.4342 203.954 68.9425 204.355Z" fill="#263238"/>
<path d="M68.6928 200.545C69.2904 200.33 69.9175 200.194 70.5557 200.141C71.1988 200.174 71.8337 200.29 72.4422 200.485C72.4422 200.452 72.3008 200.299 71.9647 200.141C71.5247 199.942 71.0393 199.844 70.5498 199.856C70.0626 199.861 69.5836 199.974 69.1526 200.184C68.852 200.354 68.6928 200.518 68.6928 200.545Z" fill="#263238"/>
<path d="M70.5236 199.414C70.5639 199.252 70.5639 199.084 70.5236 198.922C70.4533 198.474 70.2847 198.044 70.0284 197.659C69.8719 197.359 69.6129 197.115 69.2915 196.965C69.1802 196.928 69.0593 196.923 68.9447 196.95C68.8301 196.977 68.727 197.036 68.6489 197.118C68.5047 197.286 68.4371 197.5 68.4602 197.714C68.5193 198.146 68.7385 198.546 69.0805 198.845C69.4225 199.144 69.8659 199.324 70.3349 199.354C70.8009 199.374 71.263 199.266 71.6628 199.044C72.0626 198.821 72.3822 198.493 72.5811 198.102C72.6307 198.003 72.6564 197.894 72.6564 197.785C72.6564 197.675 72.6307 197.567 72.5811 197.468C72.5193 197.378 72.4306 197.307 72.3259 197.263C72.2212 197.22 72.1049 197.205 71.9915 197.222C71.652 197.309 71.343 197.476 71.0954 197.708C70.7307 198.009 70.4254 198.366 70.1934 198.763C70.0957 198.902 70.0314 199.059 70.0048 199.222C70.3421 198.716 70.7572 198.257 71.2369 197.861C71.4612 197.667 71.7349 197.527 72.0328 197.457C72.0957 197.443 72.1618 197.448 72.2213 197.472C72.2808 197.496 72.3305 197.536 72.3629 197.588C72.3895 197.656 72.4007 197.727 72.3956 197.799C72.3905 197.87 72.3694 197.94 72.3335 198.004C72.1514 198.337 71.8693 198.615 71.5212 198.804C71.173 198.993 70.7734 199.085 70.3703 199.069C69.9733 199.041 69.5984 198.888 69.3063 198.637C69.0142 198.386 68.822 198.051 68.7609 197.687C68.7423 197.537 68.782 197.385 68.8729 197.26C68.9155 197.214 68.972 197.181 69.0352 197.166C69.0983 197.15 69.165 197.153 69.2266 197.173C69.4924 197.293 69.7139 197.483 69.8633 197.719C70.192 198.243 70.4157 198.817 70.5236 199.414Z" fill="#263238"/>
<path d="M56.859 108.397L59.6121 198.736L74.5863 199.856L87.0726 106.32L56.859 108.397Z" fill="white"/>
<path d="M36.6755 107.249C36.6755 107.249 38.7035 135.921 40.6372 146.666C42.5709 157.411 47.2813 196.238 49.4802 197.134C51.6792 198.031 64.5311 196.812 64.5311 196.812L69.1176 108.156L36.6755 107.249Z" fill="white"/>
<g opacity="0.3">
<path opacity="0.3" d="M37.0933 112.867L37.2229 114.485L61.0637 117.273L67.9436 113.644L81.7505 112.982L37.0933 112.867Z" fill="black"/>
</g>
<path d="M59.1071 197.851C59.0246 197.851 59.396 179.355 59.9384 156.553C60.4807 133.751 60.9818 115.256 61.0644 115.261C61.1469 115.267 60.7696 133.746 60.2272 156.559C59.6849 179.372 59.1838 197.851 59.1071 197.851Z" fill="#263238"/>
<path d="M41.7221 69.6628L29.7899 65.755C29.7899 65.755 37.389 41.5373 38.7272 41.2531C40.0655 40.9689 54.6918 35.0279 54.6918 35.0279L63.4877 51.4845L76.9173 37.2414C76.9173 37.2414 89.4449 45.9534 90.1936 47.8882C90.9423 49.823 80.6432 77.6206 80.6432 77.6206C80.6432 77.6206 85.271 84.2612 86.1612 91.727C87.0514 99.1929 85.271 113.299 85.271 113.299L34.4354 112.868C34.4354 112.868 33.893 92.0331 37.7604 81.1677C39.2991 76.8609 40.9557 71.9528 41.7221 69.6628Z" fill="white"/>
<path d="M67.0222 58.2397C67.1077 58.2019 67.1964 58.1708 67.2875 58.1468C67.5546 58.0608 67.8316 58.004 68.1128 57.9773C69.1784 57.8908 70.2518 57.9985 71.2727 58.2943C72.5992 58.6223 74.1674 59.1524 75.989 59.7208C76.891 60.005 77.8519 60.2674 78.8836 60.5352C79.9474 60.8187 81.0438 60.9838 82.1497 61.0271H82.2558V61.1637C81.4835 65.1153 80.5815 69.75 79.6265 74.6799C79.5734 74.9368 79.5262 75.1827 79.4791 75.4287L79.4437 75.6036L79.2727 75.5325C78.0544 75.0151 76.8419 74.5324 75.6353 74.0842C74.4865 73.6286 73.3045 73.2487 72.0981 72.9474C69.8423 72.5226 67.5572 72.245 65.2595 72.1166H65.1239V71.9964C65.6781 67.8699 66.1438 64.4266 66.468 61.9945C66.639 60.8139 66.7687 59.8793 66.863 59.218C66.9102 58.9119 66.9456 58.6715 66.9691 58.4911C66.9777 58.4094 66.9955 58.3288 67.0222 58.2506V58.513C67.0222 58.6988 66.975 58.9447 66.9397 59.2563C66.863 59.9285 66.751 60.8959 66.6154 62.0655C66.3148 64.4868 65.8962 67.9136 65.3892 72.0237L65.2772 71.8925C67.5839 72.0091 69.8789 72.2757 72.1453 72.6905C73.3747 72.9941 74.5802 73.3757 75.7532 73.8328C76.9559 74.2809 78.1723 74.7656 79.4024 75.2866L79.1961 75.385C79.2432 75.139 79.2904 74.8876 79.3435 74.6362L82.0082 61.12L82.1438 61.2621C81.0112 61.217 79.8888 61.0445 78.8011 60.7483C77.7635 60.4915 76.7967 60.2018 75.9006 59.9067C74.1025 59.3219 72.5461 58.7753 71.2315 58.431C69.8864 57.952 68.4113 57.885 67.0222 58.2397Z" fill="#263238"/>
<path d="M90.1894 47.888L97.9417 74.9969L82.2365 80.2656L80.6389 77.6203L90.1894 47.888Z" fill="white"/>
<path d="M34.4299 107.631H34.5596L34.931 107.692L36.3754 107.916C37.6252 108.101 39.4409 108.358 41.6812 108.506C42.9095 108.593 44.1433 108.593 45.3717 108.506C45.7063 108.481 46.0391 108.437 46.368 108.375C46.5331 108.342 46.704 108.32 46.8691 108.276L47.3584 108.129C48.0187 107.959 48.3783 107.314 48.6789 106.713C48.966 106.061 49.189 105.386 49.3451 104.696C49.5161 103.986 49.6517 103.259 49.7637 102.51C49.9936 101.018 50.141 99.4605 50.2471 97.8591C50.4711 94.3666 50.5006 91.0381 50.4476 88.0977L50.5773 88.2179L40.0894 88.0103L37.1064 87.9337L36.3164 87.9009C36.2263 87.9101 36.1353 87.9101 36.0452 87.9009H36.3164H40.0894L50.5832 88.0103H50.7129V88.1305C50.7836 91.0764 50.7659 94.4104 50.536 97.9137C50.4299 99.5206 50.2825 101.084 50.0467 102.587C49.9347 103.341 49.7932 104.073 49.6163 104.773C49.4535 105.478 49.2226 106.167 48.9266 106.833C48.7689 107.16 48.5711 107.468 48.337 107.752C48.2172 107.891 48.0829 108.019 47.9361 108.134C47.7786 108.237 47.6058 108.318 47.4233 108.375L46.9103 108.528C46.7335 108.571 46.5625 108.593 46.3916 108.626C46.055 108.689 45.7143 108.731 45.3717 108.752C44.1307 108.832 42.8849 108.821 41.6458 108.719C39.8555 108.583 38.0744 108.357 36.3105 108.041C35.6856 107.932 35.2081 107.834 34.878 107.768L34.5124 107.681C34.4712 107.67 34.424 107.637 34.4299 107.631Z" fill="#263238"/>
<path d="M50.455 91.508C50.455 91.5845 47.1065 91.6445 42.9797 91.6445C38.853 91.6445 35.5044 91.5845 35.5044 91.508C35.5044 91.4316 38.853 91.3716 42.9797 91.3716C47.1065 91.3716 50.455 91.4371 50.455 91.508Z" fill="#263238"/>
<path d="M57.2107 61.2568C57.2756 61.3006 53.4377 66.1047 48.633 71.9802C43.8283 77.8556 39.8902 82.5887 39.8077 82.5286C39.7251 82.4685 43.5807 77.6807 48.3854 71.7998C53.1901 65.9189 57.1459 61.2131 57.2107 61.2568Z" fill="#263238"/>
<path d="M40.9848 64.3446C40.9025 64.0748 40.8472 63.7985 40.8197 63.5193C40.7313 62.9728 40.6252 62.2131 40.5132 61.2511C40.2145 58.7499 40.0551 56.2361 40.0357 53.7197C40.0155 51.2001 40.1553 48.6816 40.4542 46.1773C40.5721 45.2208 40.69 44.4447 40.7844 43.9091C40.8188 43.6317 40.878 43.3575 40.9612 43.0892C40.9624 43.3691 40.9407 43.6486 40.8964 43.9255C40.8374 44.472 40.7549 45.2372 40.6606 46.1991C40.4778 48.1175 40.3068 50.7737 40.3245 53.7142C40.3422 56.6546 40.5427 59.3109 40.7136 61.2347C40.8021 62.1584 40.8787 62.9236 40.9318 63.5084C40.9733 63.7854 40.991 64.065 40.9848 64.3446Z" fill="#263238"/>
<path d="M52.3143 55.6489C52.2505 55.9001 52.1617 56.1453 52.049 56.3813C51.8604 56.8459 51.5715 57.5072 51.206 58.327C50.4691 59.9667 49.4374 62.2021 48.1404 64.6397C46.8435 67.0773 45.6408 69.2416 44.7152 70.7938C44.2554 71.5699 43.8722 72.193 43.5951 72.6138C43.4681 72.8432 43.3181 73.061 43.1471 73.2642C43.2388 73.0213 43.3553 72.7871 43.4949 72.5647C43.7661 72.0837 44.1139 71.4715 44.5325 70.7009C45.4109 69.1323 46.6076 66.9516 47.8751 64.5194C49.1426 62.0873 50.2333 59.8683 51.0173 58.2505L51.9429 56.3376C52.0467 56.0992 52.1709 55.8689 52.3143 55.6489Z" fill="#263238"/>
<path d="M80.6371 39.8974C80.5639 40.0237 80.477 40.1427 80.3777 40.2526C80.189 40.4986 79.9237 40.832 79.5936 41.2473L76.6459 44.9038L66.5944 57.1629L66.5531 57.2121H60.0682L60.0269 57.1356C57.1441 51.4788 54.5855 46.456 52.7285 42.8214C51.8265 41.0233 51.1014 39.5421 50.5826 38.5419L49.9931 37.3832C49.9341 37.263 49.8928 37.1591 49.8516 37.0772C49.8359 37.0432 49.8221 37.0086 49.8103 36.9733C49.8103 36.9733 49.8103 37.0006 49.8752 37.0662L50.0402 37.3614L50.6592 38.5037L52.8818 42.7394C54.7565 46.3685 57.3505 51.3804 60.2687 57.0153L60.1331 56.9388H66.4706L66.3527 56.9935L76.4809 44.8163L79.5111 41.2091L80.3364 40.2471C80.4269 40.1236 80.5274 40.0067 80.6371 39.8974Z" fill="#263238"/>
<path d="M79.5067 89.4259C79.3513 89.2971 79.2145 89.1502 79.1 88.9887C78.8523 88.699 78.5104 88.2672 78.1154 87.7152C76.0588 84.826 74.5903 81.6121 73.7824 78.2326C73.6291 77.5822 73.5288 77.0575 73.4758 76.6913C73.4365 76.5115 73.4188 76.3282 73.4227 76.1447C73.4699 76.1447 73.6291 76.9372 74.0123 78.2162C74.925 81.5415 76.3781 84.7187 78.3218 87.6387C79.0351 88.7318 79.5421 89.3986 79.5067 89.4259Z" fill="#263238"/>
<path d="M75.5938 81.6702C75.5466 81.5991 76.8966 80.7301 78.4353 79.484C79.974 78.2379 81.1177 77.1666 81.1767 77.2213C80.4545 78.1513 79.5953 78.9829 78.624 79.6917C77.7143 80.4743 76.6951 81.1398 75.5938 81.6702Z" fill="#263238"/>
<path d="M82.7815 81.304C82.7306 81.247 82.6871 81.1846 82.6518 81.1182L82.3216 80.5717C82.0209 80.0579 81.6142 79.3583 81.1013 78.4893V78.462V78.4292C81.9207 75.5106 83.3061 70.7228 84.8861 65.312C86.2125 60.8576 87.4152 56.8295 88.2936 53.8727L89.3548 50.413C89.4786 50.0304 89.5788 49.7189 89.6613 49.4784C89.6878 49.3665 89.7294 49.2582 89.7851 49.1559C89.7696 49.2684 89.746 49.3798 89.7144 49.4893L89.4668 50.4403C89.2251 51.2929 88.8772 52.4735 88.494 53.9219C87.6333 56.8842 86.4601 60.9177 85.1691 65.3994C83.5832 70.7939 82.1565 75.5707 81.2663 78.4729V78.4128L82.4159 80.5334L82.7048 81.08C82.7422 81.1507 82.768 81.2262 82.7815 81.304Z" fill="#263238"/>
<g opacity="0.3">
<path opacity="0.3" d="M54.0217 61.9617C48.9617 68.0504 44.5936 74.6073 40.9871 81.5282L41.3762 81.3534L45.0726 76.582L54.1455 64.8912C54.5629 64.4388 54.849 63.8952 54.9768 63.3117C55.0294 63.0166 54.9604 62.714 54.7835 62.4639C54.6065 62.2138 54.3346 62.0346 54.0217 61.9617Z" fill="black"/>
</g>
<g opacity="0.3">
<path opacity="0.3" d="M40.986 64.3447C39.6295 61.9355 38.8677 59.2769 38.7555 56.5612C38.6433 53.8455 39.1837 51.1407 40.3375 48.6423C40.3375 48.6423 40.3965 61.7924 40.986 64.3447Z" fill="black"/>
</g>
<path d="M81.3835 64.0605C81.1855 64.0658 80.9876 64.0493 80.7939 64.0113C80.4107 63.9622 79.8625 63.8802 79.1845 63.7709C77.8286 63.5468 75.9656 63.1915 73.9258 62.727C71.8861 62.2624 70.0644 61.7705 68.7497 61.3824C68.0953 61.1857 67.5707 61.0217 67.2052 60.9015C67.01 60.8539 66.8233 60.7802 66.651 60.6828C66.8515 60.7008 67.0492 60.7393 67.2405 60.7976L68.8087 61.1966C70.1351 61.5355 71.9627 62 73.9966 62.4646C76.0305 62.9292 77.8816 63.3118 79.2258 63.585L80.8116 63.9075C81.0089 63.9338 81.2014 63.9853 81.3835 64.0605Z" fill="#263238"/>
<g opacity="0.3">
<path opacity="0.3" d="M81.6346 77.2488C81.6346 77.2488 89.2986 72.7998 87.8306 55.3867L81.6346 77.2488Z" fill="black"/>
</g>
<path d="M92.9566 76.6857C92.9566 76.6857 94.0472 93.5905 93.611 96.1921C93.1747 98.7937 91.5594 110.714 91.5594 110.714L85.1099 109.468L83.3413 79.8885L92.9566 76.6857Z" fill="#9B6B63"/>
<path d="M82.2182 120.869C82.6604 119.437 82.2949 116.71 82.513 115.753C82.6191 115.305 84.146 110.517 84.5528 109.949L84.1637 102.171L94.4334 102.57L92.2462 110.255C92.7768 111.348 94.4334 116.3 94.4334 116.524C94.4334 116.748 94.062 120.732 94.062 120.732L92.0163 122.815C91.956 122.871 91.8832 122.914 91.803 122.942C91.7228 122.969 91.6371 122.98 91.5519 122.974C91.4666 122.968 91.3838 122.944 91.3093 122.906C91.2348 122.867 91.1702 122.813 91.1202 122.749L90.9021 122.437C90.8259 122.69 90.6752 122.918 90.4669 123.096C90.2586 123.273 90.001 123.394 89.723 123.443C88.5439 123.634 88.5439 123.323 88.5439 123.323L88.2727 122.366C88.2727 122.366 86.5631 123.612 86.1209 123.673C85.6788 123.733 85.384 121.891 85.384 121.891L86.8519 118.89L86.4157 115.89C86.4157 115.89 84.0576 122.366 83.4268 122.366C82.7959 122.366 81.782 122.301 82.2182 120.869Z" fill="#455A64"/>
<path d="M34.4282 112.867C34.4282 112.949 45.3641 113.086 58.8526 113.179C72.3412 113.272 83.2712 113.283 83.2771 113.179C83.283 113.075 72.3412 112.966 58.8526 112.873C45.3641 112.78 34.4341 112.791 34.4282 112.867Z" fill="#263238"/>
<path d="M90.2312 116.152C90.1837 116.479 90.1837 116.81 90.2312 117.136C90.2775 117.912 90.2081 118.69 90.0249 119.448C89.7879 120.187 89.3996 120.878 88.8812 121.481C88.6471 121.728 88.4489 122.001 88.2916 122.296C88.3211 122.323 88.6218 122.066 89.058 121.607C89.6483 121.01 90.0838 120.296 90.3314 119.519C90.5244 118.734 90.5663 117.924 90.4552 117.125C90.4331 116.792 90.3576 116.464 90.2312 116.152Z" fill="#263238"/>
<path d="M92.8693 116.622C92.6974 116.897 92.6136 117.212 92.6276 117.53C92.5628 118.109 92.6866 118.907 92.5451 119.716C92.3693 120.422 92.0293 121.084 91.5488 121.656C91.3309 121.89 91.1465 122.149 91.0005 122.427C91.03 122.454 91.3129 122.214 91.7197 121.776C92.2792 121.209 92.6676 120.515 92.8457 119.765C92.9174 119.018 92.9174 118.266 92.8457 117.519C92.8339 116.961 92.9224 116.633 92.8693 116.622Z" fill="#263238"/>
<path d="M30.915 71.2694C30.8678 71.3459 31.7757 71.816 32.6128 72.685C33.45 73.554 33.8921 74.4175 33.9805 74.3847C33.7637 73.6813 33.374 73.034 32.8422 72.4935C32.3103 71.953 31.6507 71.534 30.915 71.2694Z" fill="#484848"/>
<path d="M2.11153 68.4548C1.4591 68.1866 0.860949 67.8169 0.342928 67.3617C0.159642 67.134 0.045017 66.8651 0.0108274 66.5827C-0.0233604 66.3004 0.0241261 66.0146 0.148388 65.7549L1.75192 66.3014C1.21029 66.1373 0.746078 65.8053 0.437256 65.3614C0.346872 65.2651 0.278712 65.1526 0.236996 65.031C0.195279 64.9094 0.180889 64.7811 0.194697 64.6541C0.208507 64.5271 0.250226 64.404 0.31729 64.2926C0.384354 64.1811 0.475345 64.0835 0.584639 64.0059C0.584639 64.0059 3.36725 65.0389 4.45789 65.3668C4.61117 65.4652 10.2766 67.4765 10.5773 67.7716L15.8831 73.0185L23.6649 71.3789L24.3665 81.2551C24.3665 81.2551 14.5448 80.3204 12.8941 79.8723C11.2434 79.4241 6.95751 75.631 6.95751 75.631L5.01793 73.2481L1.57505 71.4773C0.985519 71.0947 0.360614 70.3842 0.897091 69.7064C-0.193548 69.056 0.372397 67.7826 0.372397 67.7826L2.11153 68.4548Z" fill="#455A64"/>
<path d="M9.56599 76.91C9.10078 76.6311 8.65571 76.3244 8.23363 75.9918C7.77643 75.5946 7.4183 75.1096 7.18426 74.5707C6.88003 73.8787 6.78624 73.1226 6.91308 72.3845V72.2698L6.80107 72.237L4.63747 71.5975C4.25234 71.4963 3.87595 71.3684 3.51145 71.2149C3.14904 71.0581 2.83335 70.8217 2.59178 70.5263C2.35345 70.2075 2.25251 69.8175 2.30882 69.4332L2.15553 69.5425L7.46134 69.6572H7.3906L9.84895 71.2969L10.5328 71.7341C10.6091 71.7903 10.6922 71.838 10.7804 71.8762C10.5271 71.6203 10.2421 71.3928 9.9315 71.1985C9.34196 70.7831 8.54609 70.2038 7.53209 69.4933H7.50262H7.46725L2.1909 69.3184H2.07889V69.4332C2.0348 69.6664 2.04129 69.9054 2.09798 70.1362C2.15466 70.3671 2.2604 70.5851 2.40903 70.7777C2.97703 71.392 3.7554 71.8069 4.61388 71.9528L6.77748 72.5758L6.68905 72.4283C6.56144 73.2083 6.67382 74.0058 7.01329 74.7292C7.27334 75.2865 7.66641 75.7817 8.16289 76.1776L8.45766 76.4072L8.73474 76.582C8.88201 76.6764 9.03782 76.7587 9.20046 76.828C9.31822 76.8691 9.44099 76.8966 9.56599 76.91Z" fill="#263238"/>
<path d="M6.46968 69.209C6.80576 69.0516 7.11877 68.8551 7.40114 68.6242L7.52493 68.5367L7.38345 68.4657C6.6819 68.0995 5.61485 67.6021 4.37094 67.1102C3.23313 66.6511 2.18376 66.2904 1.42326 66.0554C1.01422 65.9057 0.586334 65.8046 0.149865 65.7548C0.524479 65.9543 0.919416 66.1191 1.32893 66.2467C2.07764 66.5254 3.09753 66.9189 4.23534 67.3398C5.46157 67.8317 6.5522 68.2962 7.28322 68.6078V68.4493C6.97742 68.6685 6.70393 68.9239 6.46968 69.209Z" fill="#263238"/>
<path d="M4.07782 69.2088C3.52406 68.8402 2.91137 68.5543 2.26206 68.3617C1.64417 68.0775 0.984771 67.8786 0.304803 67.7714C0.862008 68.1347 1.4738 68.4202 2.12056 68.6185C2.73845 68.9027 3.39785 69.1016 4.07782 69.2088Z" fill="#263238"/>
</svg>
