<svg width="44" height="44" viewBox="0 0 44 44" fill="none" xmlns="http://www.w3.org/2000/svg">
<path d="M34.5156 11.3204L33.4779 12.3645L34.5022 13.4216L36.6813 15.6705C37.0147 16.0374 37.119 16.5858 36.9352 17.0581C36.7249 17.5317 36.2767 17.8153 35.7989 17.8153H27.5772C26.8874 17.8153 26.3366 17.27 26.3366 16.5558V7.97366C26.3366 7.43546 26.6449 6.98787 27.0977 6.80354C27.5628 6.61696 28.0969 6.72139 28.4748 7.10143L30.7137 9.44117L31.7781 10.5535L32.8623 9.46054L40.3984 1.86416C40.8805 1.37871 41.6515 1.37859 42.1338 1.86385C42.6221 2.35797 42.6221 3.16117 42.1337 3.65526C42.1334 3.65559 42.133 3.65592 42.1327 3.65624L34.5156 11.3204ZM8.5811 28.337L8.58113 28.337L8.57286 28.3288C8.22772 27.986 8.11034 27.4514 8.30015 26.9568C8.51672 26.4654 8.97128 26.1826 9.43419 26.1826H16.4503C17.1214 26.1826 17.6908 26.7395 17.6908 27.4421V34.4927C17.6908 35.0141 17.3894 35.463 16.9218 35.655L16.9152 35.6577L16.9087 35.6605C16.4712 35.845 15.939 35.7519 15.5644 35.3823C15.5635 35.3813 15.5625 35.3803 15.5615 35.3793L14.0065 33.8137L12.9413 32.7412L11.877 33.8146L3.62785 42.1347L3.62738 42.1351C3.14546 42.6216 2.3492 42.6216 1.86728 42.1351C1.37683 41.64 1.37877 40.8363 1.86593 40.3458L10.1417 32.0267L11.1923 30.9706L10.1434 29.9127L8.5811 28.337Z" stroke="#C62C2C" stroke-width="3"/>
</svg>
